<mxfile host="Electron" modified="2023-11-30T20:07:53.022Z" agent="Mozilla/5.0 (Windows NT 10.0; Win64; x64) AppleWebKit/537.36 (KHTML, like Gecko) draw.io/22.0.3 Chrome/114.0.5735.289 Electron/25.8.4 Safari/537.36" etag="Htk3vztHer2_3f6HMBL5" version="22.0.3" type="device">
  <diagram id="R2lEEEUBdFMjLlhIrx00" name="Page-1">
    <mxGraphModel dx="1151" dy="727" grid="1" gridSize="10" guides="1" tooltips="1" connect="1" arrows="0" fold="1" page="1" pageScale="1" pageWidth="1654" pageHeight="1169" math="0" shadow="0" extFonts="Permanent Marker^https://fonts.googleapis.com/css?family=Permanent+Marker">
      <root>
        <mxCell id="0" />
        <mxCell id="1" parent="0" />
        <mxCell id="OM572cekEQb-akaccsAw-1" value="Donor" style="whiteSpace=wrap;html=1;align=center;fontFamily=Inconsolata;fontSource=https%3A%2F%2Ffonts.googleapis.com%2Fcss%3Ffamily%3DInconsolata;labelBackgroundColor=none;fillColor=none;rounded=0;" parent="1" vertex="1">
          <mxGeometry x="670" y="540" width="100" height="40" as="geometry" />
        </mxCell>
        <mxCell id="OM572cekEQb-akaccsAw-2" value="Recipient" style="whiteSpace=wrap;html=1;align=center;fontFamily=Inconsolata;fontSource=https%3A%2F%2Ffonts.googleapis.com%2Fcss%3Ffamily%3DInconsolata;labelBackgroundColor=none;fillColor=none;rounded=0;" parent="1" vertex="1">
          <mxGeometry x="830" y="540" width="100" height="40" as="geometry" />
        </mxCell>
        <mxCell id="OM572cekEQb-akaccsAw-3" value="&lt;font data-font-src=&quot;https://fonts.googleapis.com/css?family=Inconsolata&quot;&gt;Person&lt;/font&gt;" style="whiteSpace=wrap;html=1;align=center;fontFamily=Inconsolata;fontSource=https%3A%2F%2Ffonts.googleapis.com%2Fcss%3Ffamily%3DInconsolata;labelBackgroundColor=none;fillColor=none;rounded=0;" parent="1" vertex="1">
          <mxGeometry x="670" y="335" width="100" height="40" as="geometry" />
        </mxCell>
        <mxCell id="OM572cekEQb-akaccsAw-64" style="edgeStyle=orthogonalEdgeStyle;rounded=0;orthogonalLoop=1;jettySize=auto;html=1;exitX=0;exitY=0.5;exitDx=0;exitDy=0;endArrow=none;endFill=0;entryX=0.75;entryY=0;entryDx=0;entryDy=0;fontFamily=Inconsolata;fontSource=https%3A%2F%2Ffonts.googleapis.com%2Fcss%3Ffamily%3DInconsolata;labelBackgroundColor=none;" parent="1" source="OM572cekEQb-akaccsAw-4" target="OM572cekEQb-akaccsAw-3" edge="1">
          <mxGeometry relative="1" as="geometry">
            <mxPoint x="740" y="320" as="targetPoint" />
            <Array as="points">
              <mxPoint x="740" y="240" />
              <mxPoint x="740" y="335" />
            </Array>
          </mxGeometry>
        </mxCell>
        <mxCell id="OM572cekEQb-akaccsAw-4" value="Gender" style="ellipse;whiteSpace=wrap;html=1;align=center;fillColor=none;fontFamily=Inconsolata;fontSource=https%3A%2F%2Ffonts.googleapis.com%2Fcss%3Ffamily%3DInconsolata;labelBackgroundColor=none;" parent="1" vertex="1">
          <mxGeometry x="800" y="220" width="100" height="40" as="geometry" />
        </mxCell>
        <mxCell id="OM572cekEQb-akaccsAw-74" style="edgeStyle=orthogonalEdgeStyle;rounded=0;orthogonalLoop=1;jettySize=auto;html=1;exitX=0.5;exitY=0;exitDx=0;exitDy=0;entryX=0.5;entryY=1;entryDx=0;entryDy=0;endArrow=none;endFill=0;fontFamily=Inconsolata;fontSource=https%3A%2F%2Ffonts.googleapis.com%2Fcss%3Ffamily%3DInconsolata;labelBackgroundColor=none;" parent="1" source="OM572cekEQb-akaccsAw-5" target="OM572cekEQb-akaccsAw-16" edge="1">
          <mxGeometry relative="1" as="geometry">
            <Array as="points">
              <mxPoint x="650" y="185" />
            </Array>
          </mxGeometry>
        </mxCell>
        <mxCell id="OM572cekEQb-akaccsAw-75" style="edgeStyle=orthogonalEdgeStyle;rounded=0;orthogonalLoop=1;jettySize=auto;html=1;exitX=0;exitY=0.5;exitDx=0;exitDy=0;entryX=1;entryY=1;entryDx=0;entryDy=0;endArrow=none;endFill=0;fontFamily=Inconsolata;fontSource=https%3A%2F%2Ffonts.googleapis.com%2Fcss%3Ffamily%3DInconsolata;labelBackgroundColor=none;" parent="1" source="OM572cekEQb-akaccsAw-5" target="OM572cekEQb-akaccsAw-17" edge="1">
          <mxGeometry relative="1" as="geometry">
            <Array as="points">
              <mxPoint x="565" y="205" />
            </Array>
          </mxGeometry>
        </mxCell>
        <mxCell id="W_OnjFls6b9u1241AHmh-44" style="edgeStyle=orthogonalEdgeStyle;rounded=0;orthogonalLoop=1;jettySize=auto;html=1;exitX=0.107;exitY=0.199;exitDx=0;exitDy=0;entryX=0.899;entryY=0.802;entryDx=0;entryDy=0;endArrow=none;endFill=0;exitPerimeter=0;entryPerimeter=0;" parent="1" source="OM572cekEQb-akaccsAw-5" target="OM572cekEQb-akaccsAw-15" edge="1">
          <mxGeometry relative="1" as="geometry">
            <Array as="points">
              <mxPoint x="620" y="191" />
              <mxPoint x="620" y="191" />
              <mxPoint x="620" y="154" />
              <mxPoint x="620" y="154" />
            </Array>
          </mxGeometry>
        </mxCell>
        <mxCell id="OM572cekEQb-akaccsAw-5" value="Name" style="ellipse;whiteSpace=wrap;html=1;align=center;fillColor=none;fontFamily=Inconsolata;fontSource=https%3A%2F%2Ffonts.googleapis.com%2Fcss%3Ffamily%3DInconsolata;labelBackgroundColor=none;" parent="1" vertex="1">
          <mxGeometry x="609.44" y="185" width="100" height="40" as="geometry" />
        </mxCell>
        <mxCell id="OM572cekEQb-akaccsAw-68" style="edgeStyle=orthogonalEdgeStyle;rounded=0;orthogonalLoop=1;jettySize=auto;html=1;exitX=1;exitY=0.5;exitDx=0;exitDy=0;entryX=0.25;entryY=0;entryDx=0;entryDy=0;endArrow=none;endFill=0;fontFamily=Inconsolata;fontSource=https%3A%2F%2Ffonts.googleapis.com%2Fcss%3Ffamily%3DInconsolata;labelBackgroundColor=none;" parent="1" source="OM572cekEQb-akaccsAw-6" target="OM572cekEQb-akaccsAw-3" edge="1">
          <mxGeometry relative="1" as="geometry">
            <Array as="points">
              <mxPoint x="690" y="280" />
              <mxPoint x="690" y="335" />
            </Array>
          </mxGeometry>
        </mxCell>
        <mxCell id="OM572cekEQb-akaccsAw-6" value="Address" style="ellipse;whiteSpace=wrap;html=1;align=center;fillColor=none;fontFamily=Inconsolata;fontSource=https%3A%2F%2Ffonts.googleapis.com%2Fcss%3Ffamily%3DInconsolata;labelBackgroundColor=none;" parent="1" vertex="1">
          <mxGeometry x="489.44" y="260" width="100" height="40" as="geometry" />
        </mxCell>
        <mxCell id="OM572cekEQb-akaccsAw-69" style="edgeStyle=orthogonalEdgeStyle;rounded=0;orthogonalLoop=1;jettySize=auto;html=1;exitX=0;exitY=0.5;exitDx=0;exitDy=0;entryX=0.75;entryY=0;entryDx=0;entryDy=0;endArrow=none;endFill=0;fontFamily=Inconsolata;fontSource=https%3A%2F%2Ffonts.googleapis.com%2Fcss%3Ffamily%3DInconsolata;labelBackgroundColor=none;" parent="1" source="OM572cekEQb-akaccsAw-7" target="OM572cekEQb-akaccsAw-3" edge="1">
          <mxGeometry relative="1" as="geometry">
            <Array as="points">
              <mxPoint x="750" y="280" />
              <mxPoint x="750" y="335" />
            </Array>
          </mxGeometry>
        </mxCell>
        <mxCell id="OM572cekEQb-akaccsAw-7" value="E-mail" style="ellipse;whiteSpace=wrap;html=1;align=center;fillColor=none;fontFamily=Inconsolata;fontSource=https%3A%2F%2Ffonts.googleapis.com%2Fcss%3Ffamily%3DInconsolata;labelBackgroundColor=none;" parent="1" vertex="1">
          <mxGeometry x="849.44" y="260" width="100" height="40" as="geometry" />
        </mxCell>
        <mxCell id="OM572cekEQb-akaccsAw-70" style="edgeStyle=orthogonalEdgeStyle;rounded=0;orthogonalLoop=1;jettySize=auto;html=1;exitX=0;exitY=0.5;exitDx=0;exitDy=0;entryX=1;entryY=0;entryDx=0;entryDy=0;endArrow=none;endFill=0;fontFamily=Inconsolata;fontSource=https%3A%2F%2Ffonts.googleapis.com%2Fcss%3Ffamily%3DInconsolata;labelBackgroundColor=none;" parent="1" source="OM572cekEQb-akaccsAw-8" target="OM572cekEQb-akaccsAw-3" edge="1">
          <mxGeometry relative="1" as="geometry">
            <Array as="points">
              <mxPoint x="760" y="320" />
              <mxPoint x="760" y="335" />
            </Array>
          </mxGeometry>
        </mxCell>
        <mxCell id="OM572cekEQb-akaccsAw-8" value="&lt;u&gt;Phone&lt;/u&gt;" style="ellipse;whiteSpace=wrap;html=1;align=center;fillColor=none;fontFamily=Inconsolata;fontSource=https%3A%2F%2Ffonts.googleapis.com%2Fcss%3Ffamily%3DInconsolata;labelBackgroundColor=none;" parent="1" vertex="1">
          <mxGeometry x="900" y="300" width="100" height="40" as="geometry" />
        </mxCell>
        <mxCell id="OM572cekEQb-akaccsAw-71" style="edgeStyle=orthogonalEdgeStyle;rounded=0;orthogonalLoop=1;jettySize=auto;html=1;exitX=1;exitY=0.5;exitDx=0;exitDy=0;entryX=0;entryY=0;entryDx=0;entryDy=0;endArrow=none;endFill=0;fontFamily=Inconsolata;fontSource=https%3A%2F%2Ffonts.googleapis.com%2Fcss%3Ffamily%3DInconsolata;labelBackgroundColor=none;" parent="1" source="OM572cekEQb-akaccsAw-9" target="OM572cekEQb-akaccsAw-3" edge="1">
          <mxGeometry relative="1" as="geometry">
            <Array as="points">
              <mxPoint x="680" y="320" />
              <mxPoint x="680" y="335" />
            </Array>
          </mxGeometry>
        </mxCell>
        <mxCell id="OM572cekEQb-akaccsAw-9" value="&lt;u&gt;National ID&lt;/u&gt;" style="ellipse;whiteSpace=wrap;html=1;align=center;fillColor=none;fontFamily=Inconsolata;fontSource=https%3A%2F%2Ffonts.googleapis.com%2Fcss%3Ffamily%3DInconsolata;labelBackgroundColor=none;" parent="1" vertex="1">
          <mxGeometry x="439.44" y="300" width="100" height="40" as="geometry" />
        </mxCell>
        <mxCell id="OM572cekEQb-akaccsAw-10" value="Birth_Date" style="ellipse;whiteSpace=wrap;html=1;align=center;fillColor=none;fontFamily=Inconsolata;fontSource=https%3A%2F%2Ffonts.googleapis.com%2Fcss%3Ffamily%3DInconsolata;labelBackgroundColor=none;" parent="1" vertex="1">
          <mxGeometry x="729.44" y="185" width="100" height="40" as="geometry" />
        </mxCell>
        <mxCell id="OM572cekEQb-akaccsAw-67" style="edgeStyle=orthogonalEdgeStyle;rounded=0;orthogonalLoop=1;jettySize=auto;html=1;exitX=1;exitY=0.5;exitDx=0;exitDy=0;entryX=0.25;entryY=0;entryDx=0;entryDy=0;endArrow=none;endFill=0;fontFamily=Inconsolata;fontSource=https%3A%2F%2Ffonts.googleapis.com%2Fcss%3Ffamily%3DInconsolata;labelBackgroundColor=none;" parent="1" source="OM572cekEQb-akaccsAw-14" target="OM572cekEQb-akaccsAw-3" edge="1">
          <mxGeometry relative="1" as="geometry">
            <Array as="points">
              <mxPoint x="700" y="240" />
              <mxPoint x="700" y="335" />
            </Array>
          </mxGeometry>
        </mxCell>
        <mxCell id="OM572cekEQb-akaccsAw-14" value="Weight" style="ellipse;whiteSpace=wrap;html=1;align=center;fillColor=none;fontFamily=Inconsolata;fontSource=https%3A%2F%2Ffonts.googleapis.com%2Fcss%3Ffamily%3DInconsolata;labelBackgroundColor=none;" parent="1" vertex="1">
          <mxGeometry x="539.44" y="220" width="100" height="40" as="geometry" />
        </mxCell>
        <mxCell id="OM572cekEQb-akaccsAw-15" value="FName" style="ellipse;whiteSpace=wrap;html=1;align=center;fillColor=none;fontFamily=Inconsolata;fontSource=https%3A%2F%2Ffonts.googleapis.com%2Fcss%3Ffamily%3DInconsolata;labelBackgroundColor=none;" parent="1" vertex="1">
          <mxGeometry x="530" y="120" width="100" height="40" as="geometry" />
        </mxCell>
        <mxCell id="OM572cekEQb-akaccsAw-16" value="MName" style="ellipse;whiteSpace=wrap;html=1;align=center;fillColor=none;fontFamily=Inconsolata;fontSource=https%3A%2F%2Ffonts.googleapis.com%2Fcss%3Ffamily%3DInconsolata;labelBackgroundColor=none;" parent="1" vertex="1">
          <mxGeometry x="600" y="80" width="100" height="40" as="geometry" />
        </mxCell>
        <mxCell id="OM572cekEQb-akaccsAw-17" value="LName" style="ellipse;whiteSpace=wrap;html=1;align=center;fillColor=none;fontFamily=Inconsolata;fontSource=https%3A%2F%2Ffonts.googleapis.com%2Fcss%3Ffamily%3DInconsolata;labelBackgroundColor=none;" parent="1" vertex="1">
          <mxGeometry x="480" y="160" width="100" height="40" as="geometry" />
        </mxCell>
        <mxCell id="OM572cekEQb-akaccsAw-20" value="Donation_Center" style="whiteSpace=wrap;html=1;align=center;fontFamily=Inconsolata;fontSource=https%3A%2F%2Ffonts.googleapis.com%2Fcss%3Ffamily%3DInconsolata;labelBackgroundColor=none;fillColor=none;flipH=0;flipV=1;" parent="1" vertex="1">
          <mxGeometry x="410.00000000000006" y="820" width="100" height="40" as="geometry" />
        </mxCell>
        <mxCell id="OM572cekEQb-akaccsAw-37" value="&lt;u&gt;Bag_ID&lt;/u&gt;" style="ellipse;whiteSpace=wrap;html=1;align=center;fontFamily=Inconsolata;fontSource=https%3A%2F%2Ffonts.googleapis.com%2Fcss%3Ffamily%3DInconsolata;labelBackgroundColor=none;fillColor=none;" parent="1" vertex="1">
          <mxGeometry x="1120" y="760" width="100" height="40" as="geometry" />
        </mxCell>
        <mxCell id="fi6M-Fa2wv0ImvNQl4bt-7" style="edgeStyle=orthogonalEdgeStyle;rounded=0;orthogonalLoop=1;jettySize=auto;html=1;exitX=1;exitY=1;exitDx=0;exitDy=0;entryX=0;entryY=0.5;entryDx=0;entryDy=0;endArrow=none;endFill=0;" edge="1" parent="1" source="OM572cekEQb-akaccsAw-38" target="OM572cekEQb-akaccsAw-40">
          <mxGeometry relative="1" as="geometry" />
        </mxCell>
        <mxCell id="fi6M-Fa2wv0ImvNQl4bt-8" style="edgeStyle=orthogonalEdgeStyle;rounded=0;orthogonalLoop=1;jettySize=auto;html=1;exitX=1;exitY=0;exitDx=0;exitDy=0;entryX=0;entryY=0.5;entryDx=0;entryDy=0;endArrow=none;endFill=0;" edge="1" parent="1" source="OM572cekEQb-akaccsAw-38" target="OM572cekEQb-akaccsAw-58">
          <mxGeometry relative="1" as="geometry" />
        </mxCell>
        <mxCell id="OM572cekEQb-akaccsAw-38" value="&lt;u&gt;Blood_ID&lt;/u&gt;" style="ellipse;whiteSpace=wrap;html=1;align=center;fontFamily=Inconsolata;fontSource=https%3A%2F%2Ffonts.googleapis.com%2Fcss%3Ffamily%3DInconsolata;labelBackgroundColor=none;fillColor=none;" parent="1" vertex="1">
          <mxGeometry x="1150" y="400.5" width="100" height="40" as="geometry" />
        </mxCell>
        <mxCell id="W_OnjFls6b9u1241AHmh-7" style="edgeStyle=orthogonalEdgeStyle;rounded=0;orthogonalLoop=1;jettySize=auto;html=1;exitX=0;exitY=0.5;exitDx=0;exitDy=0;entryX=1;entryY=0.25;entryDx=0;entryDy=0;endArrow=none;endFill=0;" parent="1" source="OM572cekEQb-akaccsAw-39" target="OM572cekEQb-akaccsAw-57" edge="1">
          <mxGeometry relative="1" as="geometry">
            <Array as="points">
              <mxPoint x="1120" y="650" />
              <mxPoint x="1120" y="680" />
              <mxPoint x="1100" y="680" />
            </Array>
          </mxGeometry>
        </mxCell>
        <mxCell id="OM572cekEQb-akaccsAw-39" value="Donation_Date" style="ellipse;whiteSpace=wrap;html=1;align=center;fontFamily=Inconsolata;fontSource=https%3A%2F%2Ffonts.googleapis.com%2Fcss%3Ffamily%3DInconsolata;labelBackgroundColor=none;fillColor=none;" parent="1" vertex="1">
          <mxGeometry x="1200" y="630" width="100" height="40" as="geometry" />
        </mxCell>
        <mxCell id="OM572cekEQb-akaccsAw-40" value="&lt;u&gt;Rh_Factor&lt;/u&gt;" style="ellipse;whiteSpace=wrap;html=1;align=center;fontFamily=Inconsolata;fontSource=https%3A%2F%2Ffonts.googleapis.com%2Fcss%3Ffamily%3DInconsolata;labelBackgroundColor=none;fillColor=none;" parent="1" vertex="1">
          <mxGeometry x="1260" y="429" width="100" height="40" as="geometry" />
        </mxCell>
        <mxCell id="OM572cekEQb-akaccsAw-41" value="Medical_History" style="shape=ext;margin=3;double=1;whiteSpace=wrap;html=1;align=center;fontFamily=Inconsolata;fontSource=https%3A%2F%2Ffonts.googleapis.com%2Fcss%3Ffamily%3DInconsolata;labelBackgroundColor=none;fillColor=none;" parent="1" vertex="1">
          <mxGeometry x="340" y="400.5" width="100" height="40" as="geometry" />
        </mxCell>
        <mxCell id="OM572cekEQb-akaccsAw-97" style="edgeStyle=orthogonalEdgeStyle;rounded=0;orthogonalLoop=1;jettySize=auto;html=1;exitX=1;exitY=0.5;exitDx=0;exitDy=0;entryX=0;entryY=0.5;entryDx=0;entryDy=0;endArrow=none;endFill=0;fontFamily=Inconsolata;fontSource=https%3A%2F%2Ffonts.googleapis.com%2Fcss%3Ffamily%3DInconsolata;labelBackgroundColor=none;" parent="1" source="OM572cekEQb-akaccsAw-44" target="OM572cekEQb-akaccsAw-41" edge="1">
          <mxGeometry relative="1" as="geometry">
            <Array as="points">
              <mxPoint x="320" y="410" />
              <mxPoint x="340" y="410" />
            </Array>
          </mxGeometry>
        </mxCell>
        <mxCell id="OM572cekEQb-akaccsAw-44" value="&lt;span style=&quot;border-bottom: 1px dotted&quot;&gt;MHID&lt;/span&gt;" style="ellipse;whiteSpace=wrap;html=1;align=center;fontFamily=Inconsolata;fontSource=https%3A%2F%2Ffonts.googleapis.com%2Fcss%3Ffamily%3DInconsolata;labelBackgroundColor=none;fillColor=none;" parent="1" vertex="1">
          <mxGeometry x="220" y="380" width="100" height="40" as="geometry" />
        </mxCell>
        <mxCell id="OM572cekEQb-akaccsAw-99" style="edgeStyle=orthogonalEdgeStyle;rounded=0;orthogonalLoop=1;jettySize=auto;html=1;exitX=1;exitY=0;exitDx=0;exitDy=0;entryX=0.25;entryY=1;entryDx=0;entryDy=0;endArrow=none;endFill=0;fontFamily=Inconsolata;fontSource=https%3A%2F%2Ffonts.googleapis.com%2Fcss%3Ffamily%3DInconsolata;labelBackgroundColor=none;" parent="1" source="OM572cekEQb-akaccsAw-45" target="OM572cekEQb-akaccsAw-41" edge="1">
          <mxGeometry relative="1" as="geometry" />
        </mxCell>
        <mxCell id="OM572cekEQb-akaccsAw-45" value="Treatment" style="ellipse;whiteSpace=wrap;html=1;align=center;fontFamily=Inconsolata;fontSource=https%3A%2F%2Ffonts.googleapis.com%2Fcss%3Ffamily%3DInconsolata;labelBackgroundColor=none;fillColor=none;" parent="1" vertex="1">
          <mxGeometry x="280" y="460" width="100" height="40" as="geometry" />
        </mxCell>
        <mxCell id="OM572cekEQb-akaccsAw-98" style="edgeStyle=orthogonalEdgeStyle;rounded=0;orthogonalLoop=1;jettySize=auto;html=1;exitX=1;exitY=1;exitDx=0;exitDy=0;entryX=0.25;entryY=0;entryDx=0;entryDy=0;endArrow=none;endFill=0;fontFamily=Inconsolata;fontSource=https%3A%2F%2Ffonts.googleapis.com%2Fcss%3Ffamily%3DInconsolata;labelBackgroundColor=none;" parent="1" source="OM572cekEQb-akaccsAw-46" target="OM572cekEQb-akaccsAw-41" edge="1">
          <mxGeometry relative="1" as="geometry" />
        </mxCell>
        <mxCell id="OM572cekEQb-akaccsAw-46" value="Condition" style="ellipse;whiteSpace=wrap;html=1;align=center;fontFamily=Inconsolata;fontSource=https%3A%2F%2Ffonts.googleapis.com%2Fcss%3Ffamily%3DInconsolata;labelBackgroundColor=none;fillColor=none;" parent="1" vertex="1">
          <mxGeometry x="280" y="340" width="100" height="40" as="geometry" />
        </mxCell>
        <mxCell id="W_OnjFls6b9u1241AHmh-3" style="edgeStyle=orthogonalEdgeStyle;rounded=0;orthogonalLoop=1;jettySize=auto;html=1;exitX=0;exitY=0.5;exitDx=0;exitDy=0;entryX=0.75;entryY=0;entryDx=0;entryDy=0;endArrow=none;endFill=0;" parent="1" source="OM572cekEQb-akaccsAw-51" target="OM572cekEQb-akaccsAw-57" edge="1">
          <mxGeometry relative="1" as="geometry">
            <Array as="points">
              <mxPoint x="1075" y="620" />
            </Array>
          </mxGeometry>
        </mxCell>
        <mxCell id="OM572cekEQb-akaccsAw-51" value="Expiration_Date" style="ellipse;whiteSpace=wrap;html=1;align=center;dashed=1;fontFamily=Inconsolata;fontSource=https%3A%2F%2Ffonts.googleapis.com%2Fcss%3Ffamily%3DInconsolata;labelBackgroundColor=none;fillColor=none;" parent="1" vertex="1">
          <mxGeometry x="1120" y="600" width="100" height="40" as="geometry" />
        </mxCell>
        <mxCell id="W_OnjFls6b9u1241AHmh-8" style="edgeStyle=orthogonalEdgeStyle;rounded=0;orthogonalLoop=1;jettySize=auto;html=1;exitX=0;exitY=0.5;exitDx=0;exitDy=0;entryX=1;entryY=0.75;entryDx=0;entryDy=0;endArrow=none;endFill=0;" parent="1" source="OM572cekEQb-akaccsAw-56" target="OM572cekEQb-akaccsAw-57" edge="1">
          <mxGeometry relative="1" as="geometry">
            <Array as="points">
              <mxPoint x="1120" y="750" />
              <mxPoint x="1120" y="720" />
              <mxPoint x="1100" y="720" />
            </Array>
          </mxGeometry>
        </mxCell>
        <mxCell id="OM572cekEQb-akaccsAw-56" value="Status" style="ellipse;whiteSpace=wrap;html=1;align=center;fontFamily=Inconsolata;fontSource=https%3A%2F%2Ffonts.googleapis.com%2Fcss%3Ffamily%3DInconsolata;labelBackgroundColor=none;fillColor=none;" parent="1" vertex="1">
          <mxGeometry x="1200" y="730" width="100" height="40" as="geometry" />
        </mxCell>
        <mxCell id="W_OnjFls6b9u1241AHmh-5" style="edgeStyle=orthogonalEdgeStyle;rounded=0;orthogonalLoop=1;jettySize=auto;html=1;exitX=1;exitY=0.5;exitDx=0;exitDy=0;entryX=0;entryY=0.5;entryDx=0;entryDy=0;endArrow=none;endFill=0;" parent="1" source="OM572cekEQb-akaccsAw-57" target="OM572cekEQb-akaccsAw-61" edge="1">
          <mxGeometry relative="1" as="geometry">
            <Array as="points">
              <mxPoint x="1100" y="690" />
              <mxPoint x="1130" y="690" />
            </Array>
          </mxGeometry>
        </mxCell>
        <mxCell id="W_OnjFls6b9u1241AHmh-6" style="edgeStyle=orthogonalEdgeStyle;rounded=0;orthogonalLoop=1;jettySize=auto;html=1;exitX=0.75;exitY=1;exitDx=0;exitDy=0;entryX=0;entryY=0.5;entryDx=0;entryDy=0;endArrow=none;endFill=0;" parent="1" source="OM572cekEQb-akaccsAw-57" target="OM572cekEQb-akaccsAw-37" edge="1">
          <mxGeometry relative="1" as="geometry">
            <Array as="points">
              <mxPoint x="1075" y="780" />
            </Array>
          </mxGeometry>
        </mxCell>
        <mxCell id="OM572cekEQb-akaccsAw-57" value="Blood_Bag" style="whiteSpace=wrap;html=1;align=center;fontFamily=Inconsolata;fontSource=https%3A%2F%2Ffonts.googleapis.com%2Fcss%3Ffamily%3DInconsolata;labelBackgroundColor=none;fillColor=none;rounded=0;" parent="1" vertex="1">
          <mxGeometry x="1000" y="680" width="100" height="40" as="geometry" />
        </mxCell>
        <mxCell id="OM572cekEQb-akaccsAw-58" value="&lt;u&gt;Blood_Group&lt;/u&gt;" style="ellipse;whiteSpace=wrap;html=1;align=center;fontFamily=Inconsolata;fontSource=https%3A%2F%2Ffonts.googleapis.com%2Fcss%3Ffamily%3DInconsolata;labelBackgroundColor=none;fillColor=none;" parent="1" vertex="1">
          <mxGeometry x="1260" y="375" width="100" height="40" as="geometry" />
        </mxCell>
        <mxCell id="OM572cekEQb-akaccsAw-61" value="Volume" style="ellipse;whiteSpace=wrap;html=1;align=center;fontFamily=Inconsolata;fontSource=https%3A%2F%2Ffonts.googleapis.com%2Fcss%3Ffamily%3DInconsolata;labelBackgroundColor=none;fillColor=none;" parent="1" vertex="1">
          <mxGeometry x="1130" y="660" width="100" height="40" as="geometry" />
        </mxCell>
        <mxCell id="OM572cekEQb-akaccsAw-65" style="edgeStyle=orthogonalEdgeStyle;rounded=0;orthogonalLoop=1;jettySize=auto;html=1;exitX=0;exitY=0.5;exitDx=0;exitDy=0;entryX=0.598;entryY=0.024;entryDx=0;entryDy=0;entryPerimeter=0;endArrow=none;endFill=0;fontFamily=Inconsolata;fontSource=https%3A%2F%2Ffonts.googleapis.com%2Fcss%3Ffamily%3DInconsolata;labelBackgroundColor=none;" parent="1" source="OM572cekEQb-akaccsAw-10" target="OM572cekEQb-akaccsAw-3" edge="1">
          <mxGeometry relative="1" as="geometry">
            <Array as="points">
              <mxPoint x="730" y="210" />
              <mxPoint x="730" y="210" />
            </Array>
          </mxGeometry>
        </mxCell>
        <mxCell id="OM572cekEQb-akaccsAw-66" style="edgeStyle=orthogonalEdgeStyle;rounded=0;orthogonalLoop=1;jettySize=auto;html=1;exitX=1;exitY=0.5;exitDx=0;exitDy=0;entryX=0.398;entryY=-0.02;entryDx=0;entryDy=0;entryPerimeter=0;endArrow=none;endFill=0;fontFamily=Inconsolata;fontSource=https%3A%2F%2Ffonts.googleapis.com%2Fcss%3Ffamily%3DInconsolata;labelBackgroundColor=none;" parent="1" source="OM572cekEQb-akaccsAw-5" target="OM572cekEQb-akaccsAw-3" edge="1">
          <mxGeometry relative="1" as="geometry">
            <Array as="points">
              <mxPoint x="710" y="210" />
              <mxPoint x="710" y="210" />
            </Array>
          </mxGeometry>
        </mxCell>
        <mxCell id="OM572cekEQb-akaccsAw-82" style="rounded=0;orthogonalLoop=1;jettySize=auto;html=1;exitX=0.5;exitY=1;exitDx=0;exitDy=0;entryX=0.5;entryY=0;entryDx=0;entryDy=0;endArrow=none;endFill=0;fontFamily=Inconsolata;fontSource=https%3A%2F%2Ffonts.googleapis.com%2Fcss%3Ffamily%3DInconsolata;labelBackgroundColor=none;" parent="1" source="OM572cekEQb-akaccsAw-77" target="OM572cekEQb-akaccsAw-1" edge="1">
          <mxGeometry relative="1" as="geometry" />
        </mxCell>
        <mxCell id="OM572cekEQb-akaccsAw-83" style="rounded=0;orthogonalLoop=1;jettySize=auto;html=1;exitX=1;exitY=1;exitDx=0;exitDy=0;entryX=0.5;entryY=0;entryDx=0;entryDy=0;endArrow=none;endFill=0;fontFamily=Inconsolata;fontSource=https%3A%2F%2Ffonts.googleapis.com%2Fcss%3Ffamily%3DInconsolata;labelBackgroundColor=none;" parent="1" source="OM572cekEQb-akaccsAw-77" target="OM572cekEQb-akaccsAw-2" edge="1">
          <mxGeometry relative="1" as="geometry" />
        </mxCell>
        <mxCell id="OM572cekEQb-akaccsAw-77" value="&lt;b&gt;O&lt;/b&gt;" style="ellipse;whiteSpace=wrap;html=1;aspect=fixed;fontFamily=Inconsolata;fontSource=https%3A%2F%2Ffonts.googleapis.com%2Fcss%3Ffamily%3DInconsolata;labelBackgroundColor=none;fillColor=none;" parent="1" vertex="1">
          <mxGeometry x="708" y="405" width="24" height="24" as="geometry" />
        </mxCell>
        <mxCell id="OM572cekEQb-akaccsAw-79" value="" style="shape=link;html=1;rounded=0;exitX=0.5;exitY=1;exitDx=0;exitDy=0;entryX=0.5;entryY=0;entryDx=0;entryDy=0;fontFamily=Inconsolata;fontSource=https%3A%2F%2Ffonts.googleapis.com%2Fcss%3Ffamily%3DInconsolata;labelBackgroundColor=none;" parent="1" source="OM572cekEQb-akaccsAw-3" target="OM572cekEQb-akaccsAw-77" edge="1">
          <mxGeometry relative="1" as="geometry">
            <mxPoint x="560" y="470" as="sourcePoint" />
            <mxPoint x="720" y="390" as="targetPoint" />
          </mxGeometry>
        </mxCell>
        <mxCell id="OM572cekEQb-akaccsAw-85" value="Has" style="shape=rhombus;double=1;perimeter=rhombusPerimeter;whiteSpace=wrap;html=1;align=center;fontFamily=Inconsolata;fontSource=https%3A%2F%2Ffonts.googleapis.com%2Fcss%3Ffamily%3DInconsolata;labelBackgroundColor=none;fillColor=none;" parent="1" vertex="1">
          <mxGeometry x="500" y="390" width="120" height="60" as="geometry" />
        </mxCell>
        <mxCell id="OM572cekEQb-akaccsAw-89" value="" style="endArrow=none;html=1;rounded=0;exitX=0;exitY=1;exitDx=0;exitDy=0;entryX=1;entryY=0.5;entryDx=0;entryDy=0;fontFamily=Inconsolata;fontSource=https%3A%2F%2Ffonts.googleapis.com%2Fcss%3Ffamily%3DInconsolata;labelBackgroundColor=none;" parent="1" source="OM572cekEQb-akaccsAw-3" target="OM572cekEQb-akaccsAw-85" edge="1">
          <mxGeometry relative="1" as="geometry">
            <mxPoint x="490" y="490" as="sourcePoint" />
            <mxPoint x="650" y="490" as="targetPoint" />
          </mxGeometry>
        </mxCell>
        <mxCell id="OM572cekEQb-akaccsAw-90" value="1" style="resizable=0;html=1;whiteSpace=wrap;align=right;verticalAlign=bottom;fontFamily=Inconsolata;fontSource=https%3A%2F%2Ffonts.googleapis.com%2Fcss%3Ffamily%3DInconsolata;labelBackgroundColor=none;" parent="OM572cekEQb-akaccsAw-89" connectable="0" vertex="1">
          <mxGeometry x="1" relative="1" as="geometry" />
        </mxCell>
        <mxCell id="OM572cekEQb-akaccsAw-91" value="" style="endArrow=none;html=1;rounded=0;exitX=1;exitY=0.5;exitDx=0;exitDy=0;entryX=0;entryY=0.5;entryDx=0;entryDy=0;fontFamily=Inconsolata;fontSource=https%3A%2F%2Ffonts.googleapis.com%2Fcss%3Ffamily%3DInconsolata;labelBackgroundColor=none;" parent="1" source="OM572cekEQb-akaccsAw-41" target="OM572cekEQb-akaccsAw-85" edge="1">
          <mxGeometry relative="1" as="geometry">
            <mxPoint x="530" y="490" as="sourcePoint" />
            <mxPoint x="480" y="410" as="targetPoint" />
          </mxGeometry>
        </mxCell>
        <mxCell id="OM572cekEQb-akaccsAw-92" value="N" style="resizable=0;html=1;whiteSpace=wrap;align=right;verticalAlign=bottom;fontFamily=Inconsolata;fontSource=https%3A%2F%2Ffonts.googleapis.com%2Fcss%3Ffamily%3DInconsolata;labelBackgroundColor=none;" parent="OM572cekEQb-akaccsAw-91" connectable="0" vertex="1">
          <mxGeometry x="1" relative="1" as="geometry" />
        </mxCell>
        <mxCell id="OM572cekEQb-akaccsAw-100" value="Incident_History" style="whiteSpace=wrap;html=1;align=center;fontFamily=Inconsolata;fontSource=https%3A%2F%2Ffonts.googleapis.com%2Fcss%3Ffamily%3DInconsolata;labelBackgroundColor=none;fillColor=none;" parent="1" vertex="1">
          <mxGeometry x="670" y="960" width="100" height="40" as="geometry" />
        </mxCell>
        <mxCell id="OM572cekEQb-akaccsAw-102" value="" style="shape=link;html=1;rounded=0;exitX=1;exitY=1;exitDx=0;exitDy=0;entryX=0;entryY=0.5;entryDx=0;entryDy=0;fontFamily=Inconsolata;fontSource=https%3A%2F%2Ffonts.googleapis.com%2Fcss%3Ffamily%3DInconsolata;labelBackgroundColor=none;" parent="1" source="OM572cekEQb-akaccsAw-3" edge="1">
          <mxGeometry relative="1" as="geometry">
            <mxPoint x="800" y="460" as="sourcePoint" />
            <mxPoint x="820" y="420" as="targetPoint" />
          </mxGeometry>
        </mxCell>
        <mxCell id="OM572cekEQb-akaccsAw-103" value="N" style="resizable=0;html=1;whiteSpace=wrap;align=right;verticalAlign=bottom;fontFamily=Inconsolata;fontSource=https%3A%2F%2Ffonts.googleapis.com%2Fcss%3Ffamily%3DInconsolata;labelBackgroundColor=none;" parent="OM572cekEQb-akaccsAw-102" connectable="0" vertex="1">
          <mxGeometry x="1" relative="1" as="geometry">
            <mxPoint x="7" y="-3" as="offset" />
          </mxGeometry>
        </mxCell>
        <mxCell id="OM572cekEQb-akaccsAw-104" value="" style="shape=link;html=1;rounded=0;exitX=0;exitY=0.5;exitDx=0;exitDy=0;entryX=1;entryY=0.5;entryDx=0;entryDy=0;fontFamily=Inconsolata;fontSource=https%3A%2F%2Ffonts.googleapis.com%2Fcss%3Ffamily%3DInconsolata;labelBackgroundColor=none;" parent="1" edge="1">
          <mxGeometry relative="1" as="geometry">
            <mxPoint x="1000.56" y="420.5" as="sourcePoint" />
            <mxPoint x="940" y="420" as="targetPoint" />
          </mxGeometry>
        </mxCell>
        <mxCell id="OM572cekEQb-akaccsAw-105" value="1" style="resizable=0;html=1;whiteSpace=wrap;align=right;verticalAlign=bottom;fontFamily=Inconsolata;fontSource=https%3A%2F%2Ffonts.googleapis.com%2Fcss%3Ffamily%3DInconsolata;labelBackgroundColor=none;" parent="OM572cekEQb-akaccsAw-104" connectable="0" vertex="1">
          <mxGeometry x="1" relative="1" as="geometry" />
        </mxCell>
        <mxCell id="OM572cekEQb-akaccsAw-114" value="Contained" style="shape=rhombus;perimeter=rhombusPerimeter;whiteSpace=wrap;html=1;align=center;fontFamily=Inconsolata;fontSource=https%3A%2F%2Ffonts.googleapis.com%2Fcss%3Ffamily%3DInconsolata;labelBackgroundColor=none;fillColor=none;" parent="1" vertex="1">
          <mxGeometry x="990" y="530" width="120" height="60" as="geometry" />
        </mxCell>
        <mxCell id="OM572cekEQb-akaccsAw-115" value="" style="endArrow=none;html=1;rounded=0;exitX=0.5;exitY=1;exitDx=0;exitDy=0;entryX=0.5;entryY=0;entryDx=0;entryDy=0;fontFamily=Inconsolata;fontSource=https%3A%2F%2Ffonts.googleapis.com%2Fcss%3Ffamily%3DInconsolata;labelBackgroundColor=none;" parent="1" target="OM572cekEQb-akaccsAw-114" edge="1">
          <mxGeometry relative="1" as="geometry">
            <mxPoint x="1050.56" y="440.5" as="sourcePoint" />
            <mxPoint x="1150" y="550" as="targetPoint" />
          </mxGeometry>
        </mxCell>
        <mxCell id="OM572cekEQb-akaccsAw-116" value="1" style="resizable=0;html=1;whiteSpace=wrap;align=right;verticalAlign=bottom;fontFamily=Inconsolata;fontSource=https%3A%2F%2Ffonts.googleapis.com%2Fcss%3Ffamily%3DInconsolata;labelBackgroundColor=none;" parent="OM572cekEQb-akaccsAw-115" connectable="0" vertex="1">
          <mxGeometry x="1" relative="1" as="geometry">
            <mxPoint x="10" as="offset" />
          </mxGeometry>
        </mxCell>
        <mxCell id="OM572cekEQb-akaccsAw-117" value="" style="shape=link;html=1;rounded=0;exitX=0.5;exitY=0;exitDx=0;exitDy=0;entryX=0.5;entryY=1;entryDx=0;entryDy=0;fontFamily=Inconsolata;fontSource=https%3A%2F%2Ffonts.googleapis.com%2Fcss%3Ffamily%3DInconsolata;labelBackgroundColor=none;" parent="1" source="OM572cekEQb-akaccsAw-57" target="OM572cekEQb-akaccsAw-114" edge="1">
          <mxGeometry relative="1" as="geometry">
            <mxPoint x="990" y="550" as="sourcePoint" />
            <mxPoint x="1150" y="550" as="targetPoint" />
          </mxGeometry>
        </mxCell>
        <mxCell id="OM572cekEQb-akaccsAw-118" value="N" style="resizable=0;html=1;whiteSpace=wrap;align=right;verticalAlign=bottom;fontFamily=Inconsolata;fontSource=https%3A%2F%2Ffonts.googleapis.com%2Fcss%3Ffamily%3DInconsolata;labelBackgroundColor=none;" parent="OM572cekEQb-akaccsAw-117" connectable="0" vertex="1">
          <mxGeometry x="1" relative="1" as="geometry">
            <mxPoint x="-10" y="10" as="offset" />
          </mxGeometry>
        </mxCell>
        <mxCell id="OM572cekEQb-akaccsAw-119" value="Donate" style="shape=rhombus;perimeter=rhombusPerimeter;whiteSpace=wrap;html=1;align=center;fontFamily=Inconsolata;fontSource=https%3A%2F%2Ffonts.googleapis.com%2Fcss%3Ffamily%3DInconsolata;labelBackgroundColor=none;fillColor=none;strokeColor=#000000;" parent="1" vertex="1">
          <mxGeometry x="660" y="670" width="120" height="60" as="geometry" />
        </mxCell>
        <mxCell id="2ClGpOWG2dMFLp4g8nSB-2" style="rounded=0;orthogonalLoop=1;jettySize=auto;html=1;exitX=1;exitY=0;exitDx=0;exitDy=0;entryX=0;entryY=1;entryDx=0;entryDy=0;endArrow=none;endFill=0;" parent="1" source="OM572cekEQb-akaccsAw-120" target="2ClGpOWG2dMFLp4g8nSB-1" edge="1">
          <mxGeometry relative="1" as="geometry" />
        </mxCell>
        <mxCell id="OM572cekEQb-akaccsAw-120" value="Receive" style="shape=rhombus;perimeter=rhombusPerimeter;whiteSpace=wrap;html=1;align=center;fontFamily=Inconsolata;fontSource=https%3A%2F%2Ffonts.googleapis.com%2Fcss%3Ffamily%3DInconsolata;labelBackgroundColor=none;fillColor=none;" parent="1" vertex="1">
          <mxGeometry x="820" y="620" width="120" height="60" as="geometry" />
        </mxCell>
        <mxCell id="OM572cekEQb-akaccsAw-121" value="" style="endArrow=none;html=1;rounded=0;exitX=0;exitY=0.25;exitDx=0;exitDy=0;fontFamily=Inconsolata;fontSource=https%3A%2F%2Ffonts.googleapis.com%2Fcss%3Ffamily%3DInconsolata;labelBackgroundColor=none;entryX=0.5;entryY=1;entryDx=0;entryDy=0;" parent="1" source="OM572cekEQb-akaccsAw-57" target="OM572cekEQb-akaccsAw-120" edge="1">
          <mxGeometry relative="1" as="geometry">
            <mxPoint x="760" y="690" as="sourcePoint" />
            <mxPoint x="880" y="690" as="targetPoint" />
            <Array as="points">
              <mxPoint x="880" y="690" />
            </Array>
          </mxGeometry>
        </mxCell>
        <mxCell id="OM572cekEQb-akaccsAw-122" value="N" style="resizable=0;html=1;whiteSpace=wrap;align=right;verticalAlign=bottom;fontFamily=Inconsolata;fontSource=https%3A%2F%2Ffonts.googleapis.com%2Fcss%3Ffamily%3DInconsolata;labelBackgroundColor=none;" parent="OM572cekEQb-akaccsAw-121" connectable="0" vertex="1">
          <mxGeometry x="1" relative="1" as="geometry">
            <mxPoint x="20" y="10" as="offset" />
          </mxGeometry>
        </mxCell>
        <mxCell id="OM572cekEQb-akaccsAw-129" value="" style="shape=link;html=1;rounded=0;exitX=0.5;exitY=1;exitDx=0;exitDy=0;entryX=0.5;entryY=0;entryDx=0;entryDy=0;fontFamily=Inconsolata;fontSource=https%3A%2F%2Ffonts.googleapis.com%2Fcss%3Ffamily%3DInconsolata;labelBackgroundColor=none;" parent="1" target="OM572cekEQb-akaccsAw-120" edge="1">
          <mxGeometry relative="1" as="geometry">
            <mxPoint x="880.22" y="580" as="sourcePoint" />
            <mxPoint x="880.56" y="600" as="targetPoint" />
          </mxGeometry>
        </mxCell>
        <mxCell id="OM572cekEQb-akaccsAw-130" value="M" style="resizable=0;html=1;whiteSpace=wrap;align=right;verticalAlign=bottom;fontFamily=Inconsolata;fontSource=https%3A%2F%2Ffonts.googleapis.com%2Fcss%3Ffamily%3DInconsolata;labelBackgroundColor=none;" parent="OM572cekEQb-akaccsAw-129" connectable="0" vertex="1">
          <mxGeometry x="1" relative="1" as="geometry">
            <mxPoint x="-11" y="5" as="offset" />
          </mxGeometry>
        </mxCell>
        <mxCell id="OM572cekEQb-akaccsAw-131" value="" style="shape=image;verticalLabelPosition=bottom;verticalAlign=top;imageAspect=0;aspect=fixed;image=data:image/png,iVBORw0KGgoAAAANSUhEUgAAAgAAAAIACAYAAAD0eNT6AAAACXBIWXMAAAsTAAALEwEAmpwYAAAgAElEQVR4nO3dCbxlV1Xn8fXOvfcNNSdVlZBKUamQgWKMhCBYRAlzUDABhBaVMchgt9gigvrphjTqp8PgAA7dwIcmjEFmROkWpJEpQAhKExIGg6gkERIyJ5KESl7vXefcV+/Vm85756yz117ntz+f9ekOz/fd9d/33r32u+cO8qhHnTEZahRK1jPi71W/Pzmv8PDw8PDw8Cx7rsLg4eHh4eHh1UeSTY6Hh4eHh4eX1Es6OR4eHh4eHl73XtLJ8fDw8PDw8Lr3kk6Oh4eHh4eHl8ZLOjkeHh4eHh5eGi/p5Hh4eHh4eHhpvKST4+Hh4eHh4aXxkk6Oh4eHh4eHl8ZzFQYPDw8PDw+vnucqDB4eHh4eHt46PVdh8PDw8PDw8Gj+eHh4eHh4eJYmx8PDw8PDw6P54+Hh4eHh4Sl7rsLg4eHh4eHh1fNchcHDw8PDw8Or57kKg4eHh4eHh1fPcxUGDw8PDw8Pr57nKgweHh4eHh5ebcBPGDw8PDw8PLz6SLLJ8fDw8PDw8JJ6SSfHw8PDw8PD695LOjkeHh4eHh5e917SyfHw8PDw8PDSeEknx8PDw8PDw0vjJZ0cDw8PDw8PL42XdHI8PDw8PDy8NF7SyfHw8PDw8PDSeK7C4OHh4eHh4dXzXIXBw8PDw8PDW6fnKgweHh4eHh4ezR8PDw8PDw/P0uR4eHh4eHh4NH88PDw8PDw8Zc9VGDw8PDw8PLx6nqsweHh4eHh4ePU8V2Hw8PDw8PDw6nmuwuDh4eHh4eHV81yFwcPDw8PDw6sN+AmDh4eHh4eHVx9JNjkeHh4eHh5eUi/p5Hh4eHh4eHjde0knx8PDw8PDw+veSzo5Hh4eHh4eXhov6eR4eHh4eHh4abykk+Ph4eHh4eGl8ZJOjoeHh4eHh5fGSzo5Hh4eHh4eXhrPVRg8PDw8PDy8ep6rMGvw9oQ6M9Q5VZ25ceOGEwz9+/Dw8PDwFLyJiYk9o9Hw8cPh4HmxRqPR46v938S/L6nnKszCcXSoV4S6PNTs/Ap3iHFdPhgMXrl586bdDvLi4eHh4ZVjbv+ft9/PlZS94PLq/+boBP++9J6rMIdGEeqloW6Wwxq/LGz+8+8MN1e/U3Tw78PDw8PD0/EW7P8rNP/5VWv/N5p3fZ6rMIfG5lAfkyUav9S7M3ysMnLJi4eHh4dXjgX7f83mX2v/N5p3fZ6rMIfGhlBfkPU3/3F9obKs58XDw8PDK8eC/X8dzX/Z/d9o3vV5rsIsHO+U5s1/XO/MIC8eHh4eXjnm9v8GzX/R/m847/o8V2EOjbOkveY/rrMM58XDw8PDK8fc/t9C85/b/w3nXb/nKkw5JkJdIu02/1iXybwXhRjKi4eHh4dXjrn9v8Xmf3D/P/XUU6YM5m3muQpTjodL+81/XA83mBcPDw8PrxwH9/+Wm//B35+cHD3aYN5mnqsw5Xi96DT/WK83mBcPDw8Prxyv12j+sYqi+FNreRt7rsKU40ui0/xjXWQwLx4eHh5e+L2wv1+s0fyrA8CXrOVt7LkKU45rRaf5x9+/1mBePDw8PLzw+3GP1mj+VV1rLW9bXtLJW/YOiNI1oFAHDObFw8PDwwtO3KOVmn/83w9Yy9uGl3RyhTBazf9gWcuLh4eHh1dais1/XKbyNvWSTq7haTb/6gBgKi8eHh4e3qEDgOg1/zUdAHJYv6STa3iazb86AJjKi4eHh4dXeqLb/GsfAHJZv6STa3iazV/W8RSQdl48PDw8vDlPs/nX2v9zWr+kk2t4XAPCw8PD662n2fxX3f9zW7+kk2t4XAPCw8PD662n2fxX3P9zXD9XYeJ/C9eA8PDw8PrqaTb/Zff/XNfPVZjK02z+tQ4Ama8fHh4eXq6eZvNfcv93tX4Owmg2/1UPAA7WDw8PDy9XT7P5L9r/DeRtz3MSRrP5r3gAcLJ+eHh4eLl6ms1/wf5vJG87nqMwms1/2QOAo/XDw8PDy9XTbP5z+7+hvM09V2F0m/+SBwBn64eHh4eXq6fZ/GcN5m3muQpTDs3mv+gAYCAvHh4eHl45NJv/rMG8zTxXYcqh2fwXHACM5MXDw8PDK4da85fyAGAtbzPPVZhyaDb/uQOAobx4eHh4eOVQa/7x9w3mbea5ClMOzeY/azAvHh4eHl451Jr/YQcAK3mbea7ClINrQHh4eHg99ESx+c87AJjJ29hzFaYcXAPCw8PD66Gn2fyrA4CpvI09V2HKwTUgPDw8vB56ms2/2v9N5W3LSzp5yx7XgPDw8PB66Gk2/+pnpvK24SWdXCEM14Dw8PDweugpN/81HwCsr1/SyTU8rgHh4eHh9dNTbv5rOgDksH5JJ9fwuAaEh4eH109PdJt/7QNALuuXdHINj2tAeHh4eL31NJt/rf0/p/VLOrmGxzUgPDw8vN56ms1/1f0/t/VLOrmGxzUgPDw8vN56ms1/xf0/x/VzFSb+t3ANCA8PD6+vnmbzX3b/z3X9XIWpPM3mX+sAkPn64eHh4eXqaTb/Jfd/V+vnIIxm81/1AOBg/fDw8PBy9TSb/6L930De9jwnYTSb/4oHACfrh4eHh5erp9n8F+z/RvK24zkKo9n8lz0AOFo/PDw8vFw9zeY/t/8bytvccxVGt/kveQBwtn54eHh4uXqazX/WYN5mnqsw5dBs/osOAAby4uHh4eGVQ7P5zxrM28xzFaYcms1/wQHASF48PDw8vHKoNX8pDwDW8jbzXIUph2bznzsAGMqLh4eHh1cOteYff99g3maeqzDl0Gz+swbz4uHh4eGVQ635H3YAsJK3mecqTDm4BoSHh4fXQ08Um/+8A4CZvI09V2HKwTUgPDw8vB56ms2/OgCYytvYcxWmHFwDwsPDw+uhp9n8q/3fVN62vKSTt+xxDQgPDw+vh55m869+ZipvG17SyRXCcA0IDw8Pr4eecvNf8wHA+volnVzD4xoQHh4eXj895ea/pgNADuuXdHINj2tAeHh4eP30RLf51z4A5LJ+SSfX8LgGhIeHh9dbT7P519r/c1q/pJNreFwDwsPDw+utp9n8V93/c1u/pJNreFwDwsPDw+utp9n8V9z/c1w/V2HifwvXgPDw8PD66mk2/2X3/1zXz1WYytNs/rUOAJmvHx4eHl6unmbzX3L/d7V+DsJoNv9VDwAO1g8PDw8vV0+z+S/a/w3kbc9zEkaz+a94AHCyfnh4eHi5eprNf8H+byRvO56jMJrNf9kDgKP1w8PDw8vV02z+c/u/obzNPVdhdJv/kgcAZ+uHh4eHl6un2fxnDeZt5rkKUw7N5r/oAGAgLx4eHh5eOTSb/6zBvM08V2HKodn8FxwAjOTFw8PDwyuHWvOX8gBgLW8zz1WYcmg2/7kDgKG8eHh4eHjlUGv+8fcN5m3muQpTDs3mP2swLx4eHh5eOdSa/2EHACt5m3muwpSDa0B4eHh4PfREsfnPOwCYydvYcxWmHFwDwsPDw+uhp9n8qwOAqbyNPVdhysE1IDw8PLweeprNv9r/TeVty0s6ecse14Dw8PDweuhpNv/qZ6bytuElnVwhDNeA8PDw8HroKTf/NR8ArK9f0sk1PK4B4eHh4fXTU27+azoA5LB+SSfX8LgGhIeHh9dPT3Sbf+0DQC7rl3RyDY9rQHh4eHi99TSbf639P6f1Szq5hsc1IDw8PLzeeprNf9X9P7f1Szq5hsc1IDw8PLzeeprNf8X9P8f1cxUm/rdwDQgPDw+vr55m8192/891/VyFqTzN5l/rAJD5+uHh4eHl6mk2/yX3f1fr5yCMZvNf9QDgYP3w8PDwcvU0m/+i/d9A3vY8J2E0m/+KBwAn64eHh4eXq6fZ/Bfs/0bytuM5CqPZ/Jc9ADhaPzw8PLxcPc3mP7f/G8rb3HMVRrf5L3kAcLZ+eHh4eLl6ms1/1mDeZp6rMOXQbP6LDgAG8uLh4eHhlUOz+c8azNvMcxWmHJrNf8EBwEhePDw8PLxyqDV/KQ8A1vI281yFKYdm8587ABjKi4eHh4dXDrXmH3/fYN5mnqsw5dBs/rMG8+Lh4eHhlUOt+R92ALCSt5nnKkw5uAaEh4eH10NPFJv/vAOAmbyNPVdhysE1IDw8PLweeprNvzoAmMrb2HMVphxcA8LDw8ProafZ/Kv931Tetrykk7fscQ0IDw8Pr4eeZvOvfmYqbxte0skVwnANCA8PD6+HnnLzX/MBwPr6JZ1cw+MaEB4eHl4/PeXmv6YDQA7rl3RyDY9rQHh4eHj99ES3+dc+AOSyfkkn1/C4BoSHh4fXW0+z+dfa/3Nav6STa3hcA8LDw8PrrafZ/Ffd/3Nbv6STa3hcA8LDw8PrrafZ/Ffc/3NcP1dh4n8L14Dw8PDw+uppNv9l9/9c189VmMrTbP61DgCZrx8eHh5erp5m819y/3e1fg7CaDb/VQ8ADtYPDw8PL1dPs/kv2v8N5G3PcxJGs/mveABwsn54eHh4uXqazX/B/m8kbzueozCazX/ZA4Cj9cPDw8PL1dNs/nP7v6G8zT1XYXSb/5IHAGfrh4eHh5erp9n8Zw3mbea5ClMOzea/6ABgIC8eHh4eXjk0m/+swbzNPFdhyqHZ/BccAIzkxcPDw8Mrh1rzl/IAYC1vM89VmHJoNv+5A4ChvHh4eHh45VBr/vH3DeZt5rkKUw7N5j9rMC8eHh4eXjnUmv9hBwAreZt5rsKUg2tAeHh4eD30RLH5zzsAmMnb2HMVphxcA8LDw8ProafZ/KsDgKm8jT1XYcrBNSA8PDy8Hnqazb/a/03lbctLOnnLHteA8PDw8HroaTb/6mem8rbhJZ1cIQzXgPDw8PB66Ck3/zUfAKyvX9LJNTyuAeHh4eH101Nu/ms6AOSwfkkn1/C4BoSHh4fXT090m3/tA0Au65d0cg2Pa0B4eHh4vfU0m3+t/T+n9Us6uYbHNSA8PDy83nqazX/V/T+39Us6uYbHNSA8PDy83nqazX/F/T/H9XMVJv63cA0IDw8Pr6+eZvNfdv/Pdf1chak8zeZf6wCQ+frh4eHh5eppNv8l939X6+cgjGbzX/UA4GD98PDw8HL1NJv/ov3fQN72PCdhNJv/igcAJ+uHh4eHl6un2fwX7P9G8rbjOQqj2fyXPQA4Wj88PDy8XD3N5j+3/xvK29xzFUa3+S95AHC2fnh4eHi5eprNf9Zg3maeqzDl0Gz+iw4ABvLi4eHh4ZVDs/nPGszbzHMVphyazX/BAcBIXjw8PDy8cqg1fykPANbyNvNchSmHZvOfOwAYyouHh4eHVw615h9/32DeZp6rMOXQbP6zBvPi4eHh4ZVDrfkfdgCwkreZ5ypMObgGhIeHh9dDTxSb/7wDgJm8jT1XYcrBNSA8PDy8Hnqazb86AJjK29hzFaYcXAPCw8PD66Gn2fyr/d9U3ra8pJO37HENCA8PD6+Hnmbzr35mKm8bXtLJFcJwDQgPDw+vh55y81/zAcD6+iWdXMPjGhAeHh5ePz3l5r+mA0AO65d0cg2Pa0B4eHh4/fREt/nXPgDksn5JJ9fwuAaEh4eH11tPs/nX2v9zWr+kk2t4XAPCw8PD662n2fxX3f9zW7+kk2t4XAPCw8PD662n2fxX3P9zXD9XYeJ/C9eA8PDw8PrqaTb/Zff/XNfPVZjK02z+tQ4Ama8fHh4eXq6eZvNfcv93tX4Owmg2/1UPAA7WDw8PDy9XT7P5L9r/DeRtz3MSRrP5r3gAcLJ+eHh4eLl6ms1/wf5vJG87nqMwms1/2QOAo/XDw8PDy9XTbP5z+7+hvM09V2F0m/+SBwBn64eHh4eXq6fZ/GcN5m3muQpTDs3mv+gAYCAvHh4eHl45NJv/rMG8zTxXYcqh2fwXHACM5MXDw8PDK4da85fyAGAtbzPPVZhyaDb/uQOAobx4eHh4eOVQa/7x9w3mbea5ClMOzeY/azAvHh4eHl451Jr/YQcAK3mbea7ClINrQHh4eHg99ESx+c87AJjJ29hzFaYcXAPCw8PD66Gn2fyrA4CpvI09V2HKwTUgPDw8vB56ms2/2v9N5W3LSzp5yx7XgPDw8PB66Gk2/+pnpvK24SWdXCEM14Dw8PDweugpN/81HwCsr1/SyTU8rgHh4eHh9dNTbv5rOgDksH5JJ9fwuAaEh4eH109PdJt/7QNALuuXdHINj2tAeHh4eL31NJt/rf0/p/VLOrmGxzUgPDw8vN56ms1/1f0/t/VLOrmGxzUgPDw8vN56ms1/xf0/x/VzFSb+t3ANCA8PD6+vnmbzX3b/z3X9XIWpPM3mX+sAkPn64eHh4eXqaTb/Jfd/V+vnIIxm81/1AOBg/fDw8PBy9TSb/6L930De9jwnYTSb/4oHACfrh4eHh5erp9n8F+z/RvK24zkKo9n8lz0AOFo/PDw8vFw9zeY/t/8bytvccxVGt/kveQBwtn54eHh4uXqazX/WYN5mnqsw5dBs/osOAAby4uHh4eGVQ7P5zxrM28xzFaYcms1/wQHASF48PDw8vHKoNX8pDwDW8jbzXIUph2bznzsAGMqLh4eHh1cOteYff99g3maeqzDl0Gz+swbz4uHh4eGVQ635H3YAsJK3mecqTDm4BoSHh4fXQ08Um/+8A4CZvI09V2HKwTUgPDw8vB56ms2/OgCYytvYcxWmHFwDwsPDw+uhp9n8q/3fVN62vKSTt+xxDQgPDw+vh55m869+ZipvG17SyRXCcA0IDw8Pr4eecvNf8wHA+volnVzD4xoQHh4eXj895ea/pgNADuuXdHINj2tAeHh4eP30RLf51z4A5LJ+SSfX8LgGhIeHh9dbT7P519r/c1q/pJNreFwDwsPDw+utp9n8V93/c1u/pJNreFwDwsPDw+utp9n8V9z/c1w/V2HifwvXgPDw8PD66mk2/2X3/1zXz1WYytNs/rUOAJmvHx4eHl6unmbzX3L/d7V+DsJoNv9VDwAO1g8PDw8vV0+z+S/a/w3kbc9zEkaz+a94AHCyfnh4eHi5eprNf8H+byRvO56jMJrNf9kDgKP1w8PDw8vV02z+c/u/obzNPVdhdJv/kgcAZ+uHh4eHl6un2fxnDeZt5rkKUw7N5r/oAGAgLx4eHh5eOTSb/6zBvM08V2HKodn8FxwAjOTFw8PDwyuHWvOX8gBgLW8zz1WYcmg2/7kDgKG8eHh4eHjlUGv+8fcN5m3muQpTDs3mP2swLx4eHh5eOdSa/2EHACt5m3muwpSDa0B4eHh4PfREsfnPOwCYydvYcxWmHFwDwsPDw+uhp9n8qwOAqbyNPVdhysE1IDw8PLweeprNv9r/TeVty0s6ecse14Dw8PDweuhpNv/qZ6bytuElnVwhDNeA8PDw8HroKTf/NR8ArK9f0sk1PK4B4eHh4fXTU27+azoA5LB+SSfX8LgGhIeHh9dPT3Sbf+0DQC7rl3RyDY9rQHh4eHi99TSbf639P6f1Szq5hsc1IDw8PLzeeprNf9X9P7f1Szq5hsc1IDw8PLzeeprNf8X9P8f1cxUm/rdwDQgPDw+vr55m8192/891/VyFqTzN5l/rAJD5+uHh4eHl6mk2/yX3f1fr5yCMZvNf9QDgYP3w8PDwcvU0m/+i/d9A3vY8J2E0m/+KBwAn64eHh4eXq6fZ/Bfs/0bytuM5CqPZ/Jc9ADhaPzw8PLxcPc3mP7f/G8rb3HMVRrf5L3kAcLZ+eHh4eLl6ms1/1mDeZp6rMOW4S3SfBpowlhcPDw8Pr9ybNZv/XcbyNvdchSnH7aL7NNCksbx4eHh4eCJTotf8Y91mLG9zz1WYctwkuk8DbTaWFw8PDw9PZIvoNf/4+zcay9vccxWmHD8Q3aeBthvLi4eHh4cnslP0mn+sq43lbe65ClOOq0TxaaCiKI4xlhcPDw8PT+RY0Wv+sa4wlre55ypMOb4jik8Dbdgwc6KxvHh4eHi998Lefg/F5h/r25bytuK5ClOOb4ri00AzMzP3MZYXDw8Pr/fe9PT0fRWbf6yvW8rbppd08pa9r4ri00DhTnaqsbx4eHh4vfemp6dOU2z+8X//iqW8bXlJJ1cIc7Hm00BTU1MPsZQXDw8PD++MyampyYcqNv9YF1nK24aXdHINL9xYF2o+DTQ5OXqYpbx4eHh4eGdMhnGGYvOP9RlLedvwkk6u4RVF8XfKTwP9jKW8eHh4eHhnTA6Hw7NFr/nH+oSlvG14SSfX8MIB4MPKTwM901JePDw8PLyDzezZotf8Y73fUt42vKSTa3jhAPAW5aeBXmwpLx4eHh7eQe83Ra/5x3qjsbyNvaSTa3jhAPAa0X0a6Pct5cXDw8PDOzjOE73mH+u/G8vb2HMV5lHl00AvFd2ngd5gKS8eHh4e3sHxJtFr/rFeYixvY89VmMo7R3SfBnqfsbx4eHh4eCIfEL3mH+tZxvK27zkIc5boPg30SWN58fDw8PBEPi16zT/WE4zlbddzEuZ00X0a6BJjefHw8PDwRC4VveYf6yeM5W3PcxRmn+g+DXSVsbx4eHh4eCL/JnrNP9Y9jeVtx3MVZt53Qq9UDe4Md4aaNJQXDw8Pr+/elJR7s1bzj3WkobzteK7ClGMgK9wRpJ07wwmG8uLh4eH13TtZdJt/7CmFobzteK7CHBrfF907w6OM5cXDw8Prs/cY0dvvY33PWN52PFdhDo34rU2ad4bnGsuLh4eH12fv+aK338f6vLG87XiuwhwafyG6d4bfM5YXDw8Pr89e/JQ+rf1+tiiKdxvL247nKsyh8SrRvTNcYCwvHh4eXp+9d4vSfh9/fzAoXmUsbzueqzCHxgtF8c4QDgAXGsuLh4eH12fvi6K038caDgcvNJa3Hc9VmEPjTFG8M4S60lhePDw8vN56YXxfcb+fHY1Gj7OUV2H90k3ethdusHtq3hlC3bVr1zFbrOTFw8PD66s3Gg03xj1Zcb+fnZmZvpeVvG17SSfX8Hbv3rX58DuEtHhnqOoBVvLi4eHh9dWbnJz8Cc3mH+rOqTCs5G3TSzq5phdutKu0mn/1s2dayouHh4fXR284HP6y5h974X//rqW8bXpJJ9f04gv1FJt/rNdayouHh4fXRy/s9a9T/mPv05bytuklnVzTC3eKd4he84/1MUt58fDw8Prohb3+E8p/7J1vKW+bXtLJNb3wo5eJXvOPdbWlvHh4eHh99ML+vOxHv9epGvv9b1jK26aXdHJl73Gi1/zHdbShvHh4eHi98jZt2rRHdJt/rEdbydu25yrMYd6xotv8V7xjOFg/PDw8PNOeLPMlQHVqDfv93azkVVg/P2GW8K4Rvea/7FNDjtYPDw8Pz7L3EtFt/tcYy6vruQoj8knRa/6x3mosLx4eHl6fvPNF95neTxjLq+e5ClOO14le84/1TWN58fDw8PrkfUt0L/P+obG8Op6rMIfGc0Wv+ce6K9RRhvLi4eHh9cXbIeUerHmZ99mG8up4rsIsHD8ues1/XGcZyouHh4fXF+9s0W3+sU4zlLd9z1WYxWMm1AHRa/6xXm0oLx4eHl5fvNeIbvOPvWODobzte67CLD2+LnrNP/7+hcby4uHh4fXBu1D0mn+srxvL277nKszS43+JXvOPdduePbu3GMqLh4eH592Lz+7eLnrNP9abDeXV8VyFWXqcI3rN/2BNTk4+zFBePDw8PO/eT4lu84/1HEN5dTxXYZYY4Ybfp9n8Yw0Gg9+2khcPDw+vB95vi27zj3VPQ3l1PFdhlvD27//x+GURP9Bq/pX3V1by4uHh4fXA+6joNv9r9u7dM2Eor47nKswyXlEUH1Fs/rFuCTVlJS8eHh6eY2861K2i1/xjfchQXnUv6eTa3mAw+B3F5j+uR1nJi4eHh+fYe6zoNv94Wfe3DOVV9ZJO3oU3OTmKmGbzj/UHVvLi4eHhOfb+SBSbf/XC7p8ylFfNSzp5V95UGOHHt4le8491mZW8eHh4eI69b4hi849v7d67d89mQ3nVvKSTd+xdKHrNf1zHGcqLh4eH583bK7rNf7Yois8ayqvqJZ28Y+880W3+sV5gKC8eHh6eN++Fotj8y7d1F68ylFfVSzp5x97DRbf5x/qQobx4eHh4rrww/lL7c11Go9EjrOTV9pJO3rEXw94kes0/1s3VPBby4uHh4bnx4mu5wn58s2bzD3XDhg0z9Z4aV87bhecqTA3vg6LX/Mf104by4uHh4bnwhsPh2crNP/7v77OStwvPVZga3vNFt/nHequhvHh4eHguvKIo3qnc/GM910reJJ6rMIvH3UW3+ce6cffuXZuN5MXDw8PL3otvy4tPzys3/1h7LORN4rkKs/y4VPSaf/UikuGTDOXFw8PDy9oLe+rPddD8L7GSt3PPVZiVx2tFsflX7yN9l6G8eHh4eFl7YU/9C+XmH+vVVvJ26rkKU4MTxeZf1U27dh2zxUhePDw8vGy9sJdui6/+F93mH+sRFvJ26rkKU2NMT09PdvBWkvi/P8lCXjw8PLycveFw+POi3/xrfaNrjuu3oucqTE2vKIr3d/Bq0ndbyYuHh4eXqxd+9B7Rbf6z1Rwm8nbquQpT0wsnyqd18IKSeKLcYiEvHh4eXo7eYDDYGn58q+g2/1hPtpC3c89VmJpeh9eUnm8hLx4eHl6m3q+IfvOPvWDGSN5uPVdh1uCFH10g+k8rXWwlLx4eHl6G3pdFt/nHeqehvN16rsKszXui6J8sY51qJC8eHh5eTt4DRX9/jvWzRvJ277kKszZvOtQNon/n+nMjefHw8PBy8v6n6O/PN0rZCyzkTeYlnTyh93bRvXPFioeMjUby4uHh4eXgxWvy14v+/ny+kbzJvKSTJ/YeL7p3rnE9y0hePDw8vBy8Z4t+84/1OCN5k3hJJzfgxRcDXiu6zT/W54zkxcPDw8vBu1D0m/91oSaN5E3iJZ3ciPdm0W3+Y+t+RvLi4eHhWfbuJ908M/smI3mTeUknN+LtF+XmH6soircayYuHh4dn2Ttf9Jt/rIPe3psAABoDSURBVIcYyZvMSzq5Ie9rotj8K+OOTZs2HW8kLx4eHp5Fb1eo20W/+V9iJG9SL+nkhrz/LLrN/2ANBsWrjOTFw8PDs+idJ/rNP9aLjORN6rkK08DbHuqHms2/quuGw+EmA3nx8PDwrHmbZYW3/rW4P99WFMUOA3mTe67CNPHCHeIC5eY/d/K0kBcPDw/PmPfrot/8Y73DSF57nqswa/AmJ0eP6aD5x/pOqGHqvHh4eHiGvEGob4t+858djcI/J31ee56rMGv09u9/8FS4Y31LufmP66mp8+Lh4eEZ8p4mHTT/8PuXx73eQF5bnqsw6/QGg+J3RL/5x/pSqInUefHw8PAMeHEvXPStfxqvyRoMBr9jIK8tz1WYBl5RFHcLP75DdJv/uJb8Bqou8+Lh4eEZ8M6WDpp/fCv2li2b724grx3PVZh2vLeJfvOP9dVQhYG8eHh4eKm8+Nf/V0S/+ccPY3u7gby2PFdh2vHix1DeJbrNf1w/ZyAvHh4eXirvP0gHzT/W9PTUgwzkteW5CtOe93HRb/6xLpXqWQBn64eHh4e32oiv/L9MOmj+4a//jxnIa89zFaY970zRb/7j+gUDefHw8PC69p4uHTT/WKPR8KcN5LXnuQrTrrfgupSscOdqeGf91r59J80YyIuHh4fXlRf/+v+GdND8Q12yd++eFd911UFem56rMO16zxL95n/w94fD4XMN5MXDw8PryjtHumn+8X9/hoG8Nj1XYdr1JkNdKcrNv6p/2b1711Zn64eHh4e31JgJ9S8dNf8rpNzLU+Y17yWd3LD3W9LRNarBoHiFgbx4eHh4ql4Yr+io+cd6aeq81r2kkxv3jgh1c0d31ltCHZs4Lx4eHp6aVxQTu8N+d0tHzf+mUNtS5rXuJZ08B68oivM6urPGenvqvHh4eHhaXoffuhrr91Lnte4lnTwHb/v2I3eGO9X1HdxZY8UPIDo9ZV48PDw8DW9ycvSTYc+7q6Pmf0OoI1PmzcFLOnku3mAw+N0Omv+4LpYlPiK4y7x4eHh4bXqnnnrKVPjr/6KOmn+sl6fMm4uXdPJcvO3bj9gRfnSt6Df/cT09ZV48PDy8Nr3hcHhOh83/eql57T+X9dPykk6embeurwpe5wsI41tXNiXOi4eHh9fYO+qondvDvndVR80/1m+nzJuT5yqMsrcx1PdFv/mP648S58XDw8Nr7BVF8WcdNv9rQm1OmTcnz1WYDryXSDfNP9adofYnzouHh4e3bm9qavL0sPcd6PA1VC9OmTd7z1WY9r3pUPHpee3mP65LpqenJx2tHx4eXk+8E044flNRTFzaYfO/KtSGVHmz91yF0fN+Vbpp/ger+oRAT+uHh4fXA28wGPy3Dpt/rP+YMm/Wnqswut4w1Nekg+ZfGbfNzEyf4mj98PDwnHszMzP3DXvXD6W75n9ZqGXf157b+nXquQrTjfdo6ab5H6yiKL4Q30fraP3w8PCceqed9oDpsG99Vrpr/rHOTJU3a89VmG69j0oHzX+e9yuJ8+Lh4eGt6g0GgxdJt83/IynzZu25CtOtty/UHR01/1jxy4JOTpgXDw8Pb0VvZmYm7lE3SnfN/45Q90yVN3vPVZiOvaIoXt9R8x/Xl2SF61zaefHw8PCW8/btO2km/Ojz0l3zj/XaVHldeK7CdOwdeeQRR4U76TUdfshFrFemyouHh4e3nBd+FL99r8vmf7Us8ZG/ua5fEs9VmATeYDD41Y7f6hI/IGjZf3xu64eHh5e/NzFx8FtMD0h3zT/W81LldeO5CpPAu+997x0/HOj/Sbcn338NdUSKvHh4eHjzvfBH0Nbw4+9It83/K6EGKfK68lyFSec9LNRd0t2dP9Y7E+bFw8PDG3sXSLfNPz4LenrCvO68pJM78d4g3TX/cf1iwrx4eHh4z5Bum3+sP0+Y152XdHJHXnwa7ErprvnHujH87j4n64eHh5eXd69QN0m3zT9+F8vWRHndeUknd+g9Xrpr/mPvGzt37tjhZP3w8PDy8DaFulS6bf6xzk6U16WXdHKn3vulu+Y//qjgD+/f/+ApJ+uHh4dn25sI9V7pvvm/J1Fet17SyZ16dwt1nXTU/Mc1GAx+y8n64eHh2fZeJt03/xtCHZsor1sv6eSOvV+WDpt/5cX34D4mUV48PLx+eI8I9SPptvnHOidRXtde0skde/Epsr+V7pr/uH4Qam+CvHh4eP69u0v56XtdN/+/CzXhYP3Mea7CWPLCHf3EULd02PzH9cVQU13nxcPDc+3FPeUi6b75xy9BO9HB+pn0XIWx5g2Hgxd03PzH9W4pn4XoNC8eHp5LL+4lb5Pum3+s5zpYv3w8V2EMeEVRvLfj5j+u302RFw8Pz533+5Km+X/Ayfrl4bkKY8Q74ohtR0n52f1dNv9xvaDrvHh4eK6850ia5n/FYFBsd7B+eXiuwtjzHibl51d32fxj3SHVOwMyXz88PLzuvYeHul26b/5xr3ykg/XLw3MVxq73Wklzkr4p/O4pDtYPDw+vO+8+oa6X7verWK92sH55eK7C2Pbiq2j/Qbp/MMXfv2LTpk3HZ75+eHh43XjHhPoXSdP8//7444/bmPn65eO5CmPfu3eof5dum//BKoqJf9ixY/vOzNcPDw9P14tftPP3kqb53zo9PXW/zNcvL89VmDy850vHzX9efW40Gm7sOC8eHl4eXtwbPidpmn/8OPMXZL5++XmuwuTjvVm6b/7jn8VPKJzuOC8eHp5tbzLU/5ZEzb8oindkvn55eq7C5OPFBvwl6b75j+v/SI1PC2wxLx4enl0vfiLcX0qi5h9+/yu7d+/amvH65eu5CpOXtyfUNQma/7ji1xYPO8yLh4dnzxuEukDSNf9rN27ccHLG65e35ypMZt5oNHpseAAcSND8x3V+qKKrvHh4eKa8+BG/b5R0zf/OsAc+PuP1c+MlnbzP3mAw+K+Jmv+4/lQO+96AnNYPDw9vXV58zMfHfqrmH1/0918yXj83XtLJ++7t3//gqaIo4tPxKZr/uOJfAUUXefHw8JJ7sfn/iSRs/mHP+8u492W6fm68pJPjld5wONwcfnyZpGn+47pgw4aZUY7rh4eHV9uL1/zPl4TNP9Q3q88kyXH9XHlJJ8db4N0r1HWSpvkfrHAq/+DevXs2Z7p+eHh4K3vxnT8flLTN/7qZmen7Zbp+7rykk+Mt8n4q1G2S7sEZDwGfPProo47MdP3w8PCW9jZI+fbflM3/jsnJ0WMzXT+XXtLJ8ZYcPx/qLknQ/OfVZ4bDwZaO8uLh4el6m0J9QtI2/7uGw+FzMl0/t17SyfGWHS+XdM1//LMvhNreUV48PDwdb0eoiyRt84+v+D830/Vz7bkK48iLr9J9i6Rr/uO6PNQ9O8iLh4fXvndCqG9I4uZfFMX5ma6fe89VGGdevHE+Luma/7iulfK1Cdp58fDw2vMeEupqSd/8P3XCCcdvynD9+um5CpO/F6/DfzVh8x9XfGHiL3SQFw8Pr7n3ZFnla8el2X5Qs/lPXHbkkUccleH69dNzFcaJt2HDhhPDg+nKhM1/XPGFiS/VzouHh9fIe5ms8iJiaWc/WM27YuPGjSdmuH799FyFcebNzMzcJzygvpew+c+v+FXGo5zWDw+vB178gJ8/k+73g6W8q2dmpk/JbP3667kK49Sbmpo8Lfzoeknb/Mf1N9u2bT06p/XDw3PsxXfrfExsNP/rpqenHpTZ+vXXcxXGv/fgUDdJ2uY/Nv41HEoemtn64eF5834s1D9J+v0g1q2Tk5NnZLZ+/fZchemH99BQt0j6B3usHw4Gg+dntn54eF68Xwp1q9ho/v8+OTl6dGbrh+cqTH+8x0iNjwzu8N0Dbwg1qZgXDw/vkBc/0/91YuOZwFh3jEajszNaP7x5v+gnTL+8J4b6kaRv/uO6ONRxinnx8PBEjg31ebHT/A8Mh8NfzGj98A77ZT9h+uc9PdQBSd/8x/W9UI9QzIuH12fvkaG+L7aa/7MzWj+8JQA/YfrpPTXUHZK++Y8rvgc5Pj05qZQXD69X3qZNG4fhx+eGulNo/nhteq7C9Nf7mVA/NND859dXQ91PKS8eXi+88JjbF378Zen+8buSd/toNHxKDuuHpzCsh+mjNxqNHhUemDcZaf7jih9H+mt79+6ZsL5+eHjWvPCjZ8ga3vEj7T9+l/JuDXvNT+ewfngKw3qYPnvxPbjhAXqDkeY/V0VRfGjbtq3HWF8/PDwL3tatW44JP/qQGHn8znNuCHvMw6yvH57SsB4G7+AhIH4L2A/E3uZxZfjL4Wesrx8eXkpvNBrGy3lXib3H7w+mpqYeYn398NbmJZ0cT827V6grxc7mMd97T6idLedd88DDs+TFb80riuJNsoYv8jm8FB+/35uennqg5fXDW5+XdHI8Ve+kUN+W9JvHUl58K9OSXy/cIG/tgYdnyRsOh88Ij4+rRe/x1sS7fMOGmXtZXj+89XtJJ8dT9+KXhHxGbDX/+fVRWeXDg5zdHnh4c97mzZuOC3/1f9jaa3bGRvi3fXHr1i3HWl0/vOZe0snxOvHix4ZeIPaa/7jiZ5nH7zAfGF0/PLxWvdNOe8D0cDh44fhdO2Kz+X9w9+5dWy2uH157nqsweMuOItRrxV7zn19fCPUgo+uHh9eKF79BMzTXiww83pb1BoPiD+IhxeL64bXruQqDt+p4rlTfH2Cs+Y8rvgDqPeF39xhdPzy8dXmbNm3aE1/kF+7bdxp6vB3uHRgMBi+yuH54HXmuwuAtNR4THug3Gmz+871bwkb0u3v27N5ibf3w8NYypqenJ8N9+cWHP+bE1uMt1s3VN/qZWj88mj9ey9709NSPhwf8FYY3o3F9ezgcPtXa+uHh1RxPDvfhfzJ+2I51RdwTrK0fHs0fT8nbsmXz3cMDf9V3CKxUHV5G+L+hTrW0fnh4K4x4X/2k0ctsC7yiKD4d9wJj64dH88fT9qpvGTtPjGxGNbyPh3qAlfXDwzts3FvKD7q6K5Pm/6aTTz5xo6H1w6P54yXwfl7W8KUjiTe3gy8UDLXP0Prh9ds7PtQbQh2Q9I+POt6/D4fDcwytH14qz1UYvCZebKiXie3mP7/id6PHg8BJRtYPr3/ecVI2/oPvrBFbj4/lvH+cnp4+1cj64aX2XIXBa+ptC/URsd/859cdod4YfvceBtYPrx/ePUK9Ucr7nvXHx1wVRfGRHTu27zSwfnhWPFdh8Nrw4ocGvVzKv7Cz2dzC7x8IG9z7p6YmT3d2e+DZ8R4c6r1SPdUvuvfnNr0Dg0Hxiv37Hzzl7PbAa+q5CoPXpvcTUn2ZkPHNbSnvy+F/f4Ys8fHCHa4fng8vHoifIOULUFPdn5t4/zoajR7p6PbAa9NzFQavVW8wGGwNf1W/y/Dmtpp3eahfC7UhxfrhZe3F79CIh8gVXxdjvPm/d9u2rUc7uT3wNDxXYfBUvPiK4QnDX1xSw4tftRrf7nhiivXDy8qLLyqN95VVv57XcPO/KdQzndweeB14SSfHs+9t2DATm+e6PzjI0GZ5cajnybxnBXK8PfBa9eJf+0+R8mn++DbTnO7Ph9cXw++emPntgdehl3RyvKy8+MFB8at7F7z6ebUyulleH+oN4XdPyfj2wGvmxbe+xr/2r5H878/xhYnnhYP6KOPbA69jL+nkeNl6Dw31j5LvZrnAK4riwvj97Nu2bT0m09sDr6a3ZcvmXeFHLwj1eTFy/2vBi4/Fh+Z4e+Cl9ZJOjpe1NxPq3FC3S16b5Upe/Cvqs1K+cPAo5fXD68g78sgjjhoOh88JB72/kjU+eyXd3v/WasQPIHpdqI053R54drykk+O58O4f6iKxv1mu1Zt/GNihuH54Ct727UfsGDf9cNvenuH9b7X6SqjTtNYPrx9e0snx3HjxtQEvCXWr2Nwsm3q3SfkJifGp470K64fXjrc31Auqpn+bo/vf/IqPsfhYGyqsH17PvKST4/nywkZ2fFFMfNzQZqnlxQ9Iip8B/4Tdu3dttnp79MCLTfB0KV/IF9/dYfX+0pb3qVAnt7h+CwZe/zxXYfDSe/HjRqvPDbjW2ea7nHdr/ItzMBi8aHp66n579+6ZaLJ+1m/fxF5c2/iVu/8p1F9L9YyT6N6+FrwfhHpmlb/J+i078PrpuQqDZ8c74oht8UV08S+zZV8kuFIZ2nzX6t0o5fvJz41LI+WLJde8ftZv3468uEE9UMrXYcRvflz27XoZ319Wqvgiv/hM004jtweed89VGDwL3n1CfUzy23zb8uLrBz4X6jWhzhZeQ7CSd1yos6Rcq7hmtQ6Pzu4v4/obKZ/tSHl74PXJcxUGz5oX/xq+VPLYfLW9+CxBvGb9tsFg8OLRaHRm9RkEOd++tb2dO3fsmJqaekj1Kv0/kfIZk1U/enepMnr7NvG+JeWnEnZ2e+Dh+QqDZ9WblPIVzDeIzc03tfdPUr7b4I+lfNr7Z6V8m+VmpdtD09tS/dvPqrL8cWj2fx0yfiej26NLLz4mfkPKx4jG7YGHR/PHM+HF1we8UcprnBY23xy8+EKwL0n5ffR/EOo3Qz0n1FkTE3J6fAHi1q1bjr3//e8zo3X7Bn9Q3Xb3kvLV92dV/4bfrP5N8d92cfVvtbZ+Vr3xdf5lP3jK4OMXz4vnKgxebt7Jod4ZNsc7nWzmVrzrpHyr4sVVxevpH6/q/VK+oO5dUjaeN1T///dUP/t4UUz8bfx45PD/fjlW8KJ1neG8OXp3hnqHlN8+uOww/vjFy91zFQYvS29mZvr+oeG8Y3wQkPw2czy8ul78tsF4mecUWWXk8vjFy9hzFQYva29qaurHpPxLtNZXsh5eDpoDnm8vPgNzqtQYOT5+8TL0XIXB8+LFF4/Fg4DlzRwPr64XG/+DpOZw8PjFy8VzFQbPm7c/1AelvF5qZTPHw6vjxfvsB0I9RNYwnD1+8ax7rsLgefXuIeXXni746FfJtzng+fXiBz+9LdQ+WeMw9HjD64vnKgyedy9+Le/LQl0peTYHPL/e1UVRvDrUMbKOYfTxhtcTL+nkeHhrGVNhDAaDZxfFxGWZNAc8v97l8dMcjznm6K1WHh94eGrDehi8/ninnfaA6dFo9MT4CXPhRwfEXnPA8+kdiPe5eN+L90Grjw88vFaH9TB4vfZ2SXl5IH6crqdmg2fHuyI+zb9x44aTMnx84OEt8pJOjoen4BXx/1zKtxHeIfk2GzwbXnxmKb6N7yn79p004+DxgYc35yWdHA9P2Ttayi+iuUTyaDZ4drz4rXznhrq7ofszHl6rXtLJ8fA68iakfD/2H4b6rsFmg2fD+26oP6ruK/E+Y/X+jIfXipd0cjy8FF78Lvr4PfShMVzlqHnhrc+L31wY37f/hFCDpe4v1u/PeHjr9VyFwcNbi3fqqadMxa/SlfJDhv5N8mteeOvzrpVDTX9Y9/5i/f6Mh7dWz1UYPLwGXmwEjwz1mlBfE7vNC2993iXVbfsIOewv/cOHk/szHt7aPVdh8PDW78UXED5DyncTXC++mmEfvFukfPV+fBHontVu7PEwdP/Dw6P54+EZ8OJfjA8MdW5oLl8OdVdmzbAv3rfjazviTR9qcq03suH7Hx6erucqDB6eordz544do9HozNBsXinlX5k/FHvN0Lv3o3gYiw1/OBw+bdu2rbus3l/w8Ex7rsLg4XXvxdcPxGcI4tPN8ZLB1ZJ3c7Xo3SjlYevceJPs3r1rc8b3Fzw8G56rMHh4Nrz4HvL4dbC/GOq8UB+V8j3mVpurNe+71ZqdV63hPuF9+Xh47XuuwuDhGfYGg8HWycnRGcPh4IXxqetQnwvN8GbJu1k38W4PdamUb8mL3+MQ35Z3dFe3Bx5e7z1XYfDwMvP27t0T/7LdHSp+HsHTQ7081FtCfTLUP4f6kdho1uvx4nX6fw4Hnb8L9dbBoDi3yviTVeai6fpZv33x8Ex7rsLg4fnz4od13EPK96/HtyX+eqjfCw31jaE+EOpTRTHxtdBor5LyL2rt5n9bqCtDfVXKQ8r7Qv2P+G+q/m3x3/iIDRtmTjr55BM3Glg/PDy8FX7ZTxg8PLzNofZKeWh4YFX7469W9aRQTwn1tFDPizUcDn4pvpJ+NBo+Nb67IdbExMHfGf/+PSpzs8G8eHh46/VchcHDw8PDw8OrjySbHA8PDw8PDy+pl3RyPDw8PDw8vO69pJPj4eHh4eHhde8lnRwPDw8PDw8vjZd0cjw8PDw8PLw0XtLJ8fDw8PDw8NJ4SSfHw8PDw8PDS+MlnRwPDw8PDw8vjecqDB4eHh4eHl49z1UYPDw8PDw8vHV6rsLg4eHh4eHh0fzx8PDw8PDwLE2Oh4eHh4eHR/PHw8PDw8PDU/ZchcHDw8PDw8Or57kKg4eHh4eHh1fPcxUGDw8PDw8Pr57nKgweHh4eHh5ePc9VGDw8PDw8PLzagJ8weHh4eHh4ePWRZJPj4eHh4eHhJfWSTo6Hh4eHh4fXvZd0cjw8PDw8PLzuvaST4+Hh4eHh4aXxkk6Oh4eHh4eHl8ZLOjkeHh4eHh5eGi/p5Hh4eHh4eHhpvKST4+Hh4eHh4aXxXIXBw8PDw8PDq+e5CoOHh4eHh4e3Ts9VGDw8PDw8PDyaPx4eHh4eHp6lyfHw8PDw8PBo/nh4eHh4eHjKnqsweHh4eHh4ePU8V2Hw8PDw8PDw6nmuwuDh4eHh4eHV81yFwcPDw8PDw6vnuQqDh4eHh4eHVxvwEwYPDw8PDw+vPpJscjw8PDw8PLykXtLJ8fDw8PDw8Lr3kk6Oh4eHh4eH172XdHI8PDw8PDy8NF7SyfHw8PDw8PDSeEknx8PDw8PDw0vjJZ0cDw8PDw8PL42XdHI8PDw8PDy8NJ6rMHh4eHh4eHj1PFdh8PDw8PDw8Op5/x+2ECC8RE5QmgAAAABJRU5ErkJggg==;rotation=0;fontFamily=Inconsolata;fontSource=https%3A%2F%2Ffonts.googleapis.com%2Fcss%3Ffamily%3DInconsolata;labelBackgroundColor=none;" parent="1" vertex="1">
          <mxGeometry x="709" y="470" width="22" height="22" as="geometry" />
        </mxCell>
        <mxCell id="OM572cekEQb-akaccsAw-135" value="" style="shape=image;verticalLabelPosition=bottom;verticalAlign=top;imageAspect=0;aspect=fixed;image=data:image/png,iVBORw0KGgoAAAANSUhEUgAAAgAAAAIACAYAAAD0eNT6AAAACXBIWXMAAAsTAAALEwEAmpwYAAAgAElEQVR4nO3dCbxlV1Xn8fXOvfcNNSdVlZBKUamQgWKMhCBYRAlzUDABhBaVMchgt9gigvrphjTqp8PgAA7dwIcmjEFmROkWpJEpQAhKExIGg6gkERIyJ5KESl7vXefcV+/Vm85756yz117ntz+f9ekOz/fd9d/33r32u+cO8qhHnTEZahRK1jPi71W/Pzmv8PDw8PDw8Cx7rsLg4eHh4eHh1UeSTY6Hh4eHh4eX1Es6OR4eHh4eHl73XtLJ8fDw8PDw8Lr3kk6Oh4eHh4eHl8ZLOjkeHh4eHh5eGi/p5Hh4eHh4eHhpvKST4+Hh4eHh4aXxkk6Oh4eHh4eHl8ZzFQYPDw8PDw+vnucqDB4eHh4eHt46PVdh8PDw8PDw8Gj+eHh4eHh4eJYmx8PDw8PDw6P54+Hh4eHh4Sl7rsLg4eHh4eHh1fNchcHDw8PDw8Or57kKg4eHh4eHh1fPcxUGDw8PDw8Pr57nKgweHh4eHh5ebcBPGDw8PDw8PLz6SLLJ8fDw8PDw8JJ6SSfHw8PDw8PD695LOjkeHh4eHh5e917SyfHw8PDw8PDSeEknx8PDw8PDw0vjJZ0cDw8PDw8PL42XdHI8PDw8PDy8NF7SyfHw8PDw8PDSeK7C4OHh4eHh4dXzXIXBw8PDw8PDW6fnKgweHh4eHh4ezR8PDw8PDw/P0uR4eHh4eHh4NH88PDw8PDw8Zc9VGDw8PDw8PLx6nqsweHh4eHh4ePU8V2Hw8PDw8PDw6nmuwuDh4eHh4eHV81yFwcPDw8PDw6sN+AmDh4eHh4eHVx9JNjkeHh4eHh5eUi/p5Hh4eHh4eHjde0knx8PDw8PDw+veSzo5Hh4eHh4eXhov6eR4eHh4eHh4abykk+Ph4eHh4eGl8ZJOjoeHh4eHh5fGSzo5Hh4eHh4eXhrPVRg8PDw8PDy8ep6rMGvw9oQ6M9Q5VZ25ceOGEwz9+/Dw8PDwFLyJiYk9o9Hw8cPh4HmxRqPR46v938S/L6nnKszCcXSoV4S6PNTs/Ap3iHFdPhgMXrl586bdDvLi4eHh4ZVjbv+ft9/PlZS94PLq/+boBP++9J6rMIdGEeqloW6Wwxq/LGz+8+8MN1e/U3Tw78PDw8PD0/EW7P8rNP/5VWv/N5p3fZ6rMIfG5lAfkyUav9S7M3ysMnLJi4eHh4dXjgX7f83mX2v/N5p3fZ6rMIfGhlBfkPU3/3F9obKs58XDw8PDK8eC/X8dzX/Z/d9o3vV5rsIsHO+U5s1/XO/MIC8eHh4eXjnm9v8GzX/R/m847/o8V2EOjbOkveY/rrMM58XDw8PDK8fc/t9C85/b/w3nXb/nKkw5JkJdIu02/1iXybwXhRjKi4eHh4dXjrn9v8Xmf3D/P/XUU6YM5m3muQpTjodL+81/XA83mBcPDw8PrxwH9/+Wm//B35+cHD3aYN5mnqsw5Xi96DT/WK83mBcPDw8Prxyv12j+sYqi+FNreRt7rsKU40ui0/xjXWQwLx4eHh5e+L2wv1+s0fyrA8CXrOVt7LkKU45rRaf5x9+/1mBePDw8PLzw+3GP1mj+VV1rLW9bXtLJW/YOiNI1oFAHDObFw8PDwwtO3KOVmn/83w9Yy9uGl3RyhTBazf9gWcuLh4eHh1dais1/XKbyNvWSTq7haTb/6gBgKi8eHh4e3qEDgOg1/zUdAHJYv6STa3iazb86AJjKi4eHh4dXeqLb/GsfAHJZv6STa3iazV/W8RSQdl48PDw8vDlPs/nX2v9zWr+kk2t4XAPCw8PD662n2fxX3f9zW7+kk2t4XAPCw8PD662n2fxX3P9zXD9XYeJ/C9eA8PDw8PrqaTb/Zff/XNfPVZjK02z+tQ4Ama8fHh4eXq6eZvNfcv93tX4Owmg2/1UPAA7WDw8PDy9XT7P5L9r/DeRtz3MSRrP5r3gAcLJ+eHh4eLl6ms1/wf5vJG87nqMwms1/2QOAo/XDw8PDy9XTbP5z+7+hvM09V2F0m/+SBwBn64eHh4eXq6fZ/GcN5m3muQpTDs3mv+gAYCAvHh4eHl45NJv/rMG8zTxXYcqh2fwXHACM5MXDw8PDK4da85fyAGAtbzPPVZhyaDb/uQOAobx4eHh4eOVQa/7x9w3mbea5ClMOzeY/azAvHh4eHl451Jr/YQcAK3mbea7ClINrQHh4eHg99ESx+c87AJjJ29hzFaYcXAPCw8PD66Gn2fyrA4CpvI09V2HKwTUgPDw8vB56ms2/2v9N5W3LSzp5yx7XgPDw8PB66Gk2/+pnpvK24SWdXCEM14Dw8PDweugpN/81HwCsr1/SyTU8rgHh4eHh9dNTbv5rOgDksH5JJ9fwuAaEh4eH109PdJt/7QNALuuXdHINj2tAeHh4eL31NJt/rf0/p/VLOrmGxzUgPDw8vN56ms1/1f0/t/VLOrmGxzUgPDw8vN56ms1/xf0/x/VzFSb+t3ANCA8PD6+vnmbzX3b/z3X9XIWpPM3mX+sAkPn64eHh4eXqaTb/Jfd/V+vnIIxm81/1AOBg/fDw8PBy9TSb/6L930De9jwnYTSb/4oHACfrh4eHh5erp9n8F+z/RvK24zkKo9n8lz0AOFo/PDw8vFw9zeY/t/8bytvccxVGt/kveQBwtn54eHh4uXqazX/WYN5mnqsw5dBs/osOAAby4uHh4eGVQ7P5zxrM28xzFaYcms1/wQHASF48PDw8vHKoNX8pDwDW8jbzXIUph2bznzsAGMqLh4eHh1cOteYff99g3maeqzDl0Gz+swbz4uHh4eGVQ635H3YAsJK3mecqTDm4BoSHh4fXQ08Um/+8A4CZvI09V2HKwTUgPDw8vB56ms2/OgCYytvYcxWmHFwDwsPDw+uhp9n8q/3fVN62vKSTt+xxDQgPDw+vh55m869+ZipvG17SyRXCcA0IDw8Pr4eecvNf8wHA+volnVzD4xoQHh4eXj895ea/pgNADuuXdHINj2tAeHh4eP30RLf51z4A5LJ+SSfX8LgGhIeHh9dbT7P519r/c1q/pJNreFwDwsPDw+utp9n8V93/c1u/pJNreFwDwsPDw+utp9n8V9z/c1w/V2HifwvXgPDw8PD66mk2/2X3/1zXz1WYytNs/rUOAJmvHx4eHl6unmbzX3L/d7V+DsJoNv9VDwAO1g8PDw8vV0+z+S/a/w3kbc9zEkaz+a94AHCyfnh4eHi5eprNf8H+byRvO56jMJrNf9kDgKP1w8PDw8vV02z+c/u/obzNPVdhdJv/kgcAZ+uHh4eHl6un2fxnDeZt5rkKUw7N5r/oAGAgLx4eHh5eOTSb/6zBvM08V2HKodn8FxwAjOTFw8PDwyuHWvOX8gBgLW8zz1WYcmg2/7kDgKG8eHh4eHjlUGv+8fcN5m3muQpTDs3mP2swLx4eHh5eOdSa/2EHACt5m3muwpSDa0B4eHh4PfREsfnPOwCYydvYcxWmHFwDwsPDw+uhp9n8qwOAqbyNPVdhysE1IDw8PLweeprNv9r/TeVty0s6ecse14Dw8PDweuhpNv/qZ6bytuElnVwhDNeA8PDw8HroKTf/NR8ArK9f0sk1PK4B4eHh4fXTU27+azoA5LB+SSfX8LgGhIeHh9dPT3Sbf+0DQC7rl3RyDY9rQHh4eHi99TSbf639P6f1Szq5hsc1IDw8PLzeeprNf9X9P7f1Szq5hsc1IDw8PLzeeprNf8X9P8f1cxUm/rdwDQgPDw+vr55m8192/891/VyFqTzN5l/rAJD5+uHh4eHl6mk2/yX3f1fr5yCMZvNf9QDgYP3w8PDwcvU0m/+i/d9A3vY8J2E0m/+KBwAn64eHh4eXq6fZ/Bfs/0bytuM5CqPZ/Jc9ADhaPzw8PLxcPc3mP7f/G8rb3HMVRrf5L3kAcLZ+eHh4eLl6ms1/1mDeZp6rMOXQbP6LDgAG8uLh4eHhlUOz+c8azNvMcxWmHJrNf8EBwEhePDw8PLxyqDV/KQ8A1vI281yFKYdm8587ABjKi4eHh4dXDrXmH3/fYN5mnqsw5dBs/rMG8+Lh4eHhlUOt+R92ALCSt5nnKkw5uAaEh4eH10NPFJv/vAOAmbyNPVdhysE1IDw8PLweeprNvzoAmMrb2HMVphxcA8LDw8ProafZ/Kv931Tetrykk7fscQ0IDw8Pr4eeZvOvfmYqbxte0skVwnANCA8PD6+HnnLzX/MBwPr6JZ1cw+MaEB4eHl4/PeXmv6YDQA7rl3RyDY9rQHh4eHj99ES3+dc+AOSyfkkn1/C4BoSHh4fXW0+z+dfa/3Nav6STa3hcA8LDw8PrrafZ/Ffd/3Nbv6STa3hcA8LDw8PrrafZ/Ffc/3NcP1dh4n8L14Dw8PDw+uppNv9l9/9c189VmMrTbP61DgCZrx8eHh5erp5m819y/3e1fg7CaDb/VQ8ADtYPDw8PL1dPs/kv2v8N5G3PcxJGs/mveABwsn54eHh4uXqazX/B/m8kbzueozCazX/ZA4Cj9cPDw8PL1dNs/nP7v6G8zT1XYXSb/5IHAGfrh4eHh5erp9n8Zw3mbea5ClMOzea/6ABgIC8eHh4eXjk0m/+swbzNPFdhyqHZ/BccAIzkxcPDw8Mrh1rzl/IAYC1vM89VmHJoNv+5A4ChvHh4eHh45VBr/vH3DeZt5rkKUw7N5j9rMC8eHh4eXjnUmv9hBwAreZt5rsKUg2tAeHh4eD30RLH5zzsAmMnb2HMVphxcA8LDw8ProafZ/KsDgKm8jT1XYcrBNSA8PDy8Hnqazb/a/03lbctLOnnLHteA8PDw8HroaTb/6mem8rbhJZ1cIQzXgPDw8PB66Ck3/zUfAKyvX9LJNTyuAeHh4eH101Nu/ms6AOSwfkkn1/C4BoSHh4fXT090m3/tA0Au65d0cg2Pa0B4eHh4vfU0m3+t/T+n9Us6uYbHNSA8PDy83nqazX/V/T+39Us6uYbHNSA8PDy83nqazX/F/T/H9XMVJv63cA0IDw8Pr6+eZvNfdv/Pdf1chak8zeZf6wCQ+frh4eHh5eppNv8l939X6+cgjGbzX/UA4GD98PDw8HL1NJv/ov3fQN72PCdhNJv/igcAJ+uHh4eHl6un2fwX7P9G8rbjOQqj2fyXPQA4Wj88PDy8XD3N5j+3/xvK29xzFUa3+S95AHC2fnh4eHi5eprNf9Zg3maeqzDl0Gz+iw4ABvLi4eHh4ZVDs/nPGszbzHMVphyazX/BAcBIXjw8PDy8cqg1fykPANbyNvNchSmHZvOfOwAYyouHh4eHVw615h9/32DeZp6rMOXQbP6zBvPi4eHh4ZVDrfkfdgCwkreZ5ypMObgGhIeHh9dDTxSb/7wDgJm8jT1XYcrBNSA8PDy8Hnqazb86AJjK29hzFaYcXAPCw8PD66Gn2fyr/d9U3ra8pJO37HENCA8PD6+Hnmbzr35mKm8bXtLJFcJwDQgPDw+vh55y81/zAcD6+iWdXMPjGhAeHh5ePz3l5r+mA0AO65d0cg2Pa0B4eHh4/fREt/nXPgDksn5JJ9fwuAaEh4eH11tPs/nX2v9zWr+kk2t4XAPCw8PD662n2fxX3f9zW7+kk2t4XAPCw8PD662n2fxX3P9zXD9XYeJ/C9eA8PDw8PrqaTb/Zff/XNfPVZjK02z+tQ4Ama8fHh4eXq6eZvNfcv93tX4Owmg2/1UPAA7WDw8PDy9XT7P5L9r/DeRtz3MSRrP5r3gAcLJ+eHh4eLl6ms1/wf5vJG87nqMwms1/2QOAo/XDw8PDy9XTbP5z+7+hvM09V2F0m/+SBwBn64eHh4eXq6fZ/GcN5m3muQpTDs3mv+gAYCAvHh4eHl45NJv/rMG8zTxXYcqh2fwXHACM5MXDw8PDK4da85fyAGAtbzPPVZhyaDb/uQOAobx4eHh4eOVQa/7x9w3mbea5ClMOzeY/azAvHh4eHl451Jr/YQcAK3mbea7ClINrQHh4eHg99ESx+c87AJjJ29hzFaYcXAPCw8PD66Gn2fyrA4CpvI09V2HKwTUgPDw8vB56ms2/2v9N5W3LSzp5yx7XgPDw8PB66Gk2/+pnpvK24SWdXCEM14Dw8PDweugpN/81HwCsr1/SyTU8rgHh4eHh9dNTbv5rOgDksH5JJ9fwuAaEh4eH109PdJt/7QNALuuXdHINj2tAeHh4eL31NJt/rf0/p/VLOrmGxzUgPDw8vN56ms1/1f0/t/VLOrmGxzUgPDw8vN56ms1/xf0/x/VzFSb+t3ANCA8PD6+vnmbzX3b/z3X9XIWpPM3mX+sAkPn64eHh4eXqaTb/Jfd/V+vnIIxm81/1AOBg/fDw8PBy9TSb/6L930De9jwnYTSb/4oHACfrh4eHh5erp9n8F+z/RvK24zkKo9n8lz0AOFo/PDw8vFw9zeY/t/8bytvccxVGt/kveQBwtn54eHh4uXqazX/WYN5mnqsw5dBs/osOAAby4uHh4eGVQ7P5zxrM28xzFaYcms1/wQHASF48PDw8vHKoNX8pDwDW8jbzXIUph2bznzsAGMqLh4eHh1cOteYff99g3maeqzDl0Gz+swbz4uHh4eGVQ635H3YAsJK3mecqTDm4BoSHh4fXQ08Um/+8A4CZvI09V2HKwTUgPDw8vB56ms2/OgCYytvYcxWmHFwDwsPDw+uhp9n8q/3fVN62vKSTt+xxDQgPDw+vh55m869+ZipvG17SyRXCcA0IDw8Pr4eecvNf8wHA+volnVzD4xoQHh4eXj895ea/pgNADuuXdHINj2tAeHh4eP30RLf51z4A5LJ+SSfX8LgGhIeHh9dbT7P519r/c1q/pJNreFwDwsPDw+utp9n8V93/c1u/pJNreFwDwsPDw+utp9n8V9z/c1w/V2HifwvXgPDw8PD66mk2/2X3/1zXz1WYytNs/rUOAJmvHx4eHl6unmbzX3L/d7V+DsJoNv9VDwAO1g8PDw8vV0+z+S/a/w3kbc9zEkaz+a94AHCyfnh4eHi5eprNf8H+byRvO56jMJrNf9kDgKP1w8PDw8vV02z+c/u/obzNPVdhdJv/kgcAZ+uHh4eHl6un2fxnDeZt5rkKUw7N5r/oAGAgLx4eHh5eOTSb/6zBvM08V2HKodn8FxwAjOTFw8PDwyuHWvOX8gBgLW8zz1WYcmg2/7kDgKG8eHh4eHjlUGv+8fcN5m3muQpTDs3mP2swLx4eHh5eOdSa/2EHACt5m3muwpSDa0B4eHh4PfREsfnPOwCYydvYcxWmHFwDwsPDw+uhp9n8qwOAqbyNPVdhysE1IDw8PLweeprNv9r/TeVty0s6ecse14Dw8PDweuhpNv/qZ6bytuElnVwhDNeA8PDw8HroKTf/NR8ArK9f0sk1PK4B4eHh4fXTU27+azoA5LB+SSfX8LgGhIeHh9dPT3Sbf+0DQC7rl3RyDY9rQHh4eHi99TSbf639P6f1Szq5hsc1IDw8PLzeeprNf9X9P7f1Szq5hsc1IDw8PLzeeprNf8X9P8f1cxUm/rdwDQgPDw+vr55m8192/891/VyFqTzN5l/rAJD5+uHh4eHl6mk2/yX3f1fr5yCMZvNf9QDgYP3w8PDwcvU0m/+i/d9A3vY8J2E0m/+KBwAn64eHh4eXq6fZ/Bfs/0bytuM5CqPZ/Jc9ADhaPzw8PLxcPc3mP7f/G8rb3HMVRrf5L3kAcLZ+eHh4eLl6ms1/1mDeZp6rMOW4S3SfBpowlhcPDw8Pr9ybNZv/XcbyNvdchSnH7aL7NNCksbx4eHh4eCJTotf8Y91mLG9zz1WYctwkuk8DbTaWFw8PDw9PZIvoNf/4+zcay9vccxWmHD8Q3aeBthvLi4eHh4cnslP0mn+sq43lbe65ClOOq0TxaaCiKI4xlhcPDw8PT+RY0Wv+sa4wlre55ypMOb4jik8Dbdgwc6KxvHh4eHi998Lefg/F5h/r25bytuK5ClOOb4ri00AzMzP3MZYXDw8Pr/fe9PT0fRWbf6yvW8rbppd08pa9r4ri00DhTnaqsbx4eHh4vfemp6dOU2z+8X//iqW8bXlJJ1cIc7Hm00BTU1MPsZQXDw8PD++MyampyYcqNv9YF1nK24aXdHINL9xYF2o+DTQ5OXqYpbx4eHh4eGdMhnGGYvOP9RlLedvwkk6u4RVF8XfKTwP9jKW8eHh4eHhnTA6Hw7NFr/nH+oSlvG14SSfX8MIB4MPKTwM901JePDw8PLyDzezZotf8Y73fUt42vKSTa3jhAPAW5aeBXmwpLx4eHh7eQe83Ra/5x3qjsbyNvaSTa3jhAPAa0X0a6Pct5cXDw8PDOzjOE73mH+u/G8vb2HMV5lHl00AvFd2ngd5gKS8eHh4e3sHxJtFr/rFeYixvY89VmMo7R3SfBnqfsbx4eHh4eCIfEL3mH+tZxvK27zkIc5boPg30SWN58fDw8PBEPi16zT/WE4zlbddzEuZ00X0a6BJjefHw8PDwRC4VveYf6yeM5W3PcxRmn+g+DXSVsbx4eHh4eCL/JnrNP9Y9jeVtx3MVZt53Qq9UDe4Md4aaNJQXDw8Pr+/elJR7s1bzj3WkobzteK7ClGMgK9wRpJ07wwmG8uLh4eH13TtZdJt/7CmFobzteK7CHBrfF907w6OM5cXDw8Prs/cY0dvvY33PWN52PFdhDo34rU2ad4bnGsuLh4eH12fv+aK338f6vLG87XiuwhwafyG6d4bfM5YXDw8Pr89e/JQ+rf1+tiiKdxvL247nKsyh8SrRvTNcYCwvHh4eXp+9d4vSfh9/fzAoXmUsbzueqzCHxgtF8c4QDgAXGsuLh4eH12fvi6K038caDgcvNJa3Hc9VmEPjTFG8M4S60lhePDw8vN56YXxfcb+fHY1Gj7OUV2H90k3ethdusHtq3hlC3bVr1zFbrOTFw8PD66s3Gg03xj1Zcb+fnZmZvpeVvG17SSfX8Hbv3rX58DuEtHhnqOoBVvLi4eHh9dWbnJz8Cc3mH+rOqTCs5G3TSzq5phdutKu0mn/1s2dayouHh4fXR284HP6y5h974X//rqW8bXpJJ9f04gv1FJt/rNdayouHh4fXRy/s9a9T/mPv05bytuklnVzTC3eKd4he84/1MUt58fDw8Prohb3+E8p/7J1vKW+bXtLJNb3wo5eJXvOPdbWlvHh4eHh99ML+vOxHv9epGvv9b1jK26aXdHJl73Gi1/zHdbShvHh4eHi98jZt2rRHdJt/rEdbydu25yrMYd6xotv8V7xjOFg/PDw8PNOeLPMlQHVqDfv93azkVVg/P2GW8K4Rvea/7FNDjtYPDw8Pz7L3EtFt/tcYy6vruQoj8knRa/6x3mosLx4eHl6fvPNF95neTxjLq+e5ClOO14le84/1TWN58fDw8PrkfUt0L/P+obG8Op6rMIfGc0Wv+ce6K9RRhvLi4eHh9cXbIeUerHmZ99mG8up4rsIsHD8ues1/XGcZyouHh4fXF+9s0W3+sU4zlLd9z1WYxWMm1AHRa/6xXm0oLx4eHl5fvNeIbvOPvWODobzte67CLD2+LnrNP/7+hcby4uHh4fXBu1D0mn+srxvL277nKszS43+JXvOPdduePbu3GMqLh4eH592Lz+7eLnrNP9abDeXV8VyFWXqcI3rN/2BNTk4+zFBePDw8PO/eT4lu84/1HEN5dTxXYZYY4Ybfp9n8Yw0Gg9+2khcPDw+vB95vi27zj3VPQ3l1PFdhlvD27//x+GURP9Bq/pX3V1by4uHh4fXA+6joNv9r9u7dM2Eor47nKswyXlEUH1Fs/rFuCTVlJS8eHh6eY2861K2i1/xjfchQXnUv6eTa3mAw+B3F5j+uR1nJi4eHh+fYe6zoNv94Wfe3DOVV9ZJO3oU3OTmKmGbzj/UHVvLi4eHhOfb+SBSbf/XC7p8ylFfNSzp5V95UGOHHt4le8491mZW8eHh4eI69b4hi849v7d67d89mQ3nVvKSTd+xdKHrNf1zHGcqLh4eH583bK7rNf7Yois8ayqvqJZ28Y+880W3+sV5gKC8eHh6eN++Fotj8y7d1F68ylFfVSzp5x97DRbf5x/qQobx4eHh4rrww/lL7c11Go9EjrOTV9pJO3rEXw94kes0/1s3VPBby4uHh4bnx4mu5wn58s2bzD3XDhg0z9Z4aV87bhecqTA3vg6LX/Mf104by4uHh4bnwhsPh2crNP/7v77OStwvPVZga3vNFt/nHequhvHh4eHguvKIo3qnc/GM910reJJ6rMIvH3UW3+ce6cffuXZuN5MXDw8PL3otvy4tPzys3/1h7LORN4rkKs/y4VPSaf/UikuGTDOXFw8PDy9oLe+rPddD8L7GSt3PPVZiVx2tFsflX7yN9l6G8eHh4eFl7YU/9C+XmH+vVVvJ26rkKU4MTxeZf1U27dh2zxUhePDw8vGy9sJdui6/+F93mH+sRFvJ26rkKU2NMT09PdvBWkvi/P8lCXjw8PLycveFw+POi3/xrfaNrjuu3oucqTE2vKIr3d/Bq0ndbyYuHh4eXqxd+9B7Rbf6z1Rwm8nbquQpT0wsnyqd18IKSeKLcYiEvHh4eXo7eYDDYGn58q+g2/1hPtpC3c89VmJpeh9eUnm8hLx4eHl6m3q+IfvOPvWDGSN5uPVdh1uCFH10g+k8rXWwlLx4eHl6G3pdFt/nHeqehvN16rsKszXui6J8sY51qJC8eHh5eTt4DRX9/jvWzRvJ277kKszZvOtQNon/n+nMjefHw8PBy8v6n6O/PN0rZCyzkTeYlnTyh93bRvXPFioeMjUby4uHh4eXgxWvy14v+/ny+kbzJvKSTJ/YeL7p3rnE9y0hePDw8vBy8Z4t+84/1OCN5k3hJJzfgxRcDXiu6zT/W54zkxcPDw8vBu1D0m/91oSaN5E3iJZ3ciPdm0W3+Y+t+RvLi4eHhWfbuJ908M/smI3mTeUknN+LtF+XmH6soircayYuHh4dn2Ttf9Jt/rIPe3psAABoDSURBVIcYyZvMSzq5Ie9rotj8K+OOTZs2HW8kLx4eHp5Fb1eo20W/+V9iJG9SL+nkhrz/LLrN/2ANBsWrjOTFw8PDs+idJ/rNP9aLjORN6rkK08DbHuqHms2/quuGw+EmA3nx8PDwrHmbZYW3/rW4P99WFMUOA3mTe67CNPHCHeIC5eY/d/K0kBcPDw/PmPfrot/8Y73DSF57nqswa/AmJ0eP6aD5x/pOqGHqvHh4eHiGvEGob4t+858djcI/J31ee56rMGv09u9/8FS4Y31LufmP66mp8+Lh4eEZ8p4mHTT/8PuXx73eQF5bnqsw6/QGg+J3RL/5x/pSqInUefHw8PAMeHEvXPStfxqvyRoMBr9jIK8tz1WYBl5RFHcLP75DdJv/uJb8Bqou8+Lh4eEZ8M6WDpp/fCv2li2b724grx3PVZh2vLeJfvOP9dVQhYG8eHh4eKm8+Nf/V0S/+ccPY3u7gby2PFdh2vHix1DeJbrNf1w/ZyAvHh4eXirvP0gHzT/W9PTUgwzkteW5CtOe93HRb/6xLpXqWQBn64eHh4e32oiv/L9MOmj+4a//jxnIa89zFaY970zRb/7j+gUDefHw8PC69p4uHTT/WKPR8KcN5LXnuQrTrrfgupSscOdqeGf91r59J80YyIuHh4fXlRf/+v+GdND8Q12yd++eFd911UFem56rMO16zxL95n/w94fD4XMN5MXDw8PryjtHumn+8X9/hoG8Nj1XYdr1JkNdKcrNv6p/2b1711Zn64eHh4e31JgJ9S8dNf8rpNzLU+Y17yWd3LD3W9LRNarBoHiFgbx4eHh4ql4Yr+io+cd6aeq81r2kkxv3jgh1c0d31ltCHZs4Lx4eHp6aVxQTu8N+d0tHzf+mUNtS5rXuJZ08B68oivM6urPGenvqvHh4eHhaXoffuhrr91Lnte4lnTwHb/v2I3eGO9X1HdxZY8UPIDo9ZV48PDw8DW9ycvSTYc+7q6Pmf0OoI1PmzcFLOnku3mAw+N0Omv+4LpYlPiK4y7x4eHh4bXqnnnrKVPjr/6KOmn+sl6fMm4uXdPJcvO3bj9gRfnSt6Df/cT09ZV48PDy8Nr3hcHhOh83/eql57T+X9dPykk6embeurwpe5wsI41tXNiXOi4eHh9fYO+qondvDvndVR80/1m+nzJuT5yqMsrcx1PdFv/mP648S58XDw8Nr7BVF8WcdNv9rQm1OmTcnz1WYDryXSDfNP9adofYnzouHh4e3bm9qavL0sPcd6PA1VC9OmTd7z1WY9r3pUPHpee3mP65LpqenJx2tHx4eXk+8E044flNRTFzaYfO/KtSGVHmz91yF0fN+Vbpp/ger+oRAT+uHh4fXA28wGPy3Dpt/rP+YMm/Wnqswut4w1Nekg+ZfGbfNzEyf4mj98PDwnHszMzP3DXvXD6W75n9ZqGXf157b+nXquQrTjfdo6ab5H6yiKL4Q30fraP3w8PCceqed9oDpsG99Vrpr/rHOTJU3a89VmG69j0oHzX+e9yuJ8+Lh4eGt6g0GgxdJt83/IynzZu25CtOtty/UHR01/1jxy4JOTpgXDw8Pb0VvZmYm7lE3SnfN/45Q90yVN3vPVZiOvaIoXt9R8x/Xl2SF61zaefHw8PCW8/btO2km/Ojz0l3zj/XaVHldeK7CdOwdeeQRR4U76TUdfshFrFemyouHh4e3nBd+FL99r8vmf7Us8ZG/ua5fEs9VmATeYDD41Y7f6hI/IGjZf3xu64eHh5e/NzFx8FtMD0h3zT/W81LldeO5CpPAu+997x0/HOj/Sbcn338NdUSKvHh4eHjzvfBH0Nbw4+9It83/K6EGKfK68lyFSec9LNRd0t2dP9Y7E+bFw8PDG3sXSLfNPz4LenrCvO68pJM78d4g3TX/cf1iwrx4eHh4z5Bum3+sP0+Y152XdHJHXnwa7ErprvnHujH87j4n64eHh5eXd69QN0m3zT9+F8vWRHndeUknd+g9Xrpr/mPvGzt37tjhZP3w8PDy8DaFulS6bf6xzk6U16WXdHKn3vulu+Y//qjgD+/f/+ApJ+uHh4dn25sI9V7pvvm/J1Fet17SyZ16dwt1nXTU/Mc1GAx+y8n64eHh2fZeJt03/xtCHZsor1sv6eSOvV+WDpt/5cX34D4mUV48PLx+eI8I9SPptvnHOidRXtde0skde/Epsr+V7pr/uH4Qam+CvHh4eP69u0v56XtdN/+/CzXhYP3Mea7CWPLCHf3EULd02PzH9cVQU13nxcPDc+3FPeUi6b75xy9BO9HB+pn0XIWx5g2Hgxd03PzH9W4pn4XoNC8eHp5LL+4lb5Pum3+s5zpYv3w8V2EMeEVRvLfj5j+u302RFw8Pz533+5Km+X/Ayfrl4bkKY8Q74ohtR0n52f1dNv9xvaDrvHh4eK6850ia5n/FYFBsd7B+eXiuwtjzHibl51d32fxj3SHVOwMyXz88PLzuvYeHul26b/5xr3ykg/XLw3MVxq73Wklzkr4p/O4pDtYPDw+vO+8+oa6X7verWK92sH55eK7C2Pbiq2j/Qbp/MMXfv2LTpk3HZ75+eHh43XjHhPoXSdP8//7444/bmPn65eO5CmPfu3eof5dum//BKoqJf9ixY/vOzNcPDw9P14tftPP3kqb53zo9PXW/zNcvL89VmDy850vHzX9efW40Gm7sOC8eHl4eXtwbPidpmn/8OPMXZL5++XmuwuTjvVm6b/7jn8VPKJzuOC8eHp5tbzLU/5ZEzb8oindkvn55eq7C5OPFBvwl6b75j+v/SI1PC2wxLx4enl0vfiLcX0qi5h9+/yu7d+/amvH65eu5CpOXtyfUNQma/7ji1xYPO8yLh4dnzxuEukDSNf9rN27ccHLG65e35ypMZt5oNHpseAAcSND8x3V+qKKrvHh4eKa8+BG/b5R0zf/OsAc+PuP1c+MlnbzP3mAw+K+Jmv+4/lQO+96AnNYPDw9vXV58zMfHfqrmH1/0918yXj83XtLJ++7t3//gqaIo4tPxKZr/uOJfAUUXefHw8JJ7sfn/iSRs/mHP+8u492W6fm68pJPjld5wONwcfnyZpGn+47pgw4aZUY7rh4eHV9uL1/zPl4TNP9Q3q88kyXH9XHlJJ8db4N0r1HWSpvkfrHAq/+DevXs2Z7p+eHh4K3vxnT8flLTN/7qZmen7Zbp+7rykk+Mt8n4q1G2S7sEZDwGfPProo47MdP3w8PCW9jZI+fbflM3/jsnJ0WMzXT+XXtLJ8ZYcPx/qLknQ/OfVZ4bDwZaO8uLh4el6m0J9QtI2/7uGw+FzMl0/t17SyfGWHS+XdM1//LMvhNreUV48PDwdb0eoiyRt84+v+D830/Vz7bkK48iLr9J9i6Rr/uO6PNQ9O8iLh4fXvndCqG9I4uZfFMX5ma6fe89VGGdevHE+Luma/7iulfK1Cdp58fDw2vMeEupqSd/8P3XCCcdvynD9+um5CpO/F6/DfzVh8x9XfGHiL3SQFw8Pr7n3ZFnla8el2X5Qs/lPXHbkkUccleH69dNzFcaJt2HDhhPDg+nKhM1/XPGFiS/VzouHh9fIe5ms8iJiaWc/WM27YuPGjSdmuH799FyFcebNzMzcJzygvpew+c+v+FXGo5zWDw+vB178gJ8/k+73g6W8q2dmpk/JbP3667kK49Sbmpo8Lfzoeknb/Mf1N9u2bT06p/XDw3PsxXfrfExsNP/rpqenHpTZ+vXXcxXGv/fgUDdJ2uY/Nv41HEoemtn64eF5834s1D9J+v0g1q2Tk5NnZLZ+/fZchemH99BQt0j6B3usHw4Gg+dntn54eF68Xwp1q9ho/v8+OTl6dGbrh+cqTH+8x0iNjwzu8N0Dbwg1qZgXDw/vkBc/0/91YuOZwFh3jEajszNaP7x5v+gnTL+8J4b6kaRv/uO6ONRxinnx8PBEjg31ebHT/A8Mh8NfzGj98A77ZT9h+uc9PdQBSd/8x/W9UI9QzIuH12fvkaG+L7aa/7MzWj+8JQA/YfrpPTXUHZK++Y8rvgc5Pj05qZQXD69X3qZNG4fhx+eGulNo/nhteq7C9Nf7mVA/NND859dXQ91PKS8eXi+88JjbF378Zen+8buSd/toNHxKDuuHpzCsh+mjNxqNHhUemDcZaf7jih9H+mt79+6ZsL5+eHjWvPCjZ8ga3vEj7T9+l/JuDXvNT+ewfngKw3qYPnvxPbjhAXqDkeY/V0VRfGjbtq3HWF8/PDwL3tatW44JP/qQGHn8znNuCHvMw6yvH57SsB4G7+AhIH4L2A/E3uZxZfjL4Wesrx8eXkpvNBrGy3lXib3H7w+mpqYeYn398NbmJZ0cT827V6grxc7mMd97T6idLedd88DDs+TFb80riuJNsoYv8jm8FB+/35uennqg5fXDW5+XdHI8Ve+kUN+W9JvHUl58K9OSXy/cIG/tgYdnyRsOh88Ij4+rRe/x1sS7fMOGmXtZXj+89XtJJ8dT9+KXhHxGbDX/+fVRWeXDg5zdHnh4c97mzZuOC3/1f9jaa3bGRvi3fXHr1i3HWl0/vOZe0snxOvHix4ZeIPaa/7jiZ5nH7zAfGF0/PLxWvdNOe8D0cDh44fhdO2Kz+X9w9+5dWy2uH157nqsweMuOItRrxV7zn19fCPUgo+uHh9eKF79BMzTXiww83pb1BoPiD+IhxeL64bXruQqDt+p4rlTfH2Cs+Y8rvgDqPeF39xhdPzy8dXmbNm3aE1/kF+7bdxp6vB3uHRgMBi+yuH54HXmuwuAtNR4THug3Gmz+871bwkb0u3v27N5ibf3w8NYypqenJ8N9+cWHP+bE1uMt1s3VN/qZWj88mj9ey9709NSPhwf8FYY3o3F9ezgcPtXa+uHh1RxPDvfhfzJ+2I51RdwTrK0fHs0fT8nbsmXz3cMDf9V3CKxUHV5G+L+hTrW0fnh4K4x4X/2k0ctsC7yiKD4d9wJj64dH88fT9qpvGTtPjGxGNbyPh3qAlfXDwzts3FvKD7q6K5Pm/6aTTz5xo6H1w6P54yXwfl7W8KUjiTe3gy8UDLXP0Prh9ds7PtQbQh2Q9I+POt6/D4fDcwytH14qz1UYvCZebKiXie3mP7/id6PHg8BJRtYPr3/ecVI2/oPvrBFbj4/lvH+cnp4+1cj64aX2XIXBa+ptC/URsd/859cdod4YfvceBtYPrx/ePUK9Ucr7nvXHx1wVRfGRHTu27zSwfnhWPFdh8Nrw4ocGvVzKv7Cz2dzC7x8IG9z7p6YmT3d2e+DZ8R4c6r1SPdUvuvfnNr0Dg0Hxiv37Hzzl7PbAa+q5CoPXpvcTUn2ZkPHNbSnvy+F/f4Ys8fHCHa4fng8vHoifIOULUFPdn5t4/zoajR7p6PbAa9NzFQavVW8wGGwNf1W/y/Dmtpp3eahfC7UhxfrhZe3F79CIh8gVXxdjvPm/d9u2rUc7uT3wNDxXYfBUvPiK4QnDX1xSw4tftRrf7nhiivXDy8qLLyqN95VVv57XcPO/KdQzndweeB14SSfHs+9t2DATm+e6PzjI0GZ5cajnybxnBXK8PfBa9eJf+0+R8mn++DbTnO7Ph9cXw++emPntgdehl3RyvKy8+MFB8at7F7z6ebUyulleH+oN4XdPyfj2wGvmxbe+xr/2r5H878/xhYnnhYP6KOPbA69jL+nkeNl6Dw31j5LvZrnAK4riwvj97Nu2bT0m09sDr6a3ZcvmXeFHLwj1eTFy/2vBi4/Fh+Z4e+Cl9ZJOjpe1NxPq3FC3S16b5Upe/Cvqs1K+cPAo5fXD68g78sgjjhoOh88JB72/kjU+eyXd3v/WasQPIHpdqI053R54drykk+O58O4f6iKxv1mu1Zt/GNihuH54Ct727UfsGDf9cNvenuH9b7X6SqjTtNYPrx9e0snx3HjxtQEvCXWr2Nwsm3q3SfkJifGp470K64fXjrc31Auqpn+bo/vf/IqPsfhYGyqsH17PvKST4/nywkZ2fFFMfNzQZqnlxQ9Iip8B/4Tdu3dttnp79MCLTfB0KV/IF9/dYfX+0pb3qVAnt7h+CwZe/zxXYfDSe/HjRqvPDbjW2ea7nHdr/ItzMBi8aHp66n579+6ZaLJ+1m/fxF5c2/iVu/8p1F9L9YyT6N6+FrwfhHpmlb/J+i078PrpuQqDZ8c74oht8UV08S+zZV8kuFIZ2nzX6t0o5fvJz41LI+WLJde8ftZv3468uEE9UMrXYcRvflz27XoZ319Wqvgiv/hM004jtweed89VGDwL3n1CfUzy23zb8uLrBz4X6jWhzhZeQ7CSd1yos6Rcq7hmtQ6Pzu4v4/obKZ/tSHl74PXJcxUGz5oX/xq+VPLYfLW9+CxBvGb9tsFg8OLRaHRm9RkEOd++tb2dO3fsmJqaekj1Kv0/kfIZk1U/enepMnr7NvG+JeWnEnZ2e+Dh+QqDZ9WblPIVzDeIzc03tfdPUr7b4I+lfNr7Z6V8m+VmpdtD09tS/dvPqrL8cWj2fx0yfiej26NLLz4mfkPKx4jG7YGHR/PHM+HF1we8UcprnBY23xy8+EKwL0n5ffR/EOo3Qz0n1FkTE3J6fAHi1q1bjr3//e8zo3X7Bn9Q3Xb3kvLV92dV/4bfrP5N8d92cfVvtbZ+Vr3xdf5lP3jK4OMXz4vnKgxebt7Jod4ZNsc7nWzmVrzrpHyr4sVVxevpH6/q/VK+oO5dUjaeN1T///dUP/t4UUz8bfx45PD/fjlW8KJ1neG8OXp3hnqHlN8+uOww/vjFy91zFQYvS29mZvr+oeG8Y3wQkPw2czy8ul78tsF4mecUWWXk8vjFy9hzFQYva29qaurHpPxLtNZXsh5eDpoDnm8vPgNzqtQYOT5+8TL0XIXB8+LFF4/Fg4DlzRwPr64XG/+DpOZw8PjFy8VzFQbPm7c/1AelvF5qZTPHw6vjxfvsB0I9RNYwnD1+8ax7rsLgefXuIeXXni746FfJtzng+fXiBz+9LdQ+WeMw9HjD64vnKgyedy9+Le/LQl0peTYHPL/e1UVRvDrUMbKOYfTxhtcTL+nkeHhrGVNhDAaDZxfFxGWZNAc8v97l8dMcjznm6K1WHh94eGrDehi8/ninnfaA6dFo9MT4CXPhRwfEXnPA8+kdiPe5eN+L90Grjw88vFaH9TB4vfZ2SXl5IH6crqdmg2fHuyI+zb9x44aTMnx84OEt8pJOjoen4BXx/1zKtxHeIfk2GzwbXnxmKb6N7yn79p004+DxgYc35yWdHA9P2Ttayi+iuUTyaDZ4drz4rXznhrq7ofszHl6rXtLJ8fA68iakfD/2H4b6rsFmg2fD+26oP6ruK/E+Y/X+jIfXipd0cjy8FF78Lvr4PfShMVzlqHnhrc+L31wY37f/hFCDpe4v1u/PeHjr9VyFwcNbi3fqqadMxa/SlfJDhv5N8mteeOvzrpVDTX9Y9/5i/f6Mh7dWz1UYPLwGXmwEjwz1mlBfE7vNC2993iXVbfsIOewv/cOHk/szHt7aPVdh8PDW78UXED5DyncTXC++mmEfvFukfPV+fBHontVu7PEwdP/Dw6P54+EZ8OJfjA8MdW5oLl8OdVdmzbAv3rfjazviTR9qcq03suH7Hx6erucqDB6eordz544do9HozNBsXinlX5k/FHvN0Lv3o3gYiw1/OBw+bdu2rbus3l/w8Ex7rsLg4XXvxdcPxGcI4tPN8ZLB1ZJ3c7Xo3SjlYevceJPs3r1rc8b3Fzw8G56rMHh4Nrz4HvL4dbC/GOq8UB+V8j3mVpurNe+71ZqdV63hPuF9+Xh47XuuwuDhGfYGg8HWycnRGcPh4IXxqetQnwvN8GbJu1k38W4PdamUb8mL3+MQ35Z3dFe3Bx5e7z1XYfDwMvP27t0T/7LdHSp+HsHTQ7081FtCfTLUP4f6kdho1uvx4nX6fw4Hnb8L9dbBoDi3yviTVeai6fpZv33x8Ex7rsLg4fnz4od13EPK96/HtyX+eqjfCw31jaE+EOpTRTHxtdBor5LyL2rt5n9bqCtDfVXKQ8r7Qv2P+G+q/m3x3/iIDRtmTjr55BM3Glg/PDy8FX7ZTxg8PLzNofZKeWh4YFX7469W9aRQTwn1tFDPizUcDn4pvpJ+NBo+Nb67IdbExMHfGf/+PSpzs8G8eHh46/VchcHDw8PDw8OrjySbHA8PDw8PDy+pl3RyPDw8PDw8vO69pJPj4eHh4eHhde8lnRwPDw8PDw8vjZd0cjw8PDw8PLw0XtLJ8fDw8PDw8NJ4SSfHw8PDw8PDS+MlnRwPDw8PDw8vjecqDB4eHh4eHl49z1UYPDw8PDw8vHV6rsLg4eHh4eHh0fzx8PDw8PDwLE2Oh4eHh4eHR/PHw8PDw8PDU/ZchcHDw8PDw8Or57kKg4eHh4eHh1fPcxUGDw8PDw8Pr57nKgweHh4eHh5ePc9VGDw8PDw8PLzagJ8weHh4eHh4ePWRZJPj4eHh4eHhJfWSTo6Hh4eHh4fXvZd0cjw8PDw8PLzuvaST4+Hh4eHh4aXxkk6Oh4eHh4eHl8ZLOjkeHh4eHh5eGi/p5Hh4eHh4eHhpvKST4+Hh4eHh4aXxXIXBw8PDw8PDq+e5CoOHh4eHh4e3Ts9VGDw8PDw8PDyaPx4eHh4eHp6lyfHw8PDw8PBo/nh4eHh4eHjKnqsweHh4eHh4ePU8V2Hw8PDw8PDw6nmuwuDh4eHh4eHV81yFwcPDw8PDw6vnuQqDh4eHh4eHVxvwEwYPDw8PDw+vPpJscjw8PDw8PLykXtLJ8fDw8PDw8Lr3kk6Oh4eHh4eH172XdHI8PDw8PDy8NF7SyfHw8PDw8PDSeEknx8PDw8PDw0vjJZ0cDw8PDw8PL42XdHI8PDw8PDy8NJ6rMHh4eHh4eHj1PFdh8PDw8PDw8Op5/x+2ECC8RE5QmgAAAABJRU5ErkJggg==;rotation=310;fontFamily=Inconsolata;fontSource=https%3A%2F%2Ffonts.googleapis.com%2Fcss%3Ffamily%3DInconsolata;labelBackgroundColor=none;" parent="1" vertex="1">
          <mxGeometry x="790" y="470" width="22" height="22" as="geometry" />
        </mxCell>
        <mxCell id="OM572cekEQb-akaccsAw-148" style="rounded=0;orthogonalLoop=1;jettySize=auto;html=1;exitX=0.598;exitY=0.013;exitDx=0;exitDy=0;entryX=0;entryY=1;entryDx=0;entryDy=0;endArrow=none;endFill=0;fontFamily=Inconsolata;fontSource=https%3A%2F%2Ffonts.googleapis.com%2Fcss%3Ffamily%3DInconsolata;labelBackgroundColor=none;exitPerimeter=0;" parent="1" source="OM572cekEQb-akaccsAw-145" target="OM572cekEQb-akaccsAw-1" edge="1">
          <mxGeometry relative="1" as="geometry">
            <mxPoint x="600" y="560" as="targetPoint" />
          </mxGeometry>
        </mxCell>
        <mxCell id="OM572cekEQb-akaccsAw-145" value="Last_DDate" style="ellipse;whiteSpace=wrap;html=1;align=center;fillColor=none;fontFamily=Inconsolata;fontSource=https%3A%2F%2Ffonts.googleapis.com%2Fcss%3Ffamily%3DInconsolata;labelBackgroundColor=none;" parent="1" vertex="1">
          <mxGeometry x="610" y="600" width="100" height="40" as="geometry" />
        </mxCell>
        <mxCell id="OM572cekEQb-akaccsAw-150" value="" style="endArrow=none;html=1;rounded=0;fontFamily=Inconsolata;fontSource=https%3A%2F%2Ffonts.googleapis.com%2Fcss%3Ffamily%3DInconsolata;labelBackgroundColor=none;entryX=0;entryY=0.5;entryDx=0;entryDy=0;exitX=1;exitY=0.5;exitDx=0;exitDy=0;" parent="1" source="W_OnjFls6b9u1241AHmh-73" target="OM572cekEQb-akaccsAw-119" edge="1">
          <mxGeometry relative="1" as="geometry">
            <mxPoint x="510" y="700" as="sourcePoint" />
            <mxPoint x="589.44" y="650" as="targetPoint" />
            <Array as="points" />
          </mxGeometry>
        </mxCell>
        <mxCell id="OM572cekEQb-akaccsAw-151" value="N" style="resizable=0;html=1;whiteSpace=wrap;align=right;verticalAlign=bottom;fontFamily=Inconsolata;fontSource=https%3A%2F%2Ffonts.googleapis.com%2Fcss%3Ffamily%3DInconsolata;labelBackgroundColor=none;" parent="OM572cekEQb-akaccsAw-150" connectable="0" vertex="1">
          <mxGeometry x="1" relative="1" as="geometry">
            <mxPoint as="offset" />
          </mxGeometry>
        </mxCell>
        <mxCell id="OM572cekEQb-akaccsAw-156" value="Involves" style="shape=rhombus;perimeter=rhombusPerimeter;whiteSpace=wrap;html=1;align=center;fontFamily=Inconsolata;fontSource=https%3A%2F%2Ffonts.googleapis.com%2Fcss%3Ffamily%3DInconsolata;labelBackgroundColor=none;fillColor=none;" parent="1" vertex="1">
          <mxGeometry x="660" y="810" width="120" height="60" as="geometry" />
        </mxCell>
        <mxCell id="OM572cekEQb-akaccsAw-162" style="edgeStyle=orthogonalEdgeStyle;rounded=0;orthogonalLoop=1;jettySize=auto;html=1;exitX=1;exitY=0.5;exitDx=0;exitDy=0;entryX=0;entryY=1;entryDx=0;entryDy=0;endArrow=none;endFill=0;fontFamily=Inconsolata;fontSource=https%3A%2F%2Ffonts.googleapis.com%2Fcss%3Ffamily%3DInconsolata;labelBackgroundColor=none;" parent="1" source="OM572cekEQb-akaccsAw-158" target="OM572cekEQb-akaccsAw-100" edge="1">
          <mxGeometry relative="1" as="geometry">
            <Array as="points">
              <mxPoint x="690" y="1030" />
              <mxPoint x="690" y="1000" />
            </Array>
          </mxGeometry>
        </mxCell>
        <mxCell id="OM572cekEQb-akaccsAw-158" value="&lt;u&gt;Incident_ID&lt;/u&gt;" style="ellipse;whiteSpace=wrap;html=1;align=center;fontFamily=Inconsolata;fontSource=https%3A%2F%2Ffonts.googleapis.com%2Fcss%3Ffamily%3DInconsolata;labelBackgroundColor=none;fillColor=none;" parent="1" vertex="1">
          <mxGeometry x="580" y="1010" width="100" height="40" as="geometry" />
        </mxCell>
        <mxCell id="OM572cekEQb-akaccsAw-159" value="Description&lt;u&gt;&lt;br&gt;&lt;/u&gt;" style="ellipse;whiteSpace=wrap;html=1;align=center;fontFamily=Inconsolata;fontSource=https%3A%2F%2Ffonts.googleapis.com%2Fcss%3Ffamily%3DInconsolata;labelBackgroundColor=none;fillColor=none;" parent="1" vertex="1">
          <mxGeometry x="610" y="1060" width="100" height="40" as="geometry" />
        </mxCell>
        <mxCell id="OM572cekEQb-akaccsAw-165" style="edgeStyle=orthogonalEdgeStyle;rounded=0;orthogonalLoop=1;jettySize=auto;html=1;exitX=0;exitY=0.5;exitDx=0;exitDy=0;entryX=1;entryY=1;entryDx=0;entryDy=0;endArrow=none;endFill=0;fontFamily=Inconsolata;fontSource=https%3A%2F%2Ffonts.googleapis.com%2Fcss%3Ffamily%3DInconsolata;labelBackgroundColor=none;" parent="1" source="OM572cekEQb-akaccsAw-160" target="OM572cekEQb-akaccsAw-100" edge="1">
          <mxGeometry relative="1" as="geometry">
            <Array as="points">
              <mxPoint x="750" y="1030" />
              <mxPoint x="750" y="1000" />
            </Array>
          </mxGeometry>
        </mxCell>
        <mxCell id="OM572cekEQb-akaccsAw-160" value="&lt;span lang=&quot;en&quot; class=&quot;ILfuVd&quot;&gt;Significance&lt;br&gt;&lt;/span&gt;" style="ellipse;whiteSpace=wrap;html=1;align=center;fontFamily=Inconsolata;fontSource=https%3A%2F%2Ffonts.googleapis.com%2Fcss%3Ffamily%3DInconsolata;labelBackgroundColor=none;fillColor=none;" parent="1" vertex="1">
          <mxGeometry x="760" y="1010" width="100" height="40" as="geometry" />
        </mxCell>
        <mxCell id="OM572cekEQb-akaccsAw-164" style="edgeStyle=orthogonalEdgeStyle;rounded=0;orthogonalLoop=1;jettySize=auto;html=1;exitX=0;exitY=0.5;exitDx=0;exitDy=0;entryX=0.75;entryY=1;entryDx=0;entryDy=0;endArrow=none;endFill=0;fontFamily=Inconsolata;fontSource=https%3A%2F%2Ffonts.googleapis.com%2Fcss%3Ffamily%3DInconsolata;labelBackgroundColor=none;" parent="1" source="OM572cekEQb-akaccsAw-161" edge="1">
          <mxGeometry relative="1" as="geometry">
            <Array as="points">
              <mxPoint x="730" y="1080" />
            </Array>
            <mxPoint x="732.0046609406725" y="1065.857864376269" as="sourcePoint" />
            <mxPoint x="730.3600000000001" y="1000" as="targetPoint" />
          </mxGeometry>
        </mxCell>
        <mxCell id="OM572cekEQb-akaccsAw-161" value="Date" style="ellipse;whiteSpace=wrap;html=1;align=center;fontFamily=Inconsolata;fontSource=https%3A%2F%2Ffonts.googleapis.com%2Fcss%3Ffamily%3DInconsolata;labelBackgroundColor=none;fillColor=none;" parent="1" vertex="1">
          <mxGeometry x="729.44" y="1060" width="100" height="40" as="geometry" />
        </mxCell>
        <mxCell id="OM572cekEQb-akaccsAw-168" value="" style="endArrow=none;html=1;rounded=0;entryX=0.5;entryY=1;entryDx=0;entryDy=0;exitX=0.5;exitY=0;exitDx=0;exitDy=0;fontFamily=Inconsolata;fontSource=https%3A%2F%2Ffonts.googleapis.com%2Fcss%3Ffamily%3DInconsolata;labelBackgroundColor=none;" parent="1" source="OM572cekEQb-akaccsAw-100" target="OM572cekEQb-akaccsAw-156" edge="1">
          <mxGeometry relative="1" as="geometry">
            <mxPoint x="470" y="880" as="sourcePoint" />
            <mxPoint x="630" y="880" as="targetPoint" />
          </mxGeometry>
        </mxCell>
        <mxCell id="OM572cekEQb-akaccsAw-169" value="N" style="resizable=0;html=1;whiteSpace=wrap;align=right;verticalAlign=bottom;fontFamily=Inconsolata;fontSource=https%3A%2F%2Ffonts.googleapis.com%2Fcss%3Ffamily%3DInconsolata;labelBackgroundColor=none;" parent="OM572cekEQb-akaccsAw-168" connectable="0" vertex="1">
          <mxGeometry x="1" relative="1" as="geometry">
            <mxPoint x="-3" y="20" as="offset" />
          </mxGeometry>
        </mxCell>
        <mxCell id="W_OnjFls6b9u1241AHmh-30" style="edgeStyle=orthogonalEdgeStyle;rounded=0;orthogonalLoop=1;jettySize=auto;html=1;exitX=0.5;exitY=1;exitDx=0;exitDy=0;entryX=0.5;entryY=0;entryDx=0;entryDy=0;endArrow=none;endFill=0;" parent="1" source="W_OnjFls6b9u1241AHmh-9" target="W_OnjFls6b9u1241AHmh-24" edge="1">
          <mxGeometry relative="1" as="geometry" />
        </mxCell>
        <mxCell id="W_OnjFls6b9u1241AHmh-31" style="edgeStyle=orthogonalEdgeStyle;rounded=0;orthogonalLoop=1;jettySize=auto;html=1;exitX=1;exitY=1;exitDx=0;exitDy=0;entryX=0.5;entryY=0;entryDx=0;entryDy=0;endArrow=none;endFill=0;" parent="1" source="W_OnjFls6b9u1241AHmh-9" target="W_OnjFls6b9u1241AHmh-23" edge="1">
          <mxGeometry relative="1" as="geometry">
            <Array as="points">
              <mxPoint x="1110" y="1000" />
            </Array>
          </mxGeometry>
        </mxCell>
        <mxCell id="W_OnjFls6b9u1241AHmh-32" style="edgeStyle=orthogonalEdgeStyle;rounded=0;orthogonalLoop=1;jettySize=auto;html=1;exitX=0;exitY=1;exitDx=0;exitDy=0;entryX=0.5;entryY=0;entryDx=0;entryDy=0;endArrow=none;endFill=0;" parent="1" source="W_OnjFls6b9u1241AHmh-9" target="W_OnjFls6b9u1241AHmh-25" edge="1">
          <mxGeometry relative="1" as="geometry">
            <Array as="points">
              <mxPoint x="990" y="1000" />
            </Array>
          </mxGeometry>
        </mxCell>
        <mxCell id="W_OnjFls6b9u1241AHmh-9" value="Inventory" style="whiteSpace=wrap;html=1;align=center;fontFamily=Inconsolata;fontSource=https%3A%2F%2Ffonts.googleapis.com%2Fcss%3Ffamily%3DInconsolata;labelBackgroundColor=none;fillColor=none;rounded=0;" parent="1" vertex="1">
          <mxGeometry x="1000" y="960" width="100" height="40" as="geometry" />
        </mxCell>
        <mxCell id="W_OnjFls6b9u1241AHmh-12" value="Stored_In" style="shape=rhombus;perimeter=rhombusPerimeter;whiteSpace=wrap;html=1;align=center;fontFamily=Inconsolata;fontSource=https%3A%2F%2Ffonts.googleapis.com%2Fcss%3Ffamily%3DInconsolata;labelBackgroundColor=none;fillColor=none;" parent="1" vertex="1">
          <mxGeometry x="990" y="810" width="120" height="60" as="geometry" />
        </mxCell>
        <mxCell id="W_OnjFls6b9u1241AHmh-13" value="" style="shape=link;html=1;rounded=0;exitX=0.5;exitY=1;exitDx=0;exitDy=0;entryX=0.5;entryY=0;entryDx=0;entryDy=0;fontFamily=Inconsolata;fontSource=https%3A%2F%2Ffonts.googleapis.com%2Fcss%3Ffamily%3DInconsolata;labelBackgroundColor=none;" parent="1" source="OM572cekEQb-akaccsAw-57" target="W_OnjFls6b9u1241AHmh-12" edge="1">
          <mxGeometry relative="1" as="geometry">
            <mxPoint x="1169.66" y="900" as="sourcePoint" />
            <mxPoint x="1169.66" y="810" as="targetPoint" />
          </mxGeometry>
        </mxCell>
        <mxCell id="W_OnjFls6b9u1241AHmh-14" value="N" style="resizable=0;html=1;whiteSpace=wrap;align=right;verticalAlign=bottom;fontFamily=Inconsolata;fontSource=https%3A%2F%2Ffonts.googleapis.com%2Fcss%3Ffamily%3DInconsolata;labelBackgroundColor=none;" parent="W_OnjFls6b9u1241AHmh-13" connectable="0" vertex="1">
          <mxGeometry x="1" relative="1" as="geometry">
            <mxPoint x="-10" as="offset" />
          </mxGeometry>
        </mxCell>
        <mxCell id="W_OnjFls6b9u1241AHmh-15" value="" style="shape=link;html=1;rounded=0;entryX=0.5;entryY=1;entryDx=0;entryDy=0;exitX=0.5;exitY=0;exitDx=0;exitDy=0;" parent="1" source="W_OnjFls6b9u1241AHmh-9" target="W_OnjFls6b9u1241AHmh-12" edge="1">
          <mxGeometry relative="1" as="geometry">
            <mxPoint x="880" y="890" as="sourcePoint" />
            <mxPoint x="1040" y="890" as="targetPoint" />
          </mxGeometry>
        </mxCell>
        <mxCell id="W_OnjFls6b9u1241AHmh-16" value="1" style="resizable=0;html=1;whiteSpace=wrap;align=right;verticalAlign=bottom;" parent="W_OnjFls6b9u1241AHmh-15" connectable="0" vertex="1">
          <mxGeometry x="1" relative="1" as="geometry">
            <mxPoint x="20" y="10" as="offset" />
          </mxGeometry>
        </mxCell>
        <mxCell id="W_OnjFls6b9u1241AHmh-23" value="&lt;u&gt;Inv_ID&lt;/u&gt;" style="ellipse;whiteSpace=wrap;html=1;align=center;fontFamily=Inconsolata;fontSource=https%3A%2F%2Ffonts.googleapis.com%2Fcss%3Ffamily%3DInconsolata;labelBackgroundColor=none;fillColor=none;" parent="1" vertex="1">
          <mxGeometry x="1060" y="1060" width="100" height="40" as="geometry" />
        </mxCell>
        <mxCell id="W_OnjFls6b9u1241AHmh-24" value="&lt;span lang=&quot;en&quot; class=&quot;ILfuVd&quot;&gt;Address&lt;br&gt;&lt;/span&gt;" style="ellipse;whiteSpace=wrap;html=1;align=center;fontFamily=Inconsolata;fontSource=https%3A%2F%2Ffonts.googleapis.com%2Fcss%3Ffamily%3DInconsolata;labelBackgroundColor=none;fillColor=none;" parent="1" vertex="1">
          <mxGeometry x="1000" y="1010" width="100" height="40" as="geometry" />
        </mxCell>
        <mxCell id="W_OnjFls6b9u1241AHmh-25" value="&lt;span lang=&quot;en&quot; class=&quot;ILfuVd&quot;&gt;Bags_Number&lt;br&gt;&lt;/span&gt;" style="ellipse;whiteSpace=wrap;html=1;align=center;fontFamily=Inconsolata;fontSource=https%3A%2F%2Ffonts.googleapis.com%2Fcss%3Ffamily%3DInconsolata;labelBackgroundColor=none;fillColor=none;" parent="1" vertex="1">
          <mxGeometry x="940" y="1060" width="100" height="40" as="geometry" />
        </mxCell>
        <mxCell id="W_OnjFls6b9u1241AHmh-38" style="edgeStyle=orthogonalEdgeStyle;rounded=0;orthogonalLoop=1;jettySize=auto;html=1;exitX=1;exitY=0.5;exitDx=0;exitDy=0;entryX=0;entryY=0.5;entryDx=0;entryDy=0;endArrow=none;endFill=0;" parent="1" source="W_OnjFls6b9u1241AHmh-34" target="W_OnjFls6b9u1241AHmh-37" edge="1">
          <mxGeometry relative="1" as="geometry" />
        </mxCell>
        <mxCell id="W_OnjFls6b9u1241AHmh-39" style="edgeStyle=orthogonalEdgeStyle;rounded=0;orthogonalLoop=1;jettySize=auto;html=1;exitX=0.5;exitY=0;exitDx=0;exitDy=0;entryX=0;entryY=0.5;entryDx=0;entryDy=0;endArrow=none;endFill=0;" parent="1" source="W_OnjFls6b9u1241AHmh-34" target="W_OnjFls6b9u1241AHmh-35" edge="1">
          <mxGeometry relative="1" as="geometry">
            <Array as="points">
              <mxPoint x="1170" y="810" />
            </Array>
          </mxGeometry>
        </mxCell>
        <mxCell id="W_OnjFls6b9u1241AHmh-40" style="edgeStyle=orthogonalEdgeStyle;rounded=0;orthogonalLoop=1;jettySize=auto;html=1;exitX=0.5;exitY=1;exitDx=0;exitDy=0;entryX=0;entryY=0.5;entryDx=0;entryDy=0;endArrow=none;endFill=0;" parent="1" source="W_OnjFls6b9u1241AHmh-34" target="W_OnjFls6b9u1241AHmh-36" edge="1">
          <mxGeometry relative="1" as="geometry">
            <Array as="points">
              <mxPoint x="1170" y="870" />
            </Array>
          </mxGeometry>
        </mxCell>
        <mxCell id="W_OnjFls6b9u1241AHmh-34" value="Location" style="ellipse;whiteSpace=wrap;html=1;align=center;fontFamily=Inconsolata;fontSource=https%3A%2F%2Ffonts.googleapis.com%2Fcss%3Ffamily%3DInconsolata;labelBackgroundColor=none;fillColor=none;" parent="1" vertex="1">
          <mxGeometry x="1120" y="820" width="100" height="40" as="geometry" />
        </mxCell>
        <mxCell id="W_OnjFls6b9u1241AHmh-35" value="Room" style="ellipse;whiteSpace=wrap;html=1;align=center;fontFamily=Inconsolata;fontSource=https%3A%2F%2Ffonts.googleapis.com%2Fcss%3Ffamily%3DInconsolata;labelBackgroundColor=none;fillColor=none;" parent="1" vertex="1">
          <mxGeometry x="1200" y="790" width="100" height="40" as="geometry" />
        </mxCell>
        <mxCell id="W_OnjFls6b9u1241AHmh-36" value="Rack" style="ellipse;whiteSpace=wrap;html=1;align=center;fontFamily=Inconsolata;fontSource=https%3A%2F%2Ffonts.googleapis.com%2Fcss%3Ffamily%3DInconsolata;labelBackgroundColor=none;fillColor=none;" parent="1" vertex="1">
          <mxGeometry x="1200" y="850" width="100" height="40" as="geometry" />
        </mxCell>
        <mxCell id="W_OnjFls6b9u1241AHmh-37" value="Drawer" style="ellipse;whiteSpace=wrap;html=1;align=center;fontFamily=Inconsolata;fontSource=https%3A%2F%2Ffonts.googleapis.com%2Fcss%3Ffamily%3DInconsolata;labelBackgroundColor=none;fillColor=none;" parent="1" vertex="1">
          <mxGeometry x="1290" y="820" width="100" height="40" as="geometry" />
        </mxCell>
        <mxCell id="W_OnjFls6b9u1241AHmh-41" style="edgeStyle=orthogonalEdgeStyle;rounded=0;orthogonalLoop=1;jettySize=auto;html=1;exitX=1;exitY=0.5;exitDx=0;exitDy=0;entryX=0;entryY=0.5;entryDx=0;entryDy=0;endArrow=none;endFill=0;" parent="1" source="W_OnjFls6b9u1241AHmh-12" target="W_OnjFls6b9u1241AHmh-34" edge="1">
          <mxGeometry relative="1" as="geometry" />
        </mxCell>
        <mxCell id="W_OnjFls6b9u1241AHmh-43" style="edgeStyle=orthogonalEdgeStyle;rounded=0;orthogonalLoop=1;jettySize=auto;html=1;exitX=1;exitY=0.5;exitDx=0;exitDy=0;entryX=0;entryY=0.5;entryDx=0;entryDy=0;endArrow=none;endFill=0;" parent="1" source="W_OnjFls6b9u1241AHmh-42" target="OM572cekEQb-akaccsAw-41" edge="1">
          <mxGeometry relative="1" as="geometry">
            <Array as="points">
              <mxPoint x="320" y="430" />
              <mxPoint x="340" y="430" />
            </Array>
          </mxGeometry>
        </mxCell>
        <mxCell id="W_OnjFls6b9u1241AHmh-42" value="Major_Diseases" style="ellipse;whiteSpace=wrap;html=1;align=center;fontFamily=Inconsolata;fontSource=https%3A%2F%2Ffonts.googleapis.com%2Fcss%3Ffamily%3DInconsolata;labelBackgroundColor=none;fillColor=none;" parent="1" vertex="1">
          <mxGeometry x="220" y="420" width="100" height="40" as="geometry" />
        </mxCell>
        <mxCell id="W_OnjFls6b9u1241AHmh-56" value="" style="shape=link;html=1;rounded=0;exitX=0.5;exitY=1;exitDx=0;exitDy=0;entryX=0.5;entryY=0;entryDx=0;entryDy=0;fontFamily=Inconsolata;fontSource=https%3A%2F%2Ffonts.googleapis.com%2Fcss%3Ffamily%3DInconsolata;labelBackgroundColor=none;" parent="1" source="OM572cekEQb-akaccsAw-1" target="OM572cekEQb-akaccsAw-119" edge="1">
          <mxGeometry relative="1" as="geometry">
            <mxPoint x="692.66" y="610" as="sourcePoint" />
            <mxPoint x="692" y="650" as="targetPoint" />
          </mxGeometry>
        </mxCell>
        <mxCell id="W_OnjFls6b9u1241AHmh-57" value="M" style="resizable=0;html=1;whiteSpace=wrap;align=right;verticalAlign=bottom;fontFamily=Inconsolata;fontSource=https%3A%2F%2Ffonts.googleapis.com%2Fcss%3Ffamily%3DInconsolata;labelBackgroundColor=none;" parent="W_OnjFls6b9u1241AHmh-56" connectable="0" vertex="1">
          <mxGeometry x="1" relative="1" as="geometry">
            <mxPoint x="20" as="offset" />
          </mxGeometry>
        </mxCell>
        <mxCell id="W_OnjFls6b9u1241AHmh-59" value="Produce" style="shape=rhombus;perimeter=rhombusPerimeter;whiteSpace=wrap;html=1;align=center;fontFamily=Inconsolata;fontSource=https%3A%2F%2Ffonts.googleapis.com%2Fcss%3Ffamily%3DInconsolata;labelBackgroundColor=none;fillColor=none;" parent="1" vertex="1">
          <mxGeometry x="820" y="390.5" width="120" height="60" as="geometry" />
        </mxCell>
        <mxCell id="fi6M-Fa2wv0ImvNQl4bt-14" style="edgeStyle=orthogonalEdgeStyle;rounded=0;orthogonalLoop=1;jettySize=auto;html=1;exitX=1;exitY=0.5;exitDx=0;exitDy=0;entryX=0;entryY=0.5;entryDx=0;entryDy=0;endArrow=none;endFill=0;" edge="1" parent="1" source="W_OnjFls6b9u1241AHmh-60" target="OM572cekEQb-akaccsAw-38">
          <mxGeometry relative="1" as="geometry" />
        </mxCell>
        <mxCell id="W_OnjFls6b9u1241AHmh-60" value="&lt;font data-font-src=&quot;https://fonts.googleapis.com/css?family=Inconsolata&quot;&gt;Blood_Type&lt;/font&gt;" style="whiteSpace=wrap;html=1;align=center;fontFamily=Inconsolata;fontSource=https%3A%2F%2Ffonts.googleapis.com%2Fcss%3Ffamily%3DInconsolata;labelBackgroundColor=none;fillColor=none;rounded=0;" parent="1" vertex="1">
          <mxGeometry x="1000" y="400.5" width="100" height="40" as="geometry" />
        </mxCell>
        <mxCell id="W_OnjFls6b9u1241AHmh-63" value="" style="endArrow=none;html=1;rounded=0;exitX=0;exitY=0.75;exitDx=0;exitDy=0;fontFamily=Inconsolata;fontSource=https%3A%2F%2Ffonts.googleapis.com%2Fcss%3Ffamily%3DInconsolata;labelBackgroundColor=none;" parent="1" source="OM572cekEQb-akaccsAw-57" edge="1">
          <mxGeometry relative="1" as="geometry">
            <mxPoint x="927.9999999999998" y="710" as="sourcePoint" />
            <mxPoint x="720" y="810" as="targetPoint" />
            <Array as="points">
              <mxPoint x="800" y="710" />
              <mxPoint x="800" y="740" />
              <mxPoint x="720" y="740" />
              <mxPoint x="720" y="810" />
            </Array>
          </mxGeometry>
        </mxCell>
        <mxCell id="W_OnjFls6b9u1241AHmh-64" value="L" style="resizable=0;html=1;whiteSpace=wrap;align=right;verticalAlign=bottom;fontFamily=Inconsolata;fontSource=https%3A%2F%2Ffonts.googleapis.com%2Fcss%3Ffamily%3DInconsolata;labelBackgroundColor=none;" parent="W_OnjFls6b9u1241AHmh-63" connectable="0" vertex="1">
          <mxGeometry x="1" relative="1" as="geometry">
            <mxPoint x="12" as="offset" />
          </mxGeometry>
        </mxCell>
        <mxCell id="W_OnjFls6b9u1241AHmh-76" style="edgeStyle=orthogonalEdgeStyle;rounded=0;orthogonalLoop=1;jettySize=auto;html=1;exitX=0.75;exitY=1;exitDx=0;exitDy=0;entryX=1;entryY=0.5;entryDx=0;entryDy=0;endArrow=none;endFill=0;" parent="1" source="W_OnjFls6b9u1241AHmh-66" target="W_OnjFls6b9u1241AHmh-70" edge="1">
          <mxGeometry relative="1" as="geometry" />
        </mxCell>
        <mxCell id="W_OnjFls6b9u1241AHmh-66" value="Collection_Drive" style="whiteSpace=wrap;html=1;align=center;fontFamily=Inconsolata;fontSource=https%3A%2F%2Ffonts.googleapis.com%2Fcss%3Ffamily%3DInconsolata;labelBackgroundColor=none;fillColor=none;" parent="1" vertex="1">
          <mxGeometry x="270" y="820" width="100" height="40" as="geometry" />
        </mxCell>
        <mxCell id="W_OnjFls6b9u1241AHmh-70" value="Scheduled_Date" style="ellipse;whiteSpace=wrap;html=1;align=center;fontFamily=Inconsolata;fontSource=https%3A%2F%2Ffonts.googleapis.com%2Fcss%3Ffamily%3DInconsolata;labelBackgroundColor=none;fillColor=none;" parent="1" vertex="1">
          <mxGeometry x="250" y="870" width="100" height="40" as="geometry" />
        </mxCell>
        <mxCell id="W_OnjFls6b9u1241AHmh-72" value="Blood_BQuantity" style="ellipse;whiteSpace=wrap;html=1;align=center;fontFamily=Inconsolata;fontSource=https%3A%2F%2Ffonts.googleapis.com%2Fcss%3Ffamily%3DInconsolata;labelBackgroundColor=none;fillColor=none;" parent="1" vertex="1">
          <mxGeometry x="250" y="920" width="100" height="40" as="geometry" />
        </mxCell>
        <mxCell id="W_OnjFls6b9u1241AHmh-73" value="Donation_Location" style="whiteSpace=wrap;html=1;align=center;fontFamily=Inconsolata;fontSource=https%3A%2F%2Ffonts.googleapis.com%2Fcss%3Ffamily%3DInconsolata;labelBackgroundColor=none;fillColor=none;" parent="1" vertex="1">
          <mxGeometry x="339.44000000000005" y="680" width="100" height="40" as="geometry" />
        </mxCell>
        <mxCell id="W_OnjFls6b9u1241AHmh-75" style="edgeStyle=orthogonalEdgeStyle;rounded=0;orthogonalLoop=1;jettySize=auto;html=1;exitX=1;exitY=0.5;exitDx=0;exitDy=0;entryX=0;entryY=0.5;entryDx=0;entryDy=0;endArrow=none;endFill=0;" parent="1" source="W_OnjFls6b9u1241AHmh-74" target="W_OnjFls6b9u1241AHmh-73" edge="1">
          <mxGeometry relative="1" as="geometry" />
        </mxCell>
        <mxCell id="W_OnjFls6b9u1241AHmh-74" value="&lt;u&gt;Session_ID&lt;/u&gt;" style="ellipse;whiteSpace=wrap;html=1;align=center;fontFamily=Inconsolata;fontSource=https%3A%2F%2Ffonts.googleapis.com%2Fcss%3Ffamily%3DInconsolata;labelBackgroundColor=none;fillColor=none;" parent="1" vertex="1">
          <mxGeometry x="220" y="660" width="100" height="40" as="geometry" />
        </mxCell>
        <mxCell id="W_OnjFls6b9u1241AHmh-78" style="edgeStyle=orthogonalEdgeStyle;rounded=0;orthogonalLoop=1;jettySize=auto;html=1;exitX=1;exitY=0.5;exitDx=0;exitDy=0;entryX=0.904;entryY=0.987;entryDx=0;entryDy=0;entryPerimeter=0;endArrow=none;endFill=0;" parent="1" source="W_OnjFls6b9u1241AHmh-72" target="W_OnjFls6b9u1241AHmh-66" edge="1">
          <mxGeometry relative="1" as="geometry">
            <Array as="points">
              <mxPoint x="360" y="940" />
              <mxPoint x="360" y="890" />
            </Array>
          </mxGeometry>
        </mxCell>
        <mxCell id="W_OnjFls6b9u1241AHmh-81" value="CName" style="ellipse;whiteSpace=wrap;html=1;align=center;fontFamily=Inconsolata;fontSource=https%3A%2F%2Ffonts.googleapis.com%2Fcss%3Ffamily%3DInconsolata;labelBackgroundColor=none;fillColor=none;" parent="1" vertex="1">
          <mxGeometry x="439.44" y="870" width="100" height="40" as="geometry" />
        </mxCell>
        <mxCell id="W_OnjFls6b9u1241AHmh-83" style="rounded=0;orthogonalLoop=1;jettySize=auto;html=1;exitX=0.5;exitY=1;exitDx=0;exitDy=0;entryX=0.5;entryY=0;entryDx=0;entryDy=0;endArrow=none;endFill=0;fontFamily=Inconsolata;fontSource=https%3A%2F%2Ffonts.googleapis.com%2Fcss%3Ffamily%3DInconsolata;labelBackgroundColor=none;" parent="1" target="W_OnjFls6b9u1241AHmh-66" edge="1">
          <mxGeometry relative="1" as="geometry">
            <mxPoint x="380.00000000000006" y="770.026279441629" as="sourcePoint" />
            <mxPoint x="354.5" y="820" as="targetPoint" />
          </mxGeometry>
        </mxCell>
        <mxCell id="W_OnjFls6b9u1241AHmh-85" value="&lt;b&gt;d&lt;/b&gt;" style="ellipse;whiteSpace=wrap;html=1;aspect=fixed;fontFamily=Inconsolata;fontSource=https%3A%2F%2Ffonts.googleapis.com%2Fcss%3Ffamily%3DInconsolata;labelBackgroundColor=none;fillColor=none;" parent="1" vertex="1">
          <mxGeometry x="377.44" y="750" width="24" height="24" as="geometry" />
        </mxCell>
        <mxCell id="W_OnjFls6b9u1241AHmh-86" value="" style="shape=link;html=1;rounded=0;exitX=0.5;exitY=1;exitDx=0;exitDy=0;entryX=0.5;entryY=0;entryDx=0;entryDy=0;fontFamily=Inconsolata;fontSource=https%3A%2F%2Ffonts.googleapis.com%2Fcss%3Ffamily%3DInconsolata;labelBackgroundColor=none;" parent="1" target="W_OnjFls6b9u1241AHmh-85" edge="1">
          <mxGeometry relative="1" as="geometry">
            <mxPoint x="389.44" y="720" as="sourcePoint" />
            <mxPoint x="389.44" y="735" as="targetPoint" />
          </mxGeometry>
        </mxCell>
        <mxCell id="W_OnjFls6b9u1241AHmh-92" value="" style="shape=image;verticalLabelPosition=bottom;verticalAlign=top;imageAspect=0;aspect=fixed;image=data:image/png,iVBORw0KGgoAAAANSUhEUgAAAgAAAAIACAYAAAD0eNT6AAAACXBIWXMAAAsTAAALEwEAmpwYAAAgAElEQVR4nO3dCbxlV1Xn8fXOvfcNNSdVlZBKUamQgWKMhCBYRAlzUDABhBaVMchgt9gigvrphjTqp8PgAA7dwIcmjEFmROkWpJEpQAhKExIGg6gkERIyJ5KESl7vXefcV+/Vm85756yz117ntz+f9ekOz/fd9d/33r32u+cO8qhHnTEZahRK1jPi71W/Pzmv8PDw8PDw8Cx7rsLg4eHh4eHh1UeSTY6Hh4eHh4eX1Es6OR4eHh4eHl73XtLJ8fDw8PDw8Lr3kk6Oh4eHh4eHl8ZLOjkeHh4eHh5eGi/p5Hh4eHh4eHhpvKST4+Hh4eHh4aXxkk6Oh4eHh4eHl8ZzFQYPDw8PDw+vnucqDB4eHh4eHt46PVdh8PDw8PDw8Gj+eHh4eHh4eJYmx8PDw8PDw6P54+Hh4eHh4Sl7rsLg4eHh4eHh1fNchcHDw8PDw8Or57kKg4eHh4eHh1fPcxUGDw8PDw8Pr57nKgweHh4eHh5ebcBPGDw8PDw8PLz6SLLJ8fDw8PDw8JJ6SSfHw8PDw8PD695LOjkeHh4eHh5e917SyfHw8PDw8PDSeEknx8PDw8PDw0vjJZ0cDw8PDw8PL42XdHI8PDw8PDy8NF7SyfHw8PDw8PDSeK7C4OHh4eHh4dXzXIXBw8PDw8PDW6fnKgweHh4eHh4ezR8PDw8PDw/P0uR4eHh4eHh4NH88PDw8PDw8Zc9VGDw8PDw8PLx6nqsweHh4eHh4ePU8V2Hw8PDw8PDw6nmuwuDh4eHh4eHV81yFwcPDw8PDw6sN+AmDh4eHh4eHVx9JNjkeHh4eHh5eUi/p5Hh4eHh4eHjde0knx8PDw8PDw+veSzo5Hh4eHh4eXhov6eR4eHh4eHh4abykk+Ph4eHh4eGl8ZJOjoeHh4eHh5fGSzo5Hh4eHh4eXhrPVRg8PDw8PDy8ep6rMGvw9oQ6M9Q5VZ25ceOGEwz9+/Dw8PDwFLyJiYk9o9Hw8cPh4HmxRqPR46v938S/L6nnKszCcXSoV4S6PNTs/Ap3iHFdPhgMXrl586bdDvLi4eHh4ZVjbv+ft9/PlZS94PLq/+boBP++9J6rMIdGEeqloW6Wwxq/LGz+8+8MN1e/U3Tw78PDw8PD0/EW7P8rNP/5VWv/N5p3fZ6rMIfG5lAfkyUav9S7M3ysMnLJi4eHh4dXjgX7f83mX2v/N5p3fZ6rMIfGhlBfkPU3/3F9obKs58XDw8PDK8eC/X8dzX/Z/d9o3vV5rsIsHO+U5s1/XO/MIC8eHh4eXjnm9v8GzX/R/m847/o8V2EOjbOkveY/rrMM58XDw8PDK8fc/t9C85/b/w3nXb/nKkw5JkJdIu02/1iXybwXhRjKi4eHh4dXjrn9v8Xmf3D/P/XUU6YM5m3muQpTjodL+81/XA83mBcPDw8PrxwH9/+Wm//B35+cHD3aYN5mnqsw5Xi96DT/WK83mBcPDw8Prxyv12j+sYqi+FNreRt7rsKU40ui0/xjXWQwLx4eHh5e+L2wv1+s0fyrA8CXrOVt7LkKU45rRaf5x9+/1mBePDw8PLzw+3GP1mj+VV1rLW9bXtLJW/YOiNI1oFAHDObFw8PDwwtO3KOVmn/83w9Yy9uGl3RyhTBazf9gWcuLh4eHh1dais1/XKbyNvWSTq7haTb/6gBgKi8eHh4e3qEDgOg1/zUdAHJYv6STa3iazb86AJjKi4eHh4dXeqLb/GsfAHJZv6STa3iazV/W8RSQdl48PDw8vDlPs/nX2v9zWr+kk2t4XAPCw8PD662n2fxX3f9zW7+kk2t4XAPCw8PD662n2fxX3P9zXD9XYeJ/C9eA8PDw8PrqaTb/Zff/XNfPVZjK02z+tQ4Ama8fHh4eXq6eZvNfcv93tX4Owmg2/1UPAA7WDw8PDy9XT7P5L9r/DeRtz3MSRrP5r3gAcLJ+eHh4eLl6ms1/wf5vJG87nqMwms1/2QOAo/XDw8PDy9XTbP5z+7+hvM09V2F0m/+SBwBn64eHh4eXq6fZ/GcN5m3muQpTDs3mv+gAYCAvHh4eHl45NJv/rMG8zTxXYcqh2fwXHACM5MXDw8PDK4da85fyAGAtbzPPVZhyaDb/uQOAobx4eHh4eOVQa/7x9w3mbea5ClMOzeY/azAvHh4eHl451Jr/YQcAK3mbea7ClINrQHh4eHg99ESx+c87AJjJ29hzFaYcXAPCw8PD66Gn2fyrA4CpvI09V2HKwTUgPDw8vB56ms2/2v9N5W3LSzp5yx7XgPDw8PB66Gk2/+pnpvK24SWdXCEM14Dw8PDweugpN/81HwCsr1/SyTU8rgHh4eHh9dNTbv5rOgDksH5JJ9fwuAaEh4eH109PdJt/7QNALuuXdHINj2tAeHh4eL31NJt/rf0/p/VLOrmGxzUgPDw8vN56ms1/1f0/t/VLOrmGxzUgPDw8vN56ms1/xf0/x/VzFSb+t3ANCA8PD6+vnmbzX3b/z3X9XIWpPM3mX+sAkPn64eHh4eXqaTb/Jfd/V+vnIIxm81/1AOBg/fDw8PBy9TSb/6L930De9jwnYTSb/4oHACfrh4eHh5erp9n8F+z/RvK24zkKo9n8lz0AOFo/PDw8vFw9zeY/t/8bytvccxVGt/kveQBwtn54eHh4uXqazX/WYN5mnqsw5dBs/osOAAby4uHh4eGVQ7P5zxrM28xzFaYcms1/wQHASF48PDw8vHKoNX8pDwDW8jbzXIUph2bznzsAGMqLh4eHh1cOteYff99g3maeqzDl0Gz+swbz4uHh4eGVQ635H3YAsJK3mecqTDm4BoSHh4fXQ08Um/+8A4CZvI09V2HKwTUgPDw8vB56ms2/OgCYytvYcxWmHFwDwsPDw+uhp9n8q/3fVN62vKSTt+xxDQgPDw+vh55m869+ZipvG17SyRXCcA0IDw8Pr4eecvNf8wHA+volnVzD4xoQHh4eXj895ea/pgNADuuXdHINj2tAeHh4eP30RLf51z4A5LJ+SSfX8LgGhIeHh9dbT7P519r/c1q/pJNreFwDwsPDw+utp9n8V93/c1u/pJNreFwDwsPDw+utp9n8V9z/c1w/V2HifwvXgPDw8PD66mk2/2X3/1zXz1WYytNs/rUOAJmvHx4eHl6unmbzX3L/d7V+DsJoNv9VDwAO1g8PDw8vV0+z+S/a/w3kbc9zEkaz+a94AHCyfnh4eHi5eprNf8H+byRvO56jMJrNf9kDgKP1w8PDw8vV02z+c/u/obzNPVdhdJv/kgcAZ+uHh4eHl6un2fxnDeZt5rkKUw7N5r/oAGAgLx4eHh5eOTSb/6zBvM08V2HKodn8FxwAjOTFw8PDwyuHWvOX8gBgLW8zz1WYcmg2/7kDgKG8eHh4eHjlUGv+8fcN5m3muQpTDs3mP2swLx4eHh5eOdSa/2EHACt5m3muwpSDa0B4eHh4PfREsfnPOwCYydvYcxWmHFwDwsPDw+uhp9n8qwOAqbyNPVdhysE1IDw8PLweeprNv9r/TeVty0s6ecse14Dw8PDweuhpNv/qZ6bytuElnVwhDNeA8PDw8HroKTf/NR8ArK9f0sk1PK4B4eHh4fXTU27+azoA5LB+SSfX8LgGhIeHh9dPT3Sbf+0DQC7rl3RyDY9rQHh4eHi99TSbf639P6f1Szq5hsc1IDw8PLzeeprNf9X9P7f1Szq5hsc1IDw8PLzeeprNf8X9P8f1cxUm/rdwDQgPDw+vr55m8192/891/VyFqTzN5l/rAJD5+uHh4eHl6mk2/yX3f1fr5yCMZvNf9QDgYP3w8PDwcvU0m/+i/d9A3vY8J2E0m/+KBwAn64eHh4eXq6fZ/Bfs/0bytuM5CqPZ/Jc9ADhaPzw8PLxcPc3mP7f/G8rb3HMVRrf5L3kAcLZ+eHh4eLl6ms1/1mDeZp6rMOXQbP6LDgAG8uLh4eHhlUOz+c8azNvMcxWmHJrNf8EBwEhePDw8PLxyqDV/KQ8A1vI281yFKYdm8587ABjKi4eHh4dXDrXmH3/fYN5mnqsw5dBs/rMG8+Lh4eHhlUOt+R92ALCSt5nnKkw5uAaEh4eH10NPFJv/vAOAmbyNPVdhysE1IDw8PLweeprNvzoAmMrb2HMVphxcA8LDw8ProafZ/Kv931Tetrykk7fscQ0IDw8Pr4eeZvOvfmYqbxte0skVwnANCA8PD6+HnnLzX/MBwPr6JZ1cw+MaEB4eHl4/PeXmv6YDQA7rl3RyDY9rQHh4eHj99ES3+dc+AOSyfkkn1/C4BoSHh4fXW0+z+dfa/3Nav6STa3hcA8LDw8PrrafZ/Ffd/3Nbv6STa3hcA8LDw8PrrafZ/Ffc/3NcP1dh4n8L14Dw8PDw+uppNv9l9/9c189VmMrTbP61DgCZrx8eHh5erp5m819y/3e1fg7CaDb/VQ8ADtYPDw8PL1dPs/kv2v8N5G3PcxJGs/mveABwsn54eHh4uXqazX/B/m8kbzueozCazX/ZA4Cj9cPDw8PL1dNs/nP7v6G8zT1XYXSb/5IHAGfrh4eHh5erp9n8Zw3mbea5ClMOzea/6ABgIC8eHh4eXjk0m/+swbzNPFdhyqHZ/BccAIzkxcPDw8Mrh1rzl/IAYC1vM89VmHJoNv+5A4ChvHh4eHh45VBr/vH3DeZt5rkKUw7N5j9rMC8eHh4eXjnUmv9hBwAreZt5rsKUg2tAeHh4eD30RLH5zzsAmMnb2HMVphxcA8LDw8ProafZ/KsDgKm8jT1XYcrBNSA8PDy8Hnqazb/a/03lbctLOnnLHteA8PDw8HroaTb/6mem8rbhJZ1cIQzXgPDw8PB66Ck3/zUfAKyvX9LJNTyuAeHh4eH101Nu/ms6AOSwfkkn1/C4BoSHh4fXT090m3/tA0Au65d0cg2Pa0B4eHh4vfU0m3+t/T+n9Us6uYbHNSA8PDy83nqazX/V/T+39Us6uYbHNSA8PDy83nqazX/F/T/H9XMVJv63cA0IDw8Pr6+eZvNfdv/Pdf1chak8zeZf6wCQ+frh4eHh5eppNv8l939X6+cgjGbzX/UA4GD98PDw8HL1NJv/ov3fQN72PCdhNJv/igcAJ+uHh4eHl6un2fwX7P9G8rbjOQqj2fyXPQA4Wj88PDy8XD3N5j+3/xvK29xzFUa3+S95AHC2fnh4eHi5eprNf9Zg3maeqzDl0Gz+iw4ABvLi4eHh4ZVDs/nPGszbzHMVphyazX/BAcBIXjw8PDy8cqg1fykPANbyNvNchSmHZvOfOwAYyouHh4eHVw615h9/32DeZp6rMOXQbP6zBvPi4eHh4ZVDrfkfdgCwkreZ5ypMObgGhIeHh9dDTxSb/7wDgJm8jT1XYcrBNSA8PDy8Hnqazb86AJjK29hzFaYcXAPCw8PD66Gn2fyr/d9U3ra8pJO37HENCA8PD6+Hnmbzr35mKm8bXtLJFcJwDQgPDw+vh55y81/zAcD6+iWdXMPjGhAeHh5ePz3l5r+mA0AO65d0cg2Pa0B4eHh4/fREt/nXPgDksn5JJ9fwuAaEh4eH11tPs/nX2v9zWr+kk2t4XAPCw8PD662n2fxX3f9zW7+kk2t4XAPCw8PD662n2fxX3P9zXD9XYeJ/C9eA8PDw8PrqaTb/Zff/XNfPVZjK02z+tQ4Ama8fHh4eXq6eZvNfcv93tX4Owmg2/1UPAA7WDw8PDy9XT7P5L9r/DeRtz3MSRrP5r3gAcLJ+eHh4eLl6ms1/wf5vJG87nqMwms1/2QOAo/XDw8PDy9XTbP5z+7+hvM09V2F0m/+SBwBn64eHh4eXq6fZ/GcN5m3muQpTDs3mv+gAYCAvHh4eHl45NJv/rMG8zTxXYcqh2fwXHACM5MXDw8PDK4da85fyAGAtbzPPVZhyaDb/uQOAobx4eHh4eOVQa/7x9w3mbea5ClMOzeY/azAvHh4eHl451Jr/YQcAK3mbea7ClINrQHh4eHg99ESx+c87AJjJ29hzFaYcXAPCw8PD66Gn2fyrA4CpvI09V2HKwTUgPDw8vB56ms2/2v9N5W3LSzp5yx7XgPDw8PB66Gk2/+pnpvK24SWdXCEM14Dw8PDweugpN/81HwCsr1/SyTU8rgHh4eHh9dNTbv5rOgDksH5JJ9fwuAaEh4eH109PdJt/7QNALuuXdHINj2tAeHh4eL31NJt/rf0/p/VLOrmGxzUgPDw8vN56ms1/1f0/t/VLOrmGxzUgPDw8vN56ms1/xf0/x/VzFSb+t3ANCA8PD6+vnmbzX3b/z3X9XIWpPM3mX+sAkPn64eHh4eXqaTb/Jfd/V+vnIIxm81/1AOBg/fDw8PBy9TSb/6L930De9jwnYTSb/4oHACfrh4eHh5erp9n8F+z/RvK24zkKo9n8lz0AOFo/PDw8vFw9zeY/t/8bytvccxVGt/kveQBwtn54eHh4uXqazX/WYN5mnqsw5dBs/osOAAby4uHh4eGVQ7P5zxrM28xzFaYcms1/wQHASF48PDw8vHKoNX8pDwDW8jbzXIUph2bznzsAGMqLh4eHh1cOteYff99g3maeqzDl0Gz+swbz4uHh4eGVQ635H3YAsJK3mecqTDm4BoSHh4fXQ08Um/+8A4CZvI09V2HKwTUgPDw8vB56ms2/OgCYytvYcxWmHFwDwsPDw+uhp9n8q/3fVN62vKSTt+xxDQgPDw+vh55m869+ZipvG17SyRXCcA0IDw8Pr4eecvNf8wHA+volnVzD4xoQHh4eXj895ea/pgNADuuXdHINj2tAeHh4eP30RLf51z4A5LJ+SSfX8LgGhIeHh9dbT7P519r/c1q/pJNreFwDwsPDw+utp9n8V93/c1u/pJNreFwDwsPDw+utp9n8V9z/c1w/V2HifwvXgPDw8PD66mk2/2X3/1zXz1WYytNs/rUOAJmvHx4eHl6unmbzX3L/d7V+DsJoNv9VDwAO1g8PDw8vV0+z+S/a/w3kbc9zEkaz+a94AHCyfnh4eHi5eprNf8H+byRvO56jMJrNf9kDgKP1w8PDw8vV02z+c/u/obzNPVdhdJv/kgcAZ+uHh4eHl6un2fxnDeZt5rkKUw7N5r/oAGAgLx4eHh5eOTSb/6zBvM08V2HKodn8FxwAjOTFw8PDwyuHWvOX8gBgLW8zz1WYcmg2/7kDgKG8eHh4eHjlUGv+8fcN5m3muQpTDs3mP2swLx4eHh5eOdSa/2EHACt5m3muwpSDa0B4eHh4PfREsfnPOwCYydvYcxWmHFwDwsPDw+uhp9n8qwOAqbyNPVdhysE1IDw8PLweeprNv9r/TeVty0s6ecse14Dw8PDweuhpNv/qZ6bytuElnVwhDNeA8PDw8HroKTf/NR8ArK9f0sk1PK4B4eHh4fXTU27+azoA5LB+SSfX8LgGhIeHh9dPT3Sbf+0DQC7rl3RyDY9rQHh4eHi99TSbf639P6f1Szq5hsc1IDw8PLzeeprNf9X9P7f1Szq5hsc1IDw8PLzeeprNf8X9P8f1cxUm/rdwDQgPDw+vr55m8192/891/VyFqTzN5l/rAJD5+uHh4eHl6mk2/yX3f1fr5yCMZvNf9QDgYP3w8PDwcvU0m/+i/d9A3vY8J2E0m/+KBwAn64eHh4eXq6fZ/Bfs/0bytuM5CqPZ/Jc9ADhaPzw8PLxcPc3mP7f/G8rb3HMVRrf5L3kAcLZ+eHh4eLl6ms1/1mDeZp6rMOW4S3SfBpowlhcPDw8Pr9ybNZv/XcbyNvdchSnH7aL7NNCksbx4eHh4eCJTotf8Y91mLG9zz1WYctwkuk8DbTaWFw8PDw9PZIvoNf/4+zcay9vccxWmHD8Q3aeBthvLi4eHh4cnslP0mn+sq43lbe65ClOOq0TxaaCiKI4xlhcPDw8PT+RY0Wv+sa4wlre55ypMOb4jik8Dbdgwc6KxvHh4eHi998Lefg/F5h/r25bytuK5ClOOb4ri00AzMzP3MZYXDw8Pr/fe9PT0fRWbf6yvW8rbppd08pa9r4ri00DhTnaqsbx4eHh4vfemp6dOU2z+8X//iqW8bXlJJ1cIc7Hm00BTU1MPsZQXDw8PD++MyampyYcqNv9YF1nK24aXdHINL9xYF2o+DTQ5OXqYpbx4eHh4eGdMhnGGYvOP9RlLedvwkk6u4RVF8XfKTwP9jKW8eHh4eHhnTA6Hw7NFr/nH+oSlvG14SSfX8MIB4MPKTwM901JePDw8PLyDzezZotf8Y73fUt42vKSTa3jhAPAW5aeBXmwpLx4eHh7eQe83Ra/5x3qjsbyNvaSTa3jhAPAa0X0a6Pct5cXDw8PDOzjOE73mH+u/G8vb2HMV5lHl00AvFd2ngd5gKS8eHh4e3sHxJtFr/rFeYixvY89VmMo7R3SfBnqfsbx4eHh4eCIfEL3mH+tZxvK27zkIc5boPg30SWN58fDw8PBEPi16zT/WE4zlbddzEuZ00X0a6BJjefHw8PDwRC4VveYf6yeM5W3PcxRmn+g+DXSVsbx4eHh4eCL/JnrNP9Y9jeVtx3MVZt53Qq9UDe4Md4aaNJQXDw8Pr+/elJR7s1bzj3WkobzteK7ClGMgK9wRpJ07wwmG8uLh4eH13TtZdJt/7CmFobzteK7CHBrfF907w6OM5cXDw8Prs/cY0dvvY33PWN52PFdhDo34rU2ad4bnGsuLh4eH12fv+aK338f6vLG87XiuwhwafyG6d4bfM5YXDw8Pr89e/JQ+rf1+tiiKdxvL247nKsyh8SrRvTNcYCwvHh4eXp+9d4vSfh9/fzAoXmUsbzueqzCHxgtF8c4QDgAXGsuLh4eH12fvi6K038caDgcvNJa3Hc9VmEPjTFG8M4S60lhePDw8vN56YXxfcb+fHY1Gj7OUV2H90k3ethdusHtq3hlC3bVr1zFbrOTFw8PD66s3Gg03xj1Zcb+fnZmZvpeVvG17SSfX8Hbv3rX58DuEtHhnqOoBVvLi4eHh9dWbnJz8Cc3mH+rOqTCs5G3TSzq5phdutKu0mn/1s2dayouHh4fXR284HP6y5h974X//rqW8bXpJJ9f04gv1FJt/rNdayouHh4fXRy/s9a9T/mPv05bytuklnVzTC3eKd4he84/1MUt58fDw8Prohb3+E8p/7J1vKW+bXtLJNb3wo5eJXvOPdbWlvHh4eHh99ML+vOxHv9epGvv9b1jK26aXdHJl73Gi1/zHdbShvHh4eHi98jZt2rRHdJt/rEdbydu25yrMYd6xotv8V7xjOFg/PDw8PNOeLPMlQHVqDfv93azkVVg/P2GW8K4Rvea/7FNDjtYPDw8Pz7L3EtFt/tcYy6vruQoj8knRa/6x3mosLx4eHl6fvPNF95neTxjLq+e5ClOO14le84/1TWN58fDw8PrkfUt0L/P+obG8Op6rMIfGc0Wv+ce6K9RRhvLi4eHh9cXbIeUerHmZ99mG8up4rsIsHD8ues1/XGcZyouHh4fXF+9s0W3+sU4zlLd9z1WYxWMm1AHRa/6xXm0oLx4eHl5fvNeIbvOPvWODobzte67CLD2+LnrNP/7+hcby4uHh4fXBu1D0mn+srxvL277nKszS43+JXvOPdduePbu3GMqLh4eH592Lz+7eLnrNP9abDeXV8VyFWXqcI3rN/2BNTk4+zFBePDw8PO/eT4lu84/1HEN5dTxXYZYY4Ybfp9n8Yw0Gg9+2khcPDw+vB95vi27zj3VPQ3l1PFdhlvD27//x+GURP9Bq/pX3V1by4uHh4fXA+6joNv9r9u7dM2Eor47nKswyXlEUH1Fs/rFuCTVlJS8eHh6eY2861K2i1/xjfchQXnUv6eTa3mAw+B3F5j+uR1nJi4eHh+fYe6zoNv94Wfe3DOVV9ZJO3oU3OTmKmGbzj/UHVvLi4eHhOfb+SBSbf/XC7p8ylFfNSzp5V95UGOHHt4le8491mZW8eHh4eI69b4hi849v7d67d89mQ3nVvKSTd+xdKHrNf1zHGcqLh4eH583bK7rNf7Yois8ayqvqJZ28Y+880W3+sV5gKC8eHh6eN++Fotj8y7d1F68ylFfVSzp5x97DRbf5x/qQobx4eHh4rrww/lL7c11Go9EjrOTV9pJO3rEXw94kes0/1s3VPBby4uHh4bnx4mu5wn58s2bzD3XDhg0z9Z4aV87bhecqTA3vg6LX/Mf104by4uHh4bnwhsPh2crNP/7v77OStwvPVZga3vNFt/nHequhvHh4eHguvKIo3qnc/GM910reJJ6rMIvH3UW3+ce6cffuXZuN5MXDw8PL3otvy4tPzys3/1h7LORN4rkKs/y4VPSaf/UikuGTDOXFw8PDy9oLe+rPddD8L7GSt3PPVZiVx2tFsflX7yN9l6G8eHh4eFl7YU/9C+XmH+vVVvJ26rkKU4MTxeZf1U27dh2zxUhePDw8vGy9sJdui6/+F93mH+sRFvJ26rkKU2NMT09PdvBWkvi/P8lCXjw8PLycveFw+POi3/xrfaNrjuu3oucqTE2vKIr3d/Bq0ndbyYuHh4eXqxd+9B7Rbf6z1Rwm8nbquQpT0wsnyqd18IKSeKLcYiEvHh4eXo7eYDDYGn58q+g2/1hPtpC3c89VmJpeh9eUnm8hLx4eHl6m3q+IfvOPvWDGSN5uPVdh1uCFH10g+k8rXWwlLx4eHl6G3pdFt/nHeqehvN16rsKszXui6J8sY51qJC8eHh5eTt4DRX9/jvWzRvJ277kKszZvOtQNon/n+nMjefHw8PBy8v6n6O/PN0rZCyzkTeYlnTyh93bRvXPFioeMjUby4uHh4eXgxWvy14v+/ny+kbzJvKSTJ/YeL7p3rnE9y0hePDw8vBy8Z4t+84/1OCN5k3hJJzfgxRcDXiu6zT/W54zkxcPDw8vBu1D0m/91oSaN5E3iJZ3ciPdm0W3+Y+t+RvLi4eHhWfbuJ908M/smI3mTeUknN+LtF+XmH6soircayYuHh4dn2Ttf9Jt/rIPe3psAABoDSURBVIcYyZvMSzq5Ie9rotj8K+OOTZs2HW8kLx4eHp5Fb1eo20W/+V9iJG9SL+nkhrz/LLrN/2ANBsWrjOTFw8PDs+idJ/rNP9aLjORN6rkK08DbHuqHms2/quuGw+EmA3nx8PDwrHmbZYW3/rW4P99WFMUOA3mTe67CNPHCHeIC5eY/d/K0kBcPDw/PmPfrot/8Y73DSF57nqswa/AmJ0eP6aD5x/pOqGHqvHh4eHiGvEGob4t+858djcI/J31ee56rMGv09u9/8FS4Y31LufmP66mp8+Lh4eEZ8p4mHTT/8PuXx73eQF5bnqsw6/QGg+J3RL/5x/pSqInUefHw8PAMeHEvXPStfxqvyRoMBr9jIK8tz1WYBl5RFHcLP75DdJv/uJb8Bqou8+Lh4eEZ8M6WDpp/fCv2li2b724grx3PVZh2vLeJfvOP9dVQhYG8eHh4eKm8+Nf/V0S/+ccPY3u7gby2PFdh2vHix1DeJbrNf1w/ZyAvHh4eXirvP0gHzT/W9PTUgwzkteW5CtOe93HRb/6xLpXqWQBn64eHh4e32oiv/L9MOmj+4a//jxnIa89zFaY970zRb/7j+gUDefHw8PC69p4uHTT/WKPR8KcN5LXnuQrTrrfgupSscOdqeGf91r59J80YyIuHh4fXlRf/+v+GdND8Q12yd++eFd911UFem56rMO16zxL95n/w94fD4XMN5MXDw8PryjtHumn+8X9/hoG8Nj1XYdr1JkNdKcrNv6p/2b1711Zn64eHh4e31JgJ9S8dNf8rpNzLU+Y17yWd3LD3W9LRNarBoHiFgbx4eHh4ql4Yr+io+cd6aeq81r2kkxv3jgh1c0d31ltCHZs4Lx4eHp6aVxQTu8N+d0tHzf+mUNtS5rXuJZ08B68oivM6urPGenvqvHh4eHhaXoffuhrr91Lnte4lnTwHb/v2I3eGO9X1HdxZY8UPIDo9ZV48PDw8DW9ycvSTYc+7q6Pmf0OoI1PmzcFLOnku3mAw+N0Omv+4LpYlPiK4y7x4eHh4bXqnnnrKVPjr/6KOmn+sl6fMm4uXdPJcvO3bj9gRfnSt6Df/cT09ZV48PDy8Nr3hcHhOh83/eql57T+X9dPykk6embeurwpe5wsI41tXNiXOi4eHh9fYO+qondvDvndVR80/1m+nzJuT5yqMsrcx1PdFv/mP648S58XDw8Nr7BVF8WcdNv9rQm1OmTcnz1WYDryXSDfNP9adofYnzouHh4e3bm9qavL0sPcd6PA1VC9OmTd7z1WY9r3pUPHpee3mP65LpqenJx2tHx4eXk+8E044flNRTFzaYfO/KtSGVHmz91yF0fN+Vbpp/ger+oRAT+uHh4fXA28wGPy3Dpt/rP+YMm/Wnqswut4w1Nekg+ZfGbfNzEyf4mj98PDwnHszMzP3DXvXD6W75n9ZqGXf157b+nXquQrTjfdo6ab5H6yiKL4Q30fraP3w8PCceqed9oDpsG99Vrpr/rHOTJU3a89VmG69j0oHzX+e9yuJ8+Lh4eGt6g0GgxdJt83/IynzZu25CtOtty/UHR01/1jxy4JOTpgXDw8Pb0VvZmYm7lE3SnfN/45Q90yVN3vPVZiOvaIoXt9R8x/Xl2SF61zaefHw8PCW8/btO2km/Ojz0l3zj/XaVHldeK7CdOwdeeQRR4U76TUdfshFrFemyouHh4e3nBd+FL99r8vmf7Us8ZG/ua5fEs9VmATeYDD41Y7f6hI/IGjZf3xu64eHh5e/NzFx8FtMD0h3zT/W81LldeO5CpPAu+997x0/HOj/Sbcn338NdUSKvHh4eHjzvfBH0Nbw4+9It83/K6EGKfK68lyFSec9LNRd0t2dP9Y7E+bFw8PDG3sXSLfNPz4LenrCvO68pJM78d4g3TX/cf1iwrx4eHh4z5Bum3+sP0+Y152XdHJHXnwa7ErprvnHujH87j4n64eHh5eXd69QN0m3zT9+F8vWRHndeUknd+g9Xrpr/mPvGzt37tjhZP3w8PDy8DaFulS6bf6xzk6U16WXdHKn3vulu+Y//qjgD+/f/+ApJ+uHh4dn25sI9V7pvvm/J1Fet17SyZ16dwt1nXTU/Mc1GAx+y8n64eHh2fZeJt03/xtCHZsor1sv6eSOvV+WDpt/5cX34D4mUV48PLx+eI8I9SPptvnHOidRXtde0skde/Epsr+V7pr/uH4Qam+CvHh4eP69u0v56XtdN/+/CzXhYP3Mea7CWPLCHf3EULd02PzH9cVQU13nxcPDc+3FPeUi6b75xy9BO9HB+pn0XIWx5g2Hgxd03PzH9W4pn4XoNC8eHp5LL+4lb5Pum3+s5zpYv3w8V2EMeEVRvLfj5j+u302RFw8Pz533+5Km+X/Ayfrl4bkKY8Q74ohtR0n52f1dNv9xvaDrvHh4eK6850ia5n/FYFBsd7B+eXiuwtjzHibl51d32fxj3SHVOwMyXz88PLzuvYeHul26b/5xr3ykg/XLw3MVxq73Wklzkr4p/O4pDtYPDw+vO+8+oa6X7verWK92sH55eK7C2Pbiq2j/Qbp/MMXfv2LTpk3HZ75+eHh43XjHhPoXSdP8//7444/bmPn65eO5CmPfu3eof5dum//BKoqJf9ixY/vOzNcPDw9P14tftPP3kqb53zo9PXW/zNcvL89VmDy850vHzX9efW40Gm7sOC8eHl4eXtwbPidpmn/8OPMXZL5++XmuwuTjvVm6b/7jn8VPKJzuOC8eHp5tbzLU/5ZEzb8oindkvn55eq7C5OPFBvwl6b75j+v/SI1PC2wxLx4enl0vfiLcX0qi5h9+/yu7d+/amvH65eu5CpOXtyfUNQma/7ji1xYPO8yLh4dnzxuEukDSNf9rN27ccHLG65e35ypMZt5oNHpseAAcSND8x3V+qKKrvHh4eKa8+BG/b5R0zf/OsAc+PuP1c+MlnbzP3mAw+K+Jmv+4/lQO+96AnNYPDw9vXV58zMfHfqrmH1/0918yXj83XtLJ++7t3//gqaIo4tPxKZr/uOJfAUUXefHw8JJ7sfn/iSRs/mHP+8u492W6fm68pJPjld5wONwcfnyZpGn+47pgw4aZUY7rh4eHV9uL1/zPl4TNP9Q3q88kyXH9XHlJJ8db4N0r1HWSpvkfrHAq/+DevXs2Z7p+eHh4K3vxnT8flLTN/7qZmen7Zbp+7rykk+Mt8n4q1G2S7sEZDwGfPProo47MdP3w8PCW9jZI+fbflM3/jsnJ0WMzXT+XXtLJ8ZYcPx/qLknQ/OfVZ4bDwZaO8uLh4el6m0J9QtI2/7uGw+FzMl0/t17SyfGWHS+XdM1//LMvhNreUV48PDwdb0eoiyRt84+v+D830/Vz7bkK48iLr9J9i6Rr/uO6PNQ9O8iLh4fXvndCqG9I4uZfFMX5ma6fe89VGGdevHE+Luma/7iulfK1Cdp58fDw2vMeEupqSd/8P3XCCcdvynD9+um5CpO/F6/DfzVh8x9XfGHiL3SQFw8Pr7n3ZFnla8el2X5Qs/lPXHbkkUccleH69dNzFcaJt2HDhhPDg+nKhM1/XPGFiS/VzouHh9fIe5ms8iJiaWc/WM27YuPGjSdmuH799FyFcebNzMzcJzygvpew+c+v+FXGo5zWDw+vB178gJ8/k+73g6W8q2dmpk/JbP3667kK49Sbmpo8Lfzoeknb/Mf1N9u2bT06p/XDw3PsxXfrfExsNP/rpqenHpTZ+vXXcxXGv/fgUDdJ2uY/Nv41HEoemtn64eF5834s1D9J+v0g1q2Tk5NnZLZ+/fZchemH99BQt0j6B3usHw4Gg+dntn54eF68Xwp1q9ho/v8+OTl6dGbrh+cqTH+8x0iNjwzu8N0Dbwg1qZgXDw/vkBc/0/91YuOZwFh3jEajszNaP7x5v+gnTL+8J4b6kaRv/uO6ONRxinnx8PBEjg31ebHT/A8Mh8NfzGj98A77ZT9h+uc9PdQBSd/8x/W9UI9QzIuH12fvkaG+L7aa/7MzWj+8JQA/YfrpPTXUHZK++Y8rvgc5Pj05qZQXD69X3qZNG4fhx+eGulNo/nhteq7C9Nf7mVA/NND859dXQ91PKS8eXi+88JjbF378Zen+8buSd/toNHxKDuuHpzCsh+mjNxqNHhUemDcZaf7jih9H+mt79+6ZsL5+eHjWvPCjZ8ga3vEj7T9+l/JuDXvNT+ewfngKw3qYPnvxPbjhAXqDkeY/V0VRfGjbtq3HWF8/PDwL3tatW44JP/qQGHn8znNuCHvMw6yvH57SsB4G7+AhIH4L2A/E3uZxZfjL4Wesrx8eXkpvNBrGy3lXib3H7w+mpqYeYn398NbmJZ0cT827V6grxc7mMd97T6idLedd88DDs+TFb80riuJNsoYv8jm8FB+/35uennqg5fXDW5+XdHI8Ve+kUN+W9JvHUl58K9OSXy/cIG/tgYdnyRsOh88Ij4+rRe/x1sS7fMOGmXtZXj+89XtJJ8dT9+KXhHxGbDX/+fVRWeXDg5zdHnh4c97mzZuOC3/1f9jaa3bGRvi3fXHr1i3HWl0/vOZe0snxOvHix4ZeIPaa/7jiZ5nH7zAfGF0/PLxWvdNOe8D0cDh44fhdO2Kz+X9w9+5dWy2uH157nqsweMuOItRrxV7zn19fCPUgo+uHh9eKF79BMzTXiww83pb1BoPiD+IhxeL64bXruQqDt+p4rlTfH2Cs+Y8rvgDqPeF39xhdPzy8dXmbNm3aE1/kF+7bdxp6vB3uHRgMBi+yuH54HXmuwuAtNR4THug3Gmz+871bwkb0u3v27N5ibf3w8NYypqenJ8N9+cWHP+bE1uMt1s3VN/qZWj88mj9ey9709NSPhwf8FYY3o3F9ezgcPtXa+uHh1RxPDvfhfzJ+2I51RdwTrK0fHs0fT8nbsmXz3cMDf9V3CKxUHV5G+L+hTrW0fnh4K4x4X/2k0ctsC7yiKD4d9wJj64dH88fT9qpvGTtPjGxGNbyPh3qAlfXDwzts3FvKD7q6K5Pm/6aTTz5xo6H1w6P54yXwfl7W8KUjiTe3gy8UDLXP0Prh9ds7PtQbQh2Q9I+POt6/D4fDcwytH14qz1UYvCZebKiXie3mP7/id6PHg8BJRtYPr3/ecVI2/oPvrBFbj4/lvH+cnp4+1cj64aX2XIXBa+ptC/URsd/859cdod4YfvceBtYPrx/ePUK9Ucr7nvXHx1wVRfGRHTu27zSwfnhWPFdh8Nrw4ocGvVzKv7Cz2dzC7x8IG9z7p6YmT3d2e+DZ8R4c6r1SPdUvuvfnNr0Dg0Hxiv37Hzzl7PbAa+q5CoPXpvcTUn2ZkPHNbSnvy+F/f4Ys8fHCHa4fng8vHoifIOULUFPdn5t4/zoajR7p6PbAa9NzFQavVW8wGGwNf1W/y/Dmtpp3eahfC7UhxfrhZe3F79CIh8gVXxdjvPm/d9u2rUc7uT3wNDxXYfBUvPiK4QnDX1xSw4tftRrf7nhiivXDy8qLLyqN95VVv57XcPO/KdQzndweeB14SSfHs+9t2DATm+e6PzjI0GZ5cajnybxnBXK8PfBa9eJf+0+R8mn++DbTnO7Ph9cXw++emPntgdehl3RyvKy8+MFB8at7F7z6ebUyulleH+oN4XdPyfj2wGvmxbe+xr/2r5H878/xhYnnhYP6KOPbA69jL+nkeNl6Dw31j5LvZrnAK4riwvj97Nu2bT0m09sDr6a3ZcvmXeFHLwj1eTFy/2vBi4/Fh+Z4e+Cl9ZJOjpe1NxPq3FC3S16b5Upe/Cvqs1K+cPAo5fXD68g78sgjjhoOh88JB72/kjU+eyXd3v/WasQPIHpdqI053R54drykk+O58O4f6iKxv1mu1Zt/GNihuH54Ct727UfsGDf9cNvenuH9b7X6SqjTtNYPrx9e0snx3HjxtQEvCXWr2Nwsm3q3SfkJifGp470K64fXjrc31Auqpn+bo/vf/IqPsfhYGyqsH17PvKST4/nywkZ2fFFMfNzQZqnlxQ9Iip8B/4Tdu3dttnp79MCLTfB0KV/IF9/dYfX+0pb3qVAnt7h+CwZe/zxXYfDSe/HjRqvPDbjW2ea7nHdr/ItzMBi8aHp66n579+6ZaLJ+1m/fxF5c2/iVu/8p1F9L9YyT6N6+FrwfhHpmlb/J+i078PrpuQqDZ8c74oht8UV08S+zZV8kuFIZ2nzX6t0o5fvJz41LI+WLJde8ftZv3468uEE9UMrXYcRvflz27XoZ319Wqvgiv/hM004jtweed89VGDwL3n1CfUzy23zb8uLrBz4X6jWhzhZeQ7CSd1yos6Rcq7hmtQ6Pzu4v4/obKZ/tSHl74PXJcxUGz5oX/xq+VPLYfLW9+CxBvGb9tsFg8OLRaHRm9RkEOd++tb2dO3fsmJqaekj1Kv0/kfIZk1U/enepMnr7NvG+JeWnEnZ2e+Dh+QqDZ9WblPIVzDeIzc03tfdPUr7b4I+lfNr7Z6V8m+VmpdtD09tS/dvPqrL8cWj2fx0yfiej26NLLz4mfkPKx4jG7YGHR/PHM+HF1we8UcprnBY23xy8+EKwL0n5ffR/EOo3Qz0n1FkTE3J6fAHi1q1bjr3//e8zo3X7Bn9Q3Xb3kvLV92dV/4bfrP5N8d92cfVvtbZ+Vr3xdf5lP3jK4OMXz4vnKgxebt7Jod4ZNsc7nWzmVrzrpHyr4sVVxevpH6/q/VK+oO5dUjaeN1T///dUP/t4UUz8bfx45PD/fjlW8KJ1neG8OXp3hnqHlN8+uOww/vjFy91zFQYvS29mZvr+oeG8Y3wQkPw2czy8ul78tsF4mecUWWXk8vjFy9hzFQYva29qaurHpPxLtNZXsh5eDpoDnm8vPgNzqtQYOT5+8TL0XIXB8+LFF4/Fg4DlzRwPr64XG/+DpOZw8PjFy8VzFQbPm7c/1AelvF5qZTPHw6vjxfvsB0I9RNYwnD1+8ax7rsLgefXuIeXXni746FfJtzng+fXiBz+9LdQ+WeMw9HjD64vnKgyedy9+Le/LQl0peTYHPL/e1UVRvDrUMbKOYfTxhtcTL+nkeHhrGVNhDAaDZxfFxGWZNAc8v97l8dMcjznm6K1WHh94eGrDehi8/ninnfaA6dFo9MT4CXPhRwfEXnPA8+kdiPe5eN+L90Grjw88vFaH9TB4vfZ2SXl5IH6crqdmg2fHuyI+zb9x44aTMnx84OEt8pJOjoen4BXx/1zKtxHeIfk2GzwbXnxmKb6N7yn79p004+DxgYc35yWdHA9P2Ttayi+iuUTyaDZ4drz4rXznhrq7ofszHl6rXtLJ8fA68iakfD/2H4b6rsFmg2fD+26oP6ruK/E+Y/X+jIfXipd0cjy8FF78Lvr4PfShMVzlqHnhrc+L31wY37f/hFCDpe4v1u/PeHjr9VyFwcNbi3fqqadMxa/SlfJDhv5N8mteeOvzrpVDTX9Y9/5i/f6Mh7dWz1UYPLwGXmwEjwz1mlBfE7vNC2993iXVbfsIOewv/cOHk/szHt7aPVdh8PDW78UXED5DyncTXC++mmEfvFukfPV+fBHontVu7PEwdP/Dw6P54+EZ8OJfjA8MdW5oLl8OdVdmzbAv3rfjazviTR9qcq03suH7Hx6erucqDB6eordz544do9HozNBsXinlX5k/FHvN0Lv3o3gYiw1/OBw+bdu2rbus3l/w8Ex7rsLg4XXvxdcPxGcI4tPN8ZLB1ZJ3c7Xo3SjlYevceJPs3r1rc8b3Fzw8G56rMHh4Nrz4HvL4dbC/GOq8UB+V8j3mVpurNe+71ZqdV63hPuF9+Xh47XuuwuDhGfYGg8HWycnRGcPh4IXxqetQnwvN8GbJu1k38W4PdamUb8mL3+MQ35Z3dFe3Bx5e7z1XYfDwMvP27t0T/7LdHSp+HsHTQ7081FtCfTLUP4f6kdho1uvx4nX6fw4Hnb8L9dbBoDi3yviTVeai6fpZv33x8Ex7rsLg4fnz4od13EPK96/HtyX+eqjfCw31jaE+EOpTRTHxtdBor5LyL2rt5n9bqCtDfVXKQ8r7Qv2P+G+q/m3x3/iIDRtmTjr55BM3Glg/PDy8FX7ZTxg8PLzNofZKeWh4YFX7469W9aRQTwn1tFDPizUcDn4pvpJ+NBo+Nb67IdbExMHfGf/+PSpzs8G8eHh46/VchcHDw8PDw8OrjySbHA8PDw8PDy+pl3RyPDw8PDw8vO69pJPj4eHh4eHhde8lnRwPDw8PDw8vjZd0cjw8PDw8PLw0XtLJ8fDw8PDw8NJ4SSfHw8PDw8PDS+MlnRwPDw8PDw8vjecqDB4eHh4eHl49z1UYPDw8PDw8vHV6rsLg4eHh4eHh0fzx8PDw8PDwLE2Oh4eHh4eHR/PHw8PDw8PDU/ZchcHDw8PDw8Or57kKg4eHh4eHh1fPcxUGDw8PDw8Pr57nKgweHh4eHh5ePc9VGDw8PDw8PLzagJ8weHh4eHh4ePWRZJPj4eHh4eHhJfWSTo6Hh4eHh4fXvZd0cjw8PDw8PLzuvaST4+Hh4eHh4aXxkk6Oh4eHh4eHl8ZLOjkeHh4eHh5eGi/p5Hh4eHh4eHhpvKST4+Hh4eHh4aXxXIXBw8PDw8PDq+e5CoOHh4eHh4e3Ts9VGDw8PDw8PDyaPx4eHh4eHp6lyfHw8PDw8PBo/nh4eHh4eHjKnqsweHh4eHh4ePU8V2Hw8PDw8PDw6nmuwuDh4eHh4eHV81yFwcPDw8PDw6vnuQqDh4eHh4eHVxvwEwYPDw8PDw+vPpJscjw8PDw8PLykXtLJ8fDw8PDw8Lr3kk6Oh4eHh4eH172XdHI8PDw8PDy8NF7SyfHw8PDw8PDSeEknx8PDw8PDw0vjJZ0cDw8PDw8PL42XdHI8PDw8PDy8NJ6rMHh4eHh4eHj1PFdh8PDw8PDw8Op5/x+2ECC8RE5QmgAAAABJRU5ErkJggg==;rotation=50;fontFamily=Inconsolata;fontSource=https%3A%2F%2Ffonts.googleapis.com%2Fcss%3Ffamily%3DInconsolata;labelBackgroundColor=none;" parent="1" vertex="1">
          <mxGeometry x="338" y="785" width="22" height="22" as="geometry" />
        </mxCell>
        <mxCell id="W_OnjFls6b9u1241AHmh-95" value="" style="rounded=0;orthogonalLoop=1;jettySize=auto;html=1;exitX=1;exitY=1;exitDx=0;exitDy=0;entryX=0.5;entryY=0;entryDx=0;entryDy=0;endArrow=none;endFill=0;fontFamily=Inconsolata;fontSource=https%3A%2F%2Ffonts.googleapis.com%2Fcss%3Ffamily%3DInconsolata;labelBackgroundColor=none;" parent="1" source="W_OnjFls6b9u1241AHmh-85" target="OM572cekEQb-akaccsAw-20" edge="1">
          <mxGeometry relative="1" as="geometry">
            <mxPoint x="398" y="770" as="sourcePoint" />
            <mxPoint x="460" y="820" as="targetPoint" />
          </mxGeometry>
        </mxCell>
        <mxCell id="W_OnjFls6b9u1241AHmh-94" value="" style="shape=image;verticalLabelPosition=bottom;verticalAlign=top;imageAspect=0;aspect=fixed;image=data:image/png,iVBORw0KGgoAAAANSUhEUgAAAgAAAAIACAYAAAD0eNT6AAAACXBIWXMAAAsTAAALEwEAmpwYAAAgAElEQVR4nO3dCbxlV1Xn8fXOvfcNNSdVlZBKUamQgWKMhCBYRAlzUDABhBaVMchgt9gigvrphjTqp8PgAA7dwIcmjEFmROkWpJEpQAhKExIGg6gkERIyJ5KESl7vXefcV+/Vm85756yz117ntz+f9ekOz/fd9d/33r32u+cO8qhHnTEZahRK1jPi71W/Pzmv8PDw8PDw8Cx7rsLg4eHh4eHh1UeSTY6Hh4eHh4eX1Es6OR4eHh4eHl73XtLJ8fDw8PDw8Lr3kk6Oh4eHh4eHl8ZLOjkeHh4eHh5eGi/p5Hh4eHh4eHhpvKST4+Hh4eHh4aXxkk6Oh4eHh4eHl8ZzFQYPDw8PDw+vnucqDB4eHh4eHt46PVdh8PDw8PDw8Gj+eHh4eHh4eJYmx8PDw8PDw6P54+Hh4eHh4Sl7rsLg4eHh4eHh1fNchcHDw8PDw8Or57kKg4eHh4eHh1fPcxUGDw8PDw8Pr57nKgweHh4eHh5ebcBPGDw8PDw8PLz6SLLJ8fDw8PDw8JJ6SSfHw8PDw8PD695LOjkeHh4eHh5e917SyfHw8PDw8PDSeEknx8PDw8PDw0vjJZ0cDw8PDw8PL42XdHI8PDw8PDy8NF7SyfHw8PDw8PDSeK7C4OHh4eHh4dXzXIXBw8PDw8PDW6fnKgweHh4eHh4ezR8PDw8PDw/P0uR4eHh4eHh4NH88PDw8PDw8Zc9VGDw8PDw8PLx6nqsweHh4eHh4ePU8V2Hw8PDw8PDw6nmuwuDh4eHh4eHV81yFwcPDw8PDw6sN+AmDh4eHh4eHVx9JNjkeHh4eHh5eUi/p5Hh4eHh4eHjde0knx8PDw8PDw+veSzo5Hh4eHh4eXhov6eR4eHh4eHh4abykk+Ph4eHh4eGl8ZJOjoeHh4eHh5fGSzo5Hh4eHh4eXhrPVRg8PDw8PDy8ep6rMGvw9oQ6M9Q5VZ25ceOGEwz9+/Dw8PDwFLyJiYk9o9Hw8cPh4HmxRqPR46v938S/L6nnKszCcXSoV4S6PNTs/Ap3iHFdPhgMXrl586bdDvLi4eHh4ZVjbv+ft9/PlZS94PLq/+boBP++9J6rMIdGEeqloW6Wwxq/LGz+8+8MN1e/U3Tw78PDw8PD0/EW7P8rNP/5VWv/N5p3fZ6rMIfG5lAfkyUav9S7M3ysMnLJi4eHh4dXjgX7f83mX2v/N5p3fZ6rMIfGhlBfkPU3/3F9obKs58XDw8PDK8eC/X8dzX/Z/d9o3vV5rsIsHO+U5s1/XO/MIC8eHh4eXjnm9v8GzX/R/m847/o8V2EOjbOkveY/rrMM58XDw8PDK8fc/t9C85/b/w3nXb/nKkw5JkJdIu02/1iXybwXhRjKi4eHh4dXjrn9v8Xmf3D/P/XUU6YM5m3muQpTjodL+81/XA83mBcPDw8PrxwH9/+Wm//B35+cHD3aYN5mnqsw5Xi96DT/WK83mBcPDw8Prxyv12j+sYqi+FNreRt7rsKU40ui0/xjXWQwLx4eHh5e+L2wv1+s0fyrA8CXrOVt7LkKU45rRaf5x9+/1mBePDw8PLzw+3GP1mj+VV1rLW9bXtLJW/YOiNI1oFAHDObFw8PDwwtO3KOVmn/83w9Yy9uGl3RyhTBazf9gWcuLh4eHh1dais1/XKbyNvWSTq7haTb/6gBgKi8eHh4e3qEDgOg1/zUdAHJYv6STa3iazb86AJjKi4eHh4dXeqLb/GsfAHJZv6STa3iazV/W8RSQdl48PDw8vDlPs/nX2v9zWr+kk2t4XAPCw8PD662n2fxX3f9zW7+kk2t4XAPCw8PD662n2fxX3P9zXD9XYeJ/C9eA8PDw8PrqaTb/Zff/XNfPVZjK02z+tQ4Ama8fHh4eXq6eZvNfcv93tX4Owmg2/1UPAA7WDw8PDy9XT7P5L9r/DeRtz3MSRrP5r3gAcLJ+eHh4eLl6ms1/wf5vJG87nqMwms1/2QOAo/XDw8PDy9XTbP5z+7+hvM09V2F0m/+SBwBn64eHh4eXq6fZ/GcN5m3muQpTDs3mv+gAYCAvHh4eHl45NJv/rMG8zTxXYcqh2fwXHACM5MXDw8PDK4da85fyAGAtbzPPVZhyaDb/uQOAobx4eHh4eOVQa/7x9w3mbea5ClMOzeY/azAvHh4eHl451Jr/YQcAK3mbea7ClINrQHh4eHg99ESx+c87AJjJ29hzFaYcXAPCw8PD66Gn2fyrA4CpvI09V2HKwTUgPDw8vB56ms2/2v9N5W3LSzp5yx7XgPDw8PB66Gk2/+pnpvK24SWdXCEM14Dw8PDweugpN/81HwCsr1/SyTU8rgHh4eHh9dNTbv5rOgDksH5JJ9fwuAaEh4eH109PdJt/7QNALuuXdHINj2tAeHh4eL31NJt/rf0/p/VLOrmGxzUgPDw8vN56ms1/1f0/t/VLOrmGxzUgPDw8vN56ms1/xf0/x/VzFSb+t3ANCA8PD6+vnmbzX3b/z3X9XIWpPM3mX+sAkPn64eHh4eXqaTb/Jfd/V+vnIIxm81/1AOBg/fDw8PBy9TSb/6L930De9jwnYTSb/4oHACfrh4eHh5erp9n8F+z/RvK24zkKo9n8lz0AOFo/PDw8vFw9zeY/t/8bytvccxVGt/kveQBwtn54eHh4uXqazX/WYN5mnqsw5dBs/osOAAby4uHh4eGVQ7P5zxrM28xzFaYcms1/wQHASF48PDw8vHKoNX8pDwDW8jbzXIUph2bznzsAGMqLh4eHh1cOteYff99g3maeqzDl0Gz+swbz4uHh4eGVQ635H3YAsJK3mecqTDm4BoSHh4fXQ08Um/+8A4CZvI09V2HKwTUgPDw8vB56ms2/OgCYytvYcxWmHFwDwsPDw+uhp9n8q/3fVN62vKSTt+xxDQgPDw+vh55m869+ZipvG17SyRXCcA0IDw8Pr4eecvNf8wHA+volnVzD4xoQHh4eXj895ea/pgNADuuXdHINj2tAeHh4eP30RLf51z4A5LJ+SSfX8LgGhIeHh9dbT7P519r/c1q/pJNreFwDwsPDw+utp9n8V93/c1u/pJNreFwDwsPDw+utp9n8V9z/c1w/V2HifwvXgPDw8PD66mk2/2X3/1zXz1WYytNs/rUOAJmvHx4eHl6unmbzX3L/d7V+DsJoNv9VDwAO1g8PDw8vV0+z+S/a/w3kbc9zEkaz+a94AHCyfnh4eHi5eprNf8H+byRvO56jMJrNf9kDgKP1w8PDw8vV02z+c/u/obzNPVdhdJv/kgcAZ+uHh4eHl6un2fxnDeZt5rkKUw7N5r/oAGAgLx4eHh5eOTSb/6zBvM08V2HKodn8FxwAjOTFw8PDwyuHWvOX8gBgLW8zz1WYcmg2/7kDgKG8eHh4eHjlUGv+8fcN5m3muQpTDs3mP2swLx4eHh5eOdSa/2EHACt5m3muwpSDa0B4eHh4PfREsfnPOwCYydvYcxWmHFwDwsPDw+uhp9n8qwOAqbyNPVdhysE1IDw8PLweeprNv9r/TeVty0s6ecse14Dw8PDweuhpNv/qZ6bytuElnVwhDNeA8PDw8HroKTf/NR8ArK9f0sk1PK4B4eHh4fXTU27+azoA5LB+SSfX8LgGhIeHh9dPT3Sbf+0DQC7rl3RyDY9rQHh4eHi99TSbf639P6f1Szq5hsc1IDw8PLzeeprNf9X9P7f1Szq5hsc1IDw8PLzeeprNf8X9P8f1cxUm/rdwDQgPDw+vr55m8192/891/VyFqTzN5l/rAJD5+uHh4eHl6mk2/yX3f1fr5yCMZvNf9QDgYP3w8PDwcvU0m/+i/d9A3vY8J2E0m/+KBwAn64eHh4eXq6fZ/Bfs/0bytuM5CqPZ/Jc9ADhaPzw8PLxcPc3mP7f/G8rb3HMVRrf5L3kAcLZ+eHh4eLl6ms1/1mDeZp6rMOXQbP6LDgAG8uLh4eHhlUOz+c8azNvMcxWmHJrNf8EBwEhePDw8PLxyqDV/KQ8A1vI281yFKYdm8587ABjKi4eHh4dXDrXmH3/fYN5mnqsw5dBs/rMG8+Lh4eHhlUOt+R92ALCSt5nnKkw5uAaEh4eH10NPFJv/vAOAmbyNPVdhysE1IDw8PLweeprNvzoAmMrb2HMVphxcA8LDw8ProafZ/Kv931Tetrykk7fscQ0IDw8Pr4eeZvOvfmYqbxte0skVwnANCA8PD6+HnnLzX/MBwPr6JZ1cw+MaEB4eHl4/PeXmv6YDQA7rl3RyDY9rQHh4eHj99ES3+dc+AOSyfkkn1/C4BoSHh4fXW0+z+dfa/3Nav6STa3hcA8LDw8PrrafZ/Ffd/3Nbv6STa3hcA8LDw8PrrafZ/Ffc/3NcP1dh4n8L14Dw8PDw+uppNv9l9/9c189VmMrTbP61DgCZrx8eHh5erp5m819y/3e1fg7CaDb/VQ8ADtYPDw8PL1dPs/kv2v8N5G3PcxJGs/mveABwsn54eHh4uXqazX/B/m8kbzueozCazX/ZA4Cj9cPDw8PL1dNs/nP7v6G8zT1XYXSb/5IHAGfrh4eHh5erp9n8Zw3mbea5ClMOzea/6ABgIC8eHh4eXjk0m/+swbzNPFdhyqHZ/BccAIzkxcPDw8Mrh1rzl/IAYC1vM89VmHJoNv+5A4ChvHh4eHh45VBr/vH3DeZt5rkKUw7N5j9rMC8eHh4eXjnUmv9hBwAreZt5rsKUg2tAeHh4eD30RLH5zzsAmMnb2HMVphxcA8LDw8ProafZ/KsDgKm8jT1XYcrBNSA8PDy8Hnqazb/a/03lbctLOnnLHteA8PDw8HroaTb/6mem8rbhJZ1cIQzXgPDw8PB66Ck3/zUfAKyvX9LJNTyuAeHh4eH101Nu/ms6AOSwfkkn1/C4BoSHh4fXT090m3/tA0Au65d0cg2Pa0B4eHh4vfU0m3+t/T+n9Us6uYbHNSA8PDy83nqazX/V/T+39Us6uYbHNSA8PDy83nqazX/F/T/H9XMVJv63cA0IDw8Pr6+eZvNfdv/Pdf1chak8zeZf6wCQ+frh4eHh5eppNv8l939X6+cgjGbzX/UA4GD98PDw8HL1NJv/ov3fQN72PCdhNJv/igcAJ+uHh4eHl6un2fwX7P9G8rbjOQqj2fyXPQA4Wj88PDy8XD3N5j+3/xvK29xzFUa3+S95AHC2fnh4eHi5eprNf9Zg3maeqzDl0Gz+iw4ABvLi4eHh4ZVDs/nPGszbzHMVphyazX/BAcBIXjw8PDy8cqg1fykPANbyNvNchSmHZvOfOwAYyouHh4eHVw615h9/32DeZp6rMOXQbP6zBvPi4eHh4ZVDrfkfdgCwkreZ5ypMObgGhIeHh9dDTxSb/7wDgJm8jT1XYcrBNSA8PDy8Hnqazb86AJjK29hzFaYcXAPCw8PD66Gn2fyr/d9U3ra8pJO37HENCA8PD6+Hnmbzr35mKm8bXtLJFcJwDQgPDw+vh55y81/zAcD6+iWdXMPjGhAeHh5ePz3l5r+mA0AO65d0cg2Pa0B4eHh4/fREt/nXPgDksn5JJ9fwuAaEh4eH11tPs/nX2v9zWr+kk2t4XAPCw8PD662n2fxX3f9zW7+kk2t4XAPCw8PD662n2fxX3P9zXD9XYeJ/C9eA8PDw8PrqaTb/Zff/XNfPVZjK02z+tQ4Ama8fHh4eXq6eZvNfcv93tX4Owmg2/1UPAA7WDw8PDy9XT7P5L9r/DeRtz3MSRrP5r3gAcLJ+eHh4eLl6ms1/wf5vJG87nqMwms1/2QOAo/XDw8PDy9XTbP5z+7+hvM09V2F0m/+SBwBn64eHh4eXq6fZ/GcN5m3muQpTDs3mv+gAYCAvHh4eHl45NJv/rMG8zTxXYcqh2fwXHACM5MXDw8PDK4da85fyAGAtbzPPVZhyaDb/uQOAobx4eHh4eOVQa/7x9w3mbea5ClMOzeY/azAvHh4eHl451Jr/YQcAK3mbea7ClINrQHh4eHg99ESx+c87AJjJ29hzFaYcXAPCw8PD66Gn2fyrA4CpvI09V2HKwTUgPDw8vB56ms2/2v9N5W3LSzp5yx7XgPDw8PB66Gk2/+pnpvK24SWdXCEM14Dw8PDweugpN/81HwCsr1/SyTU8rgHh4eHh9dNTbv5rOgDksH5JJ9fwuAaEh4eH109PdJt/7QNALuuXdHINj2tAeHh4eL31NJt/rf0/p/VLOrmGxzUgPDw8vN56ms1/1f0/t/VLOrmGxzUgPDw8vN56ms1/xf0/x/VzFSb+t3ANCA8PD6+vnmbzX3b/z3X9XIWpPM3mX+sAkPn64eHh4eXqaTb/Jfd/V+vnIIxm81/1AOBg/fDw8PBy9TSb/6L930De9jwnYTSb/4oHACfrh4eHh5erp9n8F+z/RvK24zkKo9n8lz0AOFo/PDw8vFw9zeY/t/8bytvccxVGt/kveQBwtn54eHh4uXqazX/WYN5mnqsw5dBs/osOAAby4uHh4eGVQ7P5zxrM28xzFaYcms1/wQHASF48PDw8vHKoNX8pDwDW8jbzXIUph2bznzsAGMqLh4eHh1cOteYff99g3maeqzDl0Gz+swbz4uHh4eGVQ635H3YAsJK3mecqTDm4BoSHh4fXQ08Um/+8A4CZvI09V2HKwTUgPDw8vB56ms2/OgCYytvYcxWmHFwDwsPDw+uhp9n8q/3fVN62vKSTt+xxDQgPDw+vh55m869+ZipvG17SyRXCcA0IDw8Pr4eecvNf8wHA+volnVzD4xoQHh4eXj895ea/pgNADuuXdHINj2tAeHh4eP30RLf51z4A5LJ+SSfX8LgGhIeHh9dbT7P519r/c1q/pJNreFwDwsPDw+utp9n8V93/c1u/pJNreFwDwsPDw+utp9n8V9z/c1w/V2HifwvXgPDw8PD66mk2/2X3/1zXz1WYytNs/rUOAJmvHx4eHl6unmbzX3L/d7V+DsJoNv9VDwAO1g8PDw8vV0+z+S/a/w3kbc9zEkaz+a94AHCyfnh4eHi5eprNf8H+byRvO56jMJrNf9kDgKP1w8PDw8vV02z+c/u/obzNPVdhdJv/kgcAZ+uHh4eHl6un2fxnDeZt5rkKUw7N5r/oAGAgLx4eHh5eOTSb/6zBvM08V2HKodn8FxwAjOTFw8PDwyuHWvOX8gBgLW8zz1WYcmg2/7kDgKG8eHh4eHjlUGv+8fcN5m3muQpTDs3mP2swLx4eHh5eOdSa/2EHACt5m3muwpSDa0B4eHh4PfREsfnPOwCYydvYcxWmHFwDwsPDw+uhp9n8qwOAqbyNPVdhysE1IDw8PLweeprNv9r/TeVty0s6ecse14Dw8PDweuhpNv/qZ6bytuElnVwhDNeA8PDw8HroKTf/NR8ArK9f0sk1PK4B4eHh4fXTU27+azoA5LB+SSfX8LgGhIeHh9dPT3Sbf+0DQC7rl3RyDY9rQHh4eHi99TSbf639P6f1Szq5hsc1IDw8PLzeeprNf9X9P7f1Szq5hsc1IDw8PLzeeprNf8X9P8f1cxUm/rdwDQgPDw+vr55m8192/891/VyFqTzN5l/rAJD5+uHh4eHl6mk2/yX3f1fr5yCMZvNf9QDgYP3w8PDwcvU0m/+i/d9A3vY8J2E0m/+KBwAn64eHh4eXq6fZ/Bfs/0bytuM5CqPZ/Jc9ADhaPzw8PLxcPc3mP7f/G8rb3HMVRrf5L3kAcLZ+eHh4eLl6ms1/1mDeZp6rMOW4S3SfBpowlhcPDw8Pr9ybNZv/XcbyNvdchSnH7aL7NNCksbx4eHh4eCJTotf8Y91mLG9zz1WYctwkuk8DbTaWFw8PDw9PZIvoNf/4+zcay9vccxWmHD8Q3aeBthvLi4eHh4cnslP0mn+sq43lbe65ClOOq0TxaaCiKI4xlhcPDw8PT+RY0Wv+sa4wlre55ypMOb4jik8Dbdgwc6KxvHh4eHi998Lefg/F5h/r25bytuK5ClOOb4ri00AzMzP3MZYXDw8Pr/fe9PT0fRWbf6yvW8rbppd08pa9r4ri00DhTnaqsbx4eHh4vfemp6dOU2z+8X//iqW8bXlJJ1cIc7Hm00BTU1MPsZQXDw8PD++MyampyYcqNv9YF1nK24aXdHINL9xYF2o+DTQ5OXqYpbx4eHh4eGdMhnGGYvOP9RlLedvwkk6u4RVF8XfKTwP9jKW8eHh4eHhnTA6Hw7NFr/nH+oSlvG14SSfX8MIB4MPKTwM901JePDw8PLyDzezZotf8Y73fUt42vKSTa3jhAPAW5aeBXmwpLx4eHh7eQe83Ra/5x3qjsbyNvaSTa3jhAPAa0X0a6Pct5cXDw8PDOzjOE73mH+u/G8vb2HMV5lHl00AvFd2ngd5gKS8eHh4e3sHxJtFr/rFeYixvY89VmMo7R3SfBnqfsbx4eHh4eCIfEL3mH+tZxvK27zkIc5boPg30SWN58fDw8PBEPi16zT/WE4zlbddzEuZ00X0a6BJjefHw8PDwRC4VveYf6yeM5W3PcxRmn+g+DXSVsbx4eHh4eCL/JnrNP9Y9jeVtx3MVZt53Qq9UDe4Md4aaNJQXDw8Pr+/elJR7s1bzj3WkobzteK7ClGMgK9wRpJ07wwmG8uLh4eH13TtZdJt/7CmFobzteK7CHBrfF907w6OM5cXDw8Prs/cY0dvvY33PWN52PFdhDo34rU2ad4bnGsuLh4eH12fv+aK338f6vLG87XiuwhwafyG6d4bfM5YXDw8Pr89e/JQ+rf1+tiiKdxvL247nKsyh8SrRvTNcYCwvHh4eXp+9d4vSfh9/fzAoXmUsbzueqzCHxgtF8c4QDgAXGsuLh4eH12fvi6K038caDgcvNJa3Hc9VmEPjTFG8M4S60lhePDw8vN56YXxfcb+fHY1Gj7OUV2H90k3ethdusHtq3hlC3bVr1zFbrOTFw8PD66s3Gg03xj1Zcb+fnZmZvpeVvG17SSfX8Hbv3rX58DuEtHhnqOoBVvLi4eHh9dWbnJz8Cc3mH+rOqTCs5G3TSzq5phdutKu0mn/1s2dayouHh4fXR284HP6y5h974X//rqW8bXpJJ9f04gv1FJt/rNdayouHh4fXRy/s9a9T/mPv05bytuklnVzTC3eKd4he84/1MUt58fDw8Prohb3+E8p/7J1vKW+bXtLJNb3wo5eJXvOPdbWlvHh4eHh99ML+vOxHv9epGvv9b1jK26aXdHJl73Gi1/zHdbShvHh4eHi98jZt2rRHdJt/rEdbydu25yrMYd6xotv8V7xjOFg/PDw8PNOeLPMlQHVqDfv93azkVVg/P2GW8K4Rvea/7FNDjtYPDw8Pz7L3EtFt/tcYy6vruQoj8knRa/6x3mosLx4eHl6fvPNF95neTxjLq+e5ClOO14le84/1TWN58fDw8PrkfUt0L/P+obG8Op6rMIfGc0Wv+ce6K9RRhvLi4eHh9cXbIeUerHmZ99mG8up4rsIsHD8ues1/XGcZyouHh4fXF+9s0W3+sU4zlLd9z1WYxWMm1AHRa/6xXm0oLx4eHl5fvNeIbvOPvWODobzte67CLD2+LnrNP/7+hcby4uHh4fXBu1D0mn+srxvL277nKszS43+JXvOPdduePbu3GMqLh4eH592Lz+7eLnrNP9abDeXV8VyFWXqcI3rN/2BNTk4+zFBePDw8PO/eT4lu84/1HEN5dTxXYZYY4Ybfp9n8Yw0Gg9+2khcPDw+vB95vi27zj3VPQ3l1PFdhlvD27//x+GURP9Bq/pX3V1by4uHh4fXA+6joNv9r9u7dM2Eor47nKswyXlEUH1Fs/rFuCTVlJS8eHh6eY2861K2i1/xjfchQXnUv6eTa3mAw+B3F5j+uR1nJi4eHh+fYe6zoNv94Wfe3DOVV9ZJO3oU3OTmKmGbzj/UHVvLi4eHhOfb+SBSbf/XC7p8ylFfNSzp5V95UGOHHt4le8491mZW8eHh4eI69b4hi849v7d67d89mQ3nVvKSTd+xdKHrNf1zHGcqLh4eH583bK7rNf7Yois8ayqvqJZ28Y+880W3+sV5gKC8eHh6eN++Fotj8y7d1F68ylFfVSzp5x97DRbf5x/qQobx4eHh4rrww/lL7c11Go9EjrOTV9pJO3rEXw94kes0/1s3VPBby4uHh4bnx4mu5wn58s2bzD3XDhg0z9Z4aV87bhecqTA3vg6LX/Mf104by4uHh4bnwhsPh2crNP/7v77OStwvPVZga3vNFt/nHequhvHh4eHguvKIo3qnc/GM910reJJ6rMIvH3UW3+ce6cffuXZuN5MXDw8PL3otvy4tPzys3/1h7LORN4rkKs/y4VPSaf/UikuGTDOXFw8PDy9oLe+rPddD8L7GSt3PPVZiVx2tFsflX7yN9l6G8eHh4eFl7YU/9C+XmH+vVVvJ26rkKU4MTxeZf1U27dh2zxUhePDw8vGy9sJdui6/+F93mH+sRFvJ26rkKU2NMT09PdvBWkvi/P8lCXjw8PLycveFw+POi3/xrfaNrjuu3oucqTE2vKIr3d/Bq0ndbyYuHh4eXqxd+9B7Rbf6z1Rwm8nbquQpT0wsnyqd18IKSeKLcYiEvHh4eXo7eYDDYGn58q+g2/1hPtpC3c89VmJpeh9eUnm8hLx4eHl6m3q+IfvOPvWDGSN5uPVdh1uCFH10g+k8rXWwlLx4eHl6G3pdFt/nHeqehvN16rsKszXui6J8sY51qJC8eHh5eTt4DRX9/jvWzRvJ277kKszZvOtQNon/n+nMjefHw8PBy8v6n6O/PN0rZCyzkTeYlnTyh93bRvXPFioeMjUby4uHh4eXgxWvy14v+/ny+kbzJvKSTJ/YeL7p3rnE9y0hePDw8vBy8Z4t+84/1OCN5k3hJJzfgxRcDXiu6zT/W54zkxcPDw8vBu1D0m/91oSaN5E3iJZ3ciPdm0W3+Y+t+RvLi4eHhWfbuJ908M/smI3mTeUknN+LtF+XmH6soircayYuHh4dn2Ttf9Jt/rIPe3psAABoDSURBVIcYyZvMSzq5Ie9rotj8K+OOTZs2HW8kLx4eHp5Fb1eo20W/+V9iJG9SL+nkhrz/LLrN/2ANBsWrjOTFw8PDs+idJ/rNP9aLjORN6rkK08DbHuqHms2/quuGw+EmA3nx8PDwrHmbZYW3/rW4P99WFMUOA3mTe67CNPHCHeIC5eY/d/K0kBcPDw/PmPfrot/8Y73DSF57nqswa/AmJ0eP6aD5x/pOqGHqvHh4eHiGvEGob4t+858djcI/J31ee56rMGv09u9/8FS4Y31LufmP66mp8+Lh4eEZ8p4mHTT/8PuXx73eQF5bnqsw6/QGg+J3RL/5x/pSqInUefHw8PAMeHEvXPStfxqvyRoMBr9jIK8tz1WYBl5RFHcLP75DdJv/uJb8Bqou8+Lh4eEZ8M6WDpp/fCv2li2b724grx3PVZh2vLeJfvOP9dVQhYG8eHh4eKm8+Nf/V0S/+ccPY3u7gby2PFdh2vHix1DeJbrNf1w/ZyAvHh4eXirvP0gHzT/W9PTUgwzkteW5CtOe93HRb/6xLpXqWQBn64eHh4e32oiv/L9MOmj+4a//jxnIa89zFaY970zRb/7j+gUDefHw8PC69p4uHTT/WKPR8KcN5LXnuQrTrrfgupSscOdqeGf91r59J80YyIuHh4fXlRf/+v+GdND8Q12yd++eFd911UFem56rMO16zxL95n/w94fD4XMN5MXDw8PryjtHumn+8X9/hoG8Nj1XYdr1JkNdKcrNv6p/2b1711Zn64eHh4e31JgJ9S8dNf8rpNzLU+Y17yWd3LD3W9LRNarBoHiFgbx4eHh4ql4Yr+io+cd6aeq81r2kkxv3jgh1c0d31ltCHZs4Lx4eHp6aVxQTu8N+d0tHzf+mUNtS5rXuJZ08B68oivM6urPGenvqvHh4eHhaXoffuhrr91Lnte4lnTwHb/v2I3eGO9X1HdxZY8UPIDo9ZV48PDw8DW9ycvSTYc+7q6Pmf0OoI1PmzcFLOnku3mAw+N0Omv+4LpYlPiK4y7x4eHh4bXqnnnrKVPjr/6KOmn+sl6fMm4uXdPJcvO3bj9gRfnSt6Df/cT09ZV48PDy8Nr3hcHhOh83/eql57T+X9dPykk6embeurwpe5wsI41tXNiXOi4eHh9fYO+qondvDvndVR80/1m+nzJuT5yqMsrcx1PdFv/mP648S58XDw8Nr7BVF8WcdNv9rQm1OmTcnz1WYDryXSDfNP9adofYnzouHh4e3bm9qavL0sPcd6PA1VC9OmTd7z1WY9r3pUPHpee3mP65LpqenJx2tHx4eXk+8E044flNRTFzaYfO/KtSGVHmz91yF0fN+Vbpp/ger+oRAT+uHh4fXA28wGPy3Dpt/rP+YMm/Wnqswut4w1Nekg+ZfGbfNzEyf4mj98PDwnHszMzP3DXvXD6W75n9ZqGXf157b+nXquQrTjfdo6ab5H6yiKL4Q30fraP3w8PCceqed9oDpsG99Vrpr/rHOTJU3a89VmG69j0oHzX+e9yuJ8+Lh4eGt6g0GgxdJt83/IynzZu25CtOtty/UHR01/1jxy4JOTpgXDw8Pb0VvZmYm7lE3SnfN/45Q90yVN3vPVZiOvaIoXt9R8x/Xl2SF61zaefHw8PCW8/btO2km/Ojz0l3zj/XaVHldeK7CdOwdeeQRR4U76TUdfshFrFemyouHh4e3nBd+FL99r8vmf7Us8ZG/ua5fEs9VmATeYDD41Y7f6hI/IGjZf3xu64eHh5e/NzFx8FtMD0h3zT/W81LldeO5CpPAu+997x0/HOj/Sbcn338NdUSKvHh4eHjzvfBH0Nbw4+9It83/K6EGKfK68lyFSec9LNRd0t2dP9Y7E+bFw8PDG3sXSLfNPz4LenrCvO68pJM78d4g3TX/cf1iwrx4eHh4z5Bum3+sP0+Y152XdHJHXnwa7ErprvnHujH87j4n64eHh5eXd69QN0m3zT9+F8vWRHndeUknd+g9Xrpr/mPvGzt37tjhZP3w8PDy8DaFulS6bf6xzk6U16WXdHKn3vulu+Y//qjgD+/f/+ApJ+uHh4dn25sI9V7pvvm/J1Fet17SyZ16dwt1nXTU/Mc1GAx+y8n64eHh2fZeJt03/xtCHZsor1sv6eSOvV+WDpt/5cX34D4mUV48PLx+eI8I9SPptvnHOidRXtde0skde/Epsr+V7pr/uH4Qam+CvHh4eP69u0v56XtdN/+/CzXhYP3Mea7CWPLCHf3EULd02PzH9cVQU13nxcPDc+3FPeUi6b75xy9BO9HB+pn0XIWx5g2Hgxd03PzH9W4pn4XoNC8eHp5LL+4lb5Pum3+s5zpYv3w8V2EMeEVRvLfj5j+u302RFw8Pz533+5Km+X/Ayfrl4bkKY8Q74ohtR0n52f1dNv9xvaDrvHh4eK6850ia5n/FYFBsd7B+eXiuwtjzHibl51d32fxj3SHVOwMyXz88PLzuvYeHul26b/5xr3ykg/XLw3MVxq73Wklzkr4p/O4pDtYPDw+vO+8+oa6X7verWK92sH55eK7C2Pbiq2j/Qbp/MMXfv2LTpk3HZ75+eHh43XjHhPoXSdP8//7444/bmPn65eO5CmPfu3eof5dum//BKoqJf9ixY/vOzNcPDw9P14tftPP3kqb53zo9PXW/zNcvL89VmDy850vHzX9efW40Gm7sOC8eHl4eXtwbPidpmn/8OPMXZL5++XmuwuTjvVm6b/7jn8VPKJzuOC8eHp5tbzLU/5ZEzb8oindkvn55eq7C5OPFBvwl6b75j+v/SI1PC2wxLx4enl0vfiLcX0qi5h9+/yu7d+/amvH65eu5CpOXtyfUNQma/7ji1xYPO8yLh4dnzxuEukDSNf9rN27ccHLG65e35ypMZt5oNHpseAAcSND8x3V+qKKrvHh4eKa8+BG/b5R0zf/OsAc+PuP1c+MlnbzP3mAw+K+Jmv+4/lQO+96AnNYPDw9vXV58zMfHfqrmH1/0918yXj83XtLJ++7t3//gqaIo4tPxKZr/uOJfAUUXefHw8JJ7sfn/iSRs/mHP+8u492W6fm68pJPjld5wONwcfnyZpGn+47pgw4aZUY7rh4eHV9uL1/zPl4TNP9Q3q88kyXH9XHlJJ8db4N0r1HWSpvkfrHAq/+DevXs2Z7p+eHh4K3vxnT8flLTN/7qZmen7Zbp+7rykk+Mt8n4q1G2S7sEZDwGfPProo47MdP3w8PCW9jZI+fbflM3/jsnJ0WMzXT+XXtLJ8ZYcPx/qLknQ/OfVZ4bDwZaO8uLh4el6m0J9QtI2/7uGw+FzMl0/t17SyfGWHS+XdM1//LMvhNreUV48PDwdb0eoiyRt84+v+D830/Vz7bkK48iLr9J9i6Rr/uO6PNQ9O8iLh4fXvndCqG9I4uZfFMX5ma6fe89VGGdevHE+Luma/7iulfK1Cdp58fDw2vMeEupqSd/8P3XCCcdvynD9+um5CpO/F6/DfzVh8x9XfGHiL3SQFw8Pr7n3ZFnla8el2X5Qs/lPXHbkkUccleH69dNzFcaJt2HDhhPDg+nKhM1/XPGFiS/VzouHh9fIe5ms8iJiaWc/WM27YuPGjSdmuH799FyFcebNzMzcJzygvpew+c+v+FXGo5zWDw+vB178gJ8/k+73g6W8q2dmpk/JbP3667kK49Sbmpo8Lfzoeknb/Mf1N9u2bT06p/XDw3PsxXfrfExsNP/rpqenHpTZ+vXXcxXGv/fgUDdJ2uY/Nv41HEoemtn64eF5834s1D9J+v0g1q2Tk5NnZLZ+/fZchemH99BQt0j6B3usHw4Gg+dntn54eF68Xwp1q9ho/v8+OTl6dGbrh+cqTH+8x0iNjwzu8N0Dbwg1qZgXDw/vkBc/0/91YuOZwFh3jEajszNaP7x5v+gnTL+8J4b6kaRv/uO6ONRxinnx8PBEjg31ebHT/A8Mh8NfzGj98A77ZT9h+uc9PdQBSd/8x/W9UI9QzIuH12fvkaG+L7aa/7MzWj+8JQA/YfrpPTXUHZK++Y8rvgc5Pj05qZQXD69X3qZNG4fhx+eGulNo/nhteq7C9Nf7mVA/NND859dXQ91PKS8eXi+88JjbF378Zen+8buSd/toNHxKDuuHpzCsh+mjNxqNHhUemDcZaf7jih9H+mt79+6ZsL5+eHjWvPCjZ8ga3vEj7T9+l/JuDXvNT+ewfngKw3qYPnvxPbjhAXqDkeY/V0VRfGjbtq3HWF8/PDwL3tatW44JP/qQGHn8znNuCHvMw6yvH57SsB4G7+AhIH4L2A/E3uZxZfjL4Wesrx8eXkpvNBrGy3lXib3H7w+mpqYeYn398NbmJZ0cT827V6grxc7mMd97T6idLedd88DDs+TFb80riuJNsoYv8jm8FB+/35uennqg5fXDW5+XdHI8Ve+kUN+W9JvHUl58K9OSXy/cIG/tgYdnyRsOh88Ij4+rRe/x1sS7fMOGmXtZXj+89XtJJ8dT9+KXhHxGbDX/+fVRWeXDg5zdHnh4c97mzZuOC3/1f9jaa3bGRvi3fXHr1i3HWl0/vOZe0snxOvHix4ZeIPaa/7jiZ5nH7zAfGF0/PLxWvdNOe8D0cDh44fhdO2Kz+X9w9+5dWy2uH157nqsweMuOItRrxV7zn19fCPUgo+uHh9eKF79BMzTXiww83pb1BoPiD+IhxeL64bXruQqDt+p4rlTfH2Cs+Y8rvgDqPeF39xhdPzy8dXmbNm3aE1/kF+7bdxp6vB3uHRgMBi+yuH54HXmuwuAtNR4THug3Gmz+871bwkb0u3v27N5ibf3w8NYypqenJ8N9+cWHP+bE1uMt1s3VN/qZWj88mj9ey9709NSPhwf8FYY3o3F9ezgcPtXa+uHh1RxPDvfhfzJ+2I51RdwTrK0fHs0fT8nbsmXz3cMDf9V3CKxUHV5G+L+hTrW0fnh4K4x4X/2k0ctsC7yiKD4d9wJj64dH88fT9qpvGTtPjGxGNbyPh3qAlfXDwzts3FvKD7q6K5Pm/6aTTz5xo6H1w6P54yXwfl7W8KUjiTe3gy8UDLXP0Prh9ds7PtQbQh2Q9I+POt6/D4fDcwytH14qz1UYvCZebKiXie3mP7/id6PHg8BJRtYPr3/ecVI2/oPvrBFbj4/lvH+cnp4+1cj64aX2XIXBa+ptC/URsd/859cdod4YfvceBtYPrx/ePUK9Ucr7nvXHx1wVRfGRHTu27zSwfnhWPFdh8Nrw4ocGvVzKv7Cz2dzC7x8IG9z7p6YmT3d2e+DZ8R4c6r1SPdUvuvfnNr0Dg0Hxiv37Hzzl7PbAa+q5CoPXpvcTUn2ZkPHNbSnvy+F/f4Ys8fHCHa4fng8vHoifIOULUFPdn5t4/zoajR7p6PbAa9NzFQavVW8wGGwNf1W/y/Dmtpp3eahfC7UhxfrhZe3F79CIh8gVXxdjvPm/d9u2rUc7uT3wNDxXYfBUvPiK4QnDX1xSw4tftRrf7nhiivXDy8qLLyqN95VVv57XcPO/KdQzndweeB14SSfHs+9t2DATm+e6PzjI0GZ5cajnybxnBXK8PfBa9eJf+0+R8mn++DbTnO7Ph9cXw++emPntgdehl3RyvKy8+MFB8at7F7z6ebUyulleH+oN4XdPyfj2wGvmxbe+xr/2r5H878/xhYnnhYP6KOPbA69jL+nkeNl6Dw31j5LvZrnAK4riwvj97Nu2bT0m09sDr6a3ZcvmXeFHLwj1eTFy/2vBi4/Fh+Z4e+Cl9ZJOjpe1NxPq3FC3S16b5Upe/Cvqs1K+cPAo5fXD68g78sgjjhoOh88JB72/kjU+eyXd3v/WasQPIHpdqI053R54drykk+O58O4f6iKxv1mu1Zt/GNihuH54Ct727UfsGDf9cNvenuH9b7X6SqjTtNYPrx9e0snx3HjxtQEvCXWr2Nwsm3q3SfkJifGp470K64fXjrc31Auqpn+bo/vf/IqPsfhYGyqsH17PvKST4/nywkZ2fFFMfNzQZqnlxQ9Iip8B/4Tdu3dttnp79MCLTfB0KV/IF9/dYfX+0pb3qVAnt7h+CwZe/zxXYfDSe/HjRqvPDbjW2ea7nHdr/ItzMBi8aHp66n579+6ZaLJ+1m/fxF5c2/iVu/8p1F9L9YyT6N6+FrwfhHpmlb/J+i078PrpuQqDZ8c74oht8UV08S+zZV8kuFIZ2nzX6t0o5fvJz41LI+WLJde8ftZv3468uEE9UMrXYcRvflz27XoZ319Wqvgiv/hM004jtweed89VGDwL3n1CfUzy23zb8uLrBz4X6jWhzhZeQ7CSd1yos6Rcq7hmtQ6Pzu4v4/obKZ/tSHl74PXJcxUGz5oX/xq+VPLYfLW9+CxBvGb9tsFg8OLRaHRm9RkEOd++tb2dO3fsmJqaekj1Kv0/kfIZk1U/enepMnr7NvG+JeWnEnZ2e+Dh+QqDZ9WblPIVzDeIzc03tfdPUr7b4I+lfNr7Z6V8m+VmpdtD09tS/dvPqrL8cWj2fx0yfiej26NLLz4mfkPKx4jG7YGHR/PHM+HF1we8UcprnBY23xy8+EKwL0n5ffR/EOo3Qz0n1FkTE3J6fAHi1q1bjr3//e8zo3X7Bn9Q3Xb3kvLV92dV/4bfrP5N8d92cfVvtbZ+Vr3xdf5lP3jK4OMXz4vnKgxebt7Jod4ZNsc7nWzmVrzrpHyr4sVVxevpH6/q/VK+oO5dUjaeN1T///dUP/t4UUz8bfx45PD/fjlW8KJ1neG8OXp3hnqHlN8+uOww/vjFy91zFQYvS29mZvr+oeG8Y3wQkPw2czy8ul78tsF4mecUWWXk8vjFy9hzFQYva29qaurHpPxLtNZXsh5eDpoDnm8vPgNzqtQYOT5+8TL0XIXB8+LFF4/Fg4DlzRwPr64XG/+DpOZw8PjFy8VzFQbPm7c/1AelvF5qZTPHw6vjxfvsB0I9RNYwnD1+8ax7rsLgefXuIeXXni746FfJtzng+fXiBz+9LdQ+WeMw9HjD64vnKgyedy9+Le/LQl0peTYHPL/e1UVRvDrUMbKOYfTxhtcTL+nkeHhrGVNhDAaDZxfFxGWZNAc8v97l8dMcjznm6K1WHh94eGrDehi8/ninnfaA6dFo9MT4CXPhRwfEXnPA8+kdiPe5eN+L90Grjw88vFaH9TB4vfZ2SXl5IH6crqdmg2fHuyI+zb9x44aTMnx84OEt8pJOjoen4BXx/1zKtxHeIfk2GzwbXnxmKb6N7yn79p004+DxgYc35yWdHA9P2Ttayi+iuUTyaDZ4drz4rXznhrq7ofszHl6rXtLJ8fA68iakfD/2H4b6rsFmg2fD+26oP6ruK/E+Y/X+jIfXipd0cjy8FF78Lvr4PfShMVzlqHnhrc+L31wY37f/hFCDpe4v1u/PeHjr9VyFwcNbi3fqqadMxa/SlfJDhv5N8mteeOvzrpVDTX9Y9/5i/f6Mh7dWz1UYPLwGXmwEjwz1mlBfE7vNC2993iXVbfsIOewv/cOHk/szHt7aPVdh8PDW78UXED5DyncTXC++mmEfvFukfPV+fBHontVu7PEwdP/Dw6P54+EZ8OJfjA8MdW5oLl8OdVdmzbAv3rfjazviTR9qcq03suH7Hx6erucqDB6eordz544do9HozNBsXinlX5k/FHvN0Lv3o3gYiw1/OBw+bdu2rbus3l/w8Ex7rsLg4XXvxdcPxGcI4tPN8ZLB1ZJ3c7Xo3SjlYevceJPs3r1rc8b3Fzw8G56rMHh4Nrz4HvL4dbC/GOq8UB+V8j3mVpurNe+71ZqdV63hPuF9+Xh47XuuwuDhGfYGg8HWycnRGcPh4IXxqetQnwvN8GbJu1k38W4PdamUb8mL3+MQ35Z3dFe3Bx5e7z1XYfDwMvP27t0T/7LdHSp+HsHTQ7081FtCfTLUP4f6kdho1uvx4nX6fw4Hnb8L9dbBoDi3yviTVeai6fpZv33x8Ex7rsLg4fnz4od13EPK96/HtyX+eqjfCw31jaE+EOpTRTHxtdBor5LyL2rt5n9bqCtDfVXKQ8r7Qv2P+G+q/m3x3/iIDRtmTjr55BM3Glg/PDy8FX7ZTxg8PLzNofZKeWh4YFX7469W9aRQTwn1tFDPizUcDn4pvpJ+NBo+Nb67IdbExMHfGf/+PSpzs8G8eHh46/VchcHDw8PDw8OrjySbHA8PDw8PDy+pl3RyPDw8PDw8vO69pJPj4eHh4eHhde8lnRwPDw8PDw8vjZd0cjw8PDw8PLw0XtLJ8fDw8PDw8NJ4SSfHw8PDw8PDS+MlnRwPDw8PDw8vjecqDB4eHh4eHl49z1UYPDw8PDw8vHV6rsLg4eHh4eHh0fzx8PDw8PDwLE2Oh4eHh4eHR/PHw8PDw8PDU/ZchcHDw8PDw8Or57kKg4eHh4eHh1fPcxUGDw8PDw8Pr57nKgweHh4eHh5ePc9VGDw8PDw8PLzagJ8weHh4eHh4ePWRZJPj4eHh4eHhJfWSTo6Hh4eHh4fXvZd0cjw8PDw8PLzuvaST4+Hh4eHh4aXxkk6Oh4eHh4eHl8ZLOjkeHh4eHh5eGi/p5Hh4eHh4eHhpvKST4+Hh4eHh4aXxXIXBw8PDw8PDq+e5CoOHh4eHh4e3Ts9VGDw8PDw8PDyaPx4eHh4eHp6lyfHw8PDw8PBo/nh4eHh4eHjKnqsweHh4eHh4ePU8V2Hw8PDw8PDw6nmuwuDh4eHh4eHV81yFwcPDw8PDw6vnuQqDh4eHh4eHVxvwEwYPDw8PDw+vPpJscjw8PDw8PLykXtLJ8fDw8PDw8Lr3kk6Oh4eHh4eH172XdHI8PDw8PDy8NF7SyfHw8PDw8PDSeEknx8PDw8PDw0vjJZ0cDw8PDw8PL42XdHI8PDw8PDy8NJ6rMHh4eHh4eHj1PFdh8PDw8PDw8Op5/x+2ECC8RE5QmgAAAABJRU5ErkJggg==;rotation=310;fontFamily=Inconsolata;fontSource=https%3A%2F%2Ffonts.googleapis.com%2Fcss%3Ffamily%3DInconsolata;labelBackgroundColor=none;" parent="1" vertex="1">
          <mxGeometry x="420" y="786" width="22" height="22" as="geometry" />
        </mxCell>
        <mxCell id="W_OnjFls6b9u1241AHmh-97" value="" style="shape=link;html=1;rounded=0;exitX=0;exitY=0.5;exitDx=0;exitDy=0;entryX=1;entryY=0.5;entryDx=0;entryDy=0;fontFamily=Inconsolata;fontSource=https%3A%2F%2Ffonts.googleapis.com%2Fcss%3Ffamily%3DInconsolata;labelBackgroundColor=none;" parent="1" source="OM572cekEQb-akaccsAw-57" target="OM572cekEQb-akaccsAw-119" edge="1">
          <mxGeometry relative="1" as="geometry">
            <mxPoint x="660" y="590" as="sourcePoint" />
            <mxPoint x="660" y="680" as="targetPoint" />
          </mxGeometry>
        </mxCell>
        <mxCell id="W_OnjFls6b9u1241AHmh-98" value="L" style="resizable=0;html=1;whiteSpace=wrap;align=right;verticalAlign=bottom;fontFamily=Inconsolata;fontSource=https%3A%2F%2Ffonts.googleapis.com%2Fcss%3Ffamily%3DInconsolata;labelBackgroundColor=none;" parent="W_OnjFls6b9u1241AHmh-97" connectable="0" vertex="1">
          <mxGeometry x="1" relative="1" as="geometry">
            <mxPoint x="4" y="20" as="offset" />
          </mxGeometry>
        </mxCell>
        <mxCell id="W_OnjFls6b9u1241AHmh-102" style="edgeStyle=orthogonalEdgeStyle;rounded=0;orthogonalLoop=1;jettySize=auto;html=1;exitX=1;exitY=0.5;exitDx=0;exitDy=0;entryX=0;entryY=1;entryDx=0;entryDy=0;endArrow=none;endFill=0;" parent="1" source="W_OnjFls6b9u1241AHmh-100" target="W_OnjFls6b9u1241AHmh-73" edge="1">
          <mxGeometry relative="1" as="geometry" />
        </mxCell>
        <mxCell id="W_OnjFls6b9u1241AHmh-100" value="DType" style="ellipse;whiteSpace=wrap;html=1;align=center;fontFamily=Inconsolata;fontSource=https%3A%2F%2Ffonts.googleapis.com%2Fcss%3Ffamily%3DInconsolata;labelBackgroundColor=none;fillColor=none;" parent="1" vertex="1">
          <mxGeometry x="220" y="700" width="100" height="40" as="geometry" />
        </mxCell>
        <mxCell id="W_OnjFls6b9u1241AHmh-101" style="edgeStyle=orthogonalEdgeStyle;rounded=0;orthogonalLoop=1;jettySize=auto;html=1;exitX=0;exitY=0.5;exitDx=0;exitDy=0;endArrow=none;endFill=0;" parent="1" source="W_OnjFls6b9u1241AHmh-81" edge="1">
          <mxGeometry relative="1" as="geometry">
            <mxPoint x="430" y="860" as="targetPoint" />
            <Array as="points">
              <mxPoint x="430" y="890" />
            </Array>
          </mxGeometry>
        </mxCell>
        <mxCell id="W_OnjFls6b9u1241AHmh-103" style="edgeStyle=orthogonalEdgeStyle;rounded=0;orthogonalLoop=1;jettySize=auto;html=1;exitX=1;exitY=0.5;exitDx=0;exitDy=0;entryX=0.4;entryY=1.01;entryDx=0;entryDy=0;entryPerimeter=0;endArrow=none;endFill=0;" parent="1" source="OM572cekEQb-akaccsAw-159" target="OM572cekEQb-akaccsAw-100" edge="1">
          <mxGeometry relative="1" as="geometry">
            <Array as="points">
              <mxPoint x="710" y="1060" />
              <mxPoint x="710" y="1060" />
            </Array>
          </mxGeometry>
        </mxCell>
        <mxCell id="99a3MrbKA4sMqq4AETfv-3" style="rounded=0;orthogonalLoop=1;jettySize=auto;html=1;exitX=0.5;exitY=0;exitDx=0;exitDy=0;endArrow=none;endFill=0;fontFamily=Inconsolata;fontSource=https%3A%2F%2Ffonts.googleapis.com%2Fcss%3Ffamily%3DInconsolata;labelBackgroundColor=none;entryX=0.5;entryY=0;entryDx=0;entryDy=0;" parent="1" source="99a3MrbKA4sMqq4AETfv-2" target="99a3MrbKA4sMqq4AETfv-4" edge="1">
          <mxGeometry relative="1" as="geometry">
            <mxPoint x="608" y="440" as="sourcePoint" />
            <mxPoint x="620" y="530" as="targetPoint" />
          </mxGeometry>
        </mxCell>
        <mxCell id="99a3MrbKA4sMqq4AETfv-4" value="Employee" style="whiteSpace=wrap;html=1;align=center;fontFamily=Inconsolata;fontSource=https%3A%2F%2Ffonts.googleapis.com%2Fcss%3Ffamily%3DInconsolata;labelBackgroundColor=none;fillColor=none;rounded=0;" parent="1" vertex="1">
          <mxGeometry x="509.44" y="540" width="100" height="40" as="geometry" />
        </mxCell>
        <mxCell id="99a3MrbKA4sMqq4AETfv-5" value="" style="rounded=0;orthogonalLoop=1;jettySize=auto;html=1;exitX=0;exitY=1;exitDx=0;exitDy=0;endArrow=none;endFill=0;fontFamily=Inconsolata;fontSource=https%3A%2F%2Ffonts.googleapis.com%2Fcss%3Ffamily%3DInconsolata;labelBackgroundColor=none;entryX=0.5;entryY=0;entryDx=0;entryDy=0;" parent="1" source="OM572cekEQb-akaccsAw-77" target="99a3MrbKA4sMqq4AETfv-2" edge="1">
          <mxGeometry relative="1" as="geometry">
            <mxPoint x="712" y="425" as="sourcePoint" />
            <mxPoint x="559" y="540" as="targetPoint" />
          </mxGeometry>
        </mxCell>
        <mxCell id="99a3MrbKA4sMqq4AETfv-2" value="" style="shape=image;verticalLabelPosition=bottom;verticalAlign=top;imageAspect=0;aspect=fixed;image=data:image/png,iVBORw0KGgoAAAANSUhEUgAAAgAAAAIACAYAAAD0eNT6AAAACXBIWXMAAAsTAAALEwEAmpwYAAAgAElEQVR4nO3dCbxlV1Xn8fXOvfcNNSdVlZBKUamQgWKMhCBYRAlzUDABhBaVMchgt9gigvrphjTqp8PgAA7dwIcmjEFmROkWpJEpQAhKExIGg6gkERIyJ5KESl7vXefcV+/Vm85756yz117ntz+f9ekOz/fd9d/33r32u+cO8qhHnTEZahRK1jPi71W/Pzmv8PDw8PDw8Cx7rsLg4eHh4eHh1UeSTY6Hh4eHh4eX1Es6OR4eHh4eHl73XtLJ8fDw8PDw8Lr3kk6Oh4eHh4eHl8ZLOjkeHh4eHh5eGi/p5Hh4eHh4eHhpvKST4+Hh4eHh4aXxkk6Oh4eHh4eHl8ZzFQYPDw8PDw+vnucqDB4eHh4eHt46PVdh8PDw8PDw8Gj+eHh4eHh4eJYmx8PDw8PDw6P54+Hh4eHh4Sl7rsLg4eHh4eHh1fNchcHDw8PDw8Or57kKg4eHh4eHh1fPcxUGDw8PDw8Pr57nKgweHh4eHh5ebcBPGDw8PDw8PLz6SLLJ8fDw8PDw8JJ6SSfHw8PDw8PD695LOjkeHh4eHh5e917SyfHw8PDw8PDSeEknx8PDw8PDw0vjJZ0cDw8PDw8PL42XdHI8PDw8PDy8NF7SyfHw8PDw8PDSeK7C4OHh4eHh4dXzXIXBw8PDw8PDW6fnKgweHh4eHh4ezR8PDw8PDw/P0uR4eHh4eHh4NH88PDw8PDw8Zc9VGDw8PDw8PLx6nqsweHh4eHh4ePU8V2Hw8PDw8PDw6nmuwuDh4eHh4eHV81yFwcPDw8PDw6sN+AmDh4eHh4eHVx9JNjkeHh4eHh5eUi/p5Hh4eHh4eHjde0knx8PDw8PDw+veSzo5Hh4eHh4eXhov6eR4eHh4eHh4abykk+Ph4eHh4eGl8ZJOjoeHh4eHh5fGSzo5Hh4eHh4eXhrPVRg8PDw8PDy8ep6rMGvw9oQ6M9Q5VZ25ceOGEwz9+/Dw8PDwFLyJiYk9o9Hw8cPh4HmxRqPR46v938S/L6nnKszCcXSoV4S6PNTs/Ap3iHFdPhgMXrl586bdDvLi4eHh4ZVjbv+ft9/PlZS94PLq/+boBP++9J6rMIdGEeqloW6Wwxq/LGz+8+8MN1e/U3Tw78PDw8PD0/EW7P8rNP/5VWv/N5p3fZ6rMIfG5lAfkyUav9S7M3ysMnLJi4eHh4dXjgX7f83mX2v/N5p3fZ6rMIfGhlBfkPU3/3F9obKs58XDw8PDK8eC/X8dzX/Z/d9o3vV5rsIsHO+U5s1/XO/MIC8eHh4eXjnm9v8GzX/R/m847/o8V2EOjbOkveY/rrMM58XDw8PDK8fc/t9C85/b/w3nXb/nKkw5JkJdIu02/1iXybwXhRjKi4eHh4dXjrn9v8Xmf3D/P/XUU6YM5m3muQpTjodL+81/XA83mBcPDw8PrxwH9/+Wm//B35+cHD3aYN5mnqsw5Xi96DT/WK83mBcPDw8Prxyv12j+sYqi+FNreRt7rsKU40ui0/xjXWQwLx4eHh5e+L2wv1+s0fyrA8CXrOVt7LkKU45rRaf5x9+/1mBePDw8PLzw+3GP1mj+VV1rLW9bXtLJW/YOiNI1oFAHDObFw8PDwwtO3KOVmn/83w9Yy9uGl3RyhTBazf9gWcuLh4eHh1dais1/XKbyNvWSTq7haTb/6gBgKi8eHh4e3qEDgOg1/zUdAHJYv6STa3iazb86AJjKi4eHh4dXeqLb/GsfAHJZv6STa3iazV/W8RSQdl48PDw8vDlPs/nX2v9zWr+kk2t4XAPCw8PD662n2fxX3f9zW7+kk2t4XAPCw8PD662n2fxX3P9zXD9XYeJ/C9eA8PDw8PrqaTb/Zff/XNfPVZjK02z+tQ4Ama8fHh4eXq6eZvNfcv93tX4Owmg2/1UPAA7WDw8PDy9XT7P5L9r/DeRtz3MSRrP5r3gAcLJ+eHh4eLl6ms1/wf5vJG87nqMwms1/2QOAo/XDw8PDy9XTbP5z+7+hvM09V2F0m/+SBwBn64eHh4eXq6fZ/GcN5m3muQpTDs3mv+gAYCAvHh4eHl45NJv/rMG8zTxXYcqh2fwXHACM5MXDw8PDK4da85fyAGAtbzPPVZhyaDb/uQOAobx4eHh4eOVQa/7x9w3mbea5ClMOzeY/azAvHh4eHl451Jr/YQcAK3mbea7ClINrQHh4eHg99ESx+c87AJjJ29hzFaYcXAPCw8PD66Gn2fyrA4CpvI09V2HKwTUgPDw8vB56ms2/2v9N5W3LSzp5yx7XgPDw8PB66Gk2/+pnpvK24SWdXCEM14Dw8PDweugpN/81HwCsr1/SyTU8rgHh4eHh9dNTbv5rOgDksH5JJ9fwuAaEh4eH109PdJt/7QNALuuXdHINj2tAeHh4eL31NJt/rf0/p/VLOrmGxzUgPDw8vN56ms1/1f0/t/VLOrmGxzUgPDw8vN56ms1/xf0/x/VzFSb+t3ANCA8PD6+vnmbzX3b/z3X9XIWpPM3mX+sAkPn64eHh4eXqaTb/Jfd/V+vnIIxm81/1AOBg/fDw8PBy9TSb/6L930De9jwnYTSb/4oHACfrh4eHh5erp9n8F+z/RvK24zkKo9n8lz0AOFo/PDw8vFw9zeY/t/8bytvccxVGt/kveQBwtn54eHh4uXqazX/WYN5mnqsw5dBs/osOAAby4uHh4eGVQ7P5zxrM28xzFaYcms1/wQHASF48PDw8vHKoNX8pDwDW8jbzXIUph2bznzsAGMqLh4eHh1cOteYff99g3maeqzDl0Gz+swbz4uHh4eGVQ635H3YAsJK3mecqTDm4BoSHh4fXQ08Um/+8A4CZvI09V2HKwTUgPDw8vB56ms2/OgCYytvYcxWmHFwDwsPDw+uhp9n8q/3fVN62vKSTt+xxDQgPDw+vh55m869+ZipvG17SyRXCcA0IDw8Pr4eecvNf8wHA+volnVzD4xoQHh4eXj895ea/pgNADuuXdHINj2tAeHh4eP30RLf51z4A5LJ+SSfX8LgGhIeHh9dbT7P519r/c1q/pJNreFwDwsPDw+utp9n8V93/c1u/pJNreFwDwsPDw+utp9n8V9z/c1w/V2HifwvXgPDw8PD66mk2/2X3/1zXz1WYytNs/rUOAJmvHx4eHl6unmbzX3L/d7V+DsJoNv9VDwAO1g8PDw8vV0+z+S/a/w3kbc9zEkaz+a94AHCyfnh4eHi5eprNf8H+byRvO56jMJrNf9kDgKP1w8PDw8vV02z+c/u/obzNPVdhdJv/kgcAZ+uHh4eHl6un2fxnDeZt5rkKUw7N5r/oAGAgLx4eHh5eOTSb/6zBvM08V2HKodn8FxwAjOTFw8PDwyuHWvOX8gBgLW8zz1WYcmg2/7kDgKG8eHh4eHjlUGv+8fcN5m3muQpTDs3mP2swLx4eHh5eOdSa/2EHACt5m3muwpSDa0B4eHh4PfREsfnPOwCYydvYcxWmHFwDwsPDw+uhp9n8qwOAqbyNPVdhysE1IDw8PLweeprNv9r/TeVty0s6ecse14Dw8PDweuhpNv/qZ6bytuElnVwhDNeA8PDw8HroKTf/NR8ArK9f0sk1PK4B4eHh4fXTU27+azoA5LB+SSfX8LgGhIeHh9dPT3Sbf+0DQC7rl3RyDY9rQHh4eHi99TSbf639P6f1Szq5hsc1IDw8PLzeeprNf9X9P7f1Szq5hsc1IDw8PLzeeprNf8X9P8f1cxUm/rdwDQgPDw+vr55m8192/891/VyFqTzN5l/rAJD5+uHh4eHl6mk2/yX3f1fr5yCMZvNf9QDgYP3w8PDwcvU0m/+i/d9A3vY8J2E0m/+KBwAn64eHh4eXq6fZ/Bfs/0bytuM5CqPZ/Jc9ADhaPzw8PLxcPc3mP7f/G8rb3HMVRrf5L3kAcLZ+eHh4eLl6ms1/1mDeZp6rMOXQbP6LDgAG8uLh4eHhlUOz+c8azNvMcxWmHJrNf8EBwEhePDw8PLxyqDV/KQ8A1vI281yFKYdm8587ABjKi4eHh4dXDrXmH3/fYN5mnqsw5dBs/rMG8+Lh4eHhlUOt+R92ALCSt5nnKkw5uAaEh4eH10NPFJv/vAOAmbyNPVdhysE1IDw8PLweeprNvzoAmMrb2HMVphxcA8LDw8ProafZ/Kv931Tetrykk7fscQ0IDw8Pr4eeZvOvfmYqbxte0skVwnANCA8PD6+HnnLzX/MBwPr6JZ1cw+MaEB4eHl4/PeXmv6YDQA7rl3RyDY9rQHh4eHj99ES3+dc+AOSyfkkn1/C4BoSHh4fXW0+z+dfa/3Nav6STa3hcA8LDw8PrrafZ/Ffd/3Nbv6STa3hcA8LDw8PrrafZ/Ffc/3NcP1dh4n8L14Dw8PDw+uppNv9l9/9c189VmMrTbP61DgCZrx8eHh5erp5m819y/3e1fg7CaDb/VQ8ADtYPDw8PL1dPs/kv2v8N5G3PcxJGs/mveABwsn54eHh4uXqazX/B/m8kbzueozCazX/ZA4Cj9cPDw8PL1dNs/nP7v6G8zT1XYXSb/5IHAGfrh4eHh5erp9n8Zw3mbea5ClMOzea/6ABgIC8eHh4eXjk0m/+swbzNPFdhyqHZ/BccAIzkxcPDw8Mrh1rzl/IAYC1vM89VmHJoNv+5A4ChvHh4eHh45VBr/vH3DeZt5rkKUw7N5j9rMC8eHh4eXjnUmv9hBwAreZt5rsKUg2tAeHh4eD30RLH5zzsAmMnb2HMVphxcA8LDw8ProafZ/KsDgKm8jT1XYcrBNSA8PDy8Hnqazb/a/03lbctLOnnLHteA8PDw8HroaTb/6mem8rbhJZ1cIQzXgPDw8PB66Ck3/zUfAKyvX9LJNTyuAeHh4eH101Nu/ms6AOSwfkkn1/C4BoSHh4fXT090m3/tA0Au65d0cg2Pa0B4eHh4vfU0m3+t/T+n9Us6uYbHNSA8PDy83nqazX/V/T+39Us6uYbHNSA8PDy83nqazX/F/T/H9XMVJv63cA0IDw8Pr6+eZvNfdv/Pdf1chak8zeZf6wCQ+frh4eHh5eppNv8l939X6+cgjGbzX/UA4GD98PDw8HL1NJv/ov3fQN72PCdhNJv/igcAJ+uHh4eHl6un2fwX7P9G8rbjOQqj2fyXPQA4Wj88PDy8XD3N5j+3/xvK29xzFUa3+S95AHC2fnh4eHi5eprNf9Zg3maeqzDl0Gz+iw4ABvLi4eHh4ZVDs/nPGszbzHMVphyazX/BAcBIXjw8PDy8cqg1fykPANbyNvNchSmHZvOfOwAYyouHh4eHVw615h9/32DeZp6rMOXQbP6zBvPi4eHh4ZVDrfkfdgCwkreZ5ypMObgGhIeHh9dDTxSb/7wDgJm8jT1XYcrBNSA8PDy8Hnqazb86AJjK29hzFaYcXAPCw8PD66Gn2fyr/d9U3ra8pJO37HENCA8PD6+Hnmbzr35mKm8bXtLJFcJwDQgPDw+vh55y81/zAcD6+iWdXMPjGhAeHh5ePz3l5r+mA0AO65d0cg2Pa0B4eHh4/fREt/nXPgDksn5JJ9fwuAaEh4eH11tPs/nX2v9zWr+kk2t4XAPCw8PD662n2fxX3f9zW7+kk2t4XAPCw8PD662n2fxX3P9zXD9XYeJ/C9eA8PDw8PrqaTb/Zff/XNfPVZjK02z+tQ4Ama8fHh4eXq6eZvNfcv93tX4Owmg2/1UPAA7WDw8PDy9XT7P5L9r/DeRtz3MSRrP5r3gAcLJ+eHh4eLl6ms1/wf5vJG87nqMwms1/2QOAo/XDw8PDy9XTbP5z+7+hvM09V2F0m/+SBwBn64eHh4eXq6fZ/GcN5m3muQpTDs3mv+gAYCAvHh4eHl45NJv/rMG8zTxXYcqh2fwXHACM5MXDw8PDK4da85fyAGAtbzPPVZhyaDb/uQOAobx4eHh4eOVQa/7x9w3mbea5ClMOzeY/azAvHh4eHl451Jr/YQcAK3mbea7ClINrQHh4eHg99ESx+c87AJjJ29hzFaYcXAPCw8PD66Gn2fyrA4CpvI09V2HKwTUgPDw8vB56ms2/2v9N5W3LSzp5yx7XgPDw8PB66Gk2/+pnpvK24SWdXCEM14Dw8PDweugpN/81HwCsr1/SyTU8rgHh4eHh9dNTbv5rOgDksH5JJ9fwuAaEh4eH109PdJt/7QNALuuXdHINj2tAeHh4eL31NJt/rf0/p/VLOrmGxzUgPDw8vN56ms1/1f0/t/VLOrmGxzUgPDw8vN56ms1/xf0/x/VzFSb+t3ANCA8PD6+vnmbzX3b/z3X9XIWpPM3mX+sAkPn64eHh4eXqaTb/Jfd/V+vnIIxm81/1AOBg/fDw8PBy9TSb/6L930De9jwnYTSb/4oHACfrh4eHh5erp9n8F+z/RvK24zkKo9n8lz0AOFo/PDw8vFw9zeY/t/8bytvccxVGt/kveQBwtn54eHh4uXqazX/WYN5mnqsw5dBs/osOAAby4uHh4eGVQ7P5zxrM28xzFaYcms1/wQHASF48PDw8vHKoNX8pDwDW8jbzXIUph2bznzsAGMqLh4eHh1cOteYff99g3maeqzDl0Gz+swbz4uHh4eGVQ635H3YAsJK3mecqTDm4BoSHh4fXQ08Um/+8A4CZvI09V2HKwTUgPDw8vB56ms2/OgCYytvYcxWmHFwDwsPDw+uhp9n8q/3fVN62vKSTt+xxDQgPDw+vh55m869+ZipvG17SyRXCcA0IDw8Pr4eecvNf8wHA+volnVzD4xoQHh4eXj895ea/pgNADuuXdHINj2tAeHh4eP30RLf51z4A5LJ+SSfX8LgGhIeHh9dbT7P519r/c1q/pJNreFwDwsPDw+utp9n8V93/c1u/pJNreFwDwsPDw+utp9n8V9z/c1w/V2HifwvXgPDw8PD66mk2/2X3/1zXz1WYytNs/rUOAJmvHx4eHl6unmbzX3L/d7V+DsJoNv9VDwAO1g8PDw8vV0+z+S/a/w3kbc9zEkaz+a94AHCyfnh4eHi5eprNf8H+byRvO56jMJrNf9kDgKP1w8PDw8vV02z+c/u/obzNPVdhdJv/kgcAZ+uHh4eHl6un2fxnDeZt5rkKUw7N5r/oAGAgLx4eHh5eOTSb/6zBvM08V2HKodn8FxwAjOTFw8PDwyuHWvOX8gBgLW8zz1WYcmg2/7kDgKG8eHh4eHjlUGv+8fcN5m3muQpTDs3mP2swLx4eHh5eOdSa/2EHACt5m3muwpSDa0B4eHh4PfREsfnPOwCYydvYcxWmHFwDwsPDw+uhp9n8qwOAqbyNPVdhysE1IDw8PLweeprNv9r/TeVty0s6ecse14Dw8PDweuhpNv/qZ6bytuElnVwhDNeA8PDw8HroKTf/NR8ArK9f0sk1PK4B4eHh4fXTU27+azoA5LB+SSfX8LgGhIeHh9dPT3Sbf+0DQC7rl3RyDY9rQHh4eHi99TSbf639P6f1Szq5hsc1IDw8PLzeeprNf9X9P7f1Szq5hsc1IDw8PLzeeprNf8X9P8f1cxUm/rdwDQgPDw+vr55m8192/891/VyFqTzN5l/rAJD5+uHh4eHl6mk2/yX3f1fr5yCMZvNf9QDgYP3w8PDwcvU0m/+i/d9A3vY8J2E0m/+KBwAn64eHh4eXq6fZ/Bfs/0bytuM5CqPZ/Jc9ADhaPzw8PLxcPc3mP7f/G8rb3HMVRrf5L3kAcLZ+eHh4eLl6ms1/1mDeZp6rMOW4S3SfBpowlhcPDw8Pr9ybNZv/XcbyNvdchSnH7aL7NNCksbx4eHh4eCJTotf8Y91mLG9zz1WYctwkuk8DbTaWFw8PDw9PZIvoNf/4+zcay9vccxWmHD8Q3aeBthvLi4eHh4cnslP0mn+sq43lbe65ClOOq0TxaaCiKI4xlhcPDw8PT+RY0Wv+sa4wlre55ypMOb4jik8Dbdgwc6KxvHh4eHi998Lefg/F5h/r25bytuK5ClOOb4ri00AzMzP3MZYXDw8Pr/fe9PT0fRWbf6yvW8rbppd08pa9r4ri00DhTnaqsbx4eHh4vfemp6dOU2z+8X//iqW8bXlJJ1cIc7Hm00BTU1MPsZQXDw8PD++MyampyYcqNv9YF1nK24aXdHINL9xYF2o+DTQ5OXqYpbx4eHh4eGdMhnGGYvOP9RlLedvwkk6u4RVF8XfKTwP9jKW8eHh4eHhnTA6Hw7NFr/nH+oSlvG14SSfX8MIB4MPKTwM901JePDw8PLyDzezZotf8Y73fUt42vKSTa3jhAPAW5aeBXmwpLx4eHh7eQe83Ra/5x3qjsbyNvaSTa3jhAPAa0X0a6Pct5cXDw8PDOzjOE73mH+u/G8vb2HMV5lHl00AvFd2ngd5gKS8eHh4e3sHxJtFr/rFeYixvY89VmMo7R3SfBnqfsbx4eHh4eCIfEL3mH+tZxvK27zkIc5boPg30SWN58fDw8PBEPi16zT/WE4zlbddzEuZ00X0a6BJjefHw8PDwRC4VveYf6yeM5W3PcxRmn+g+DXSVsbx4eHh4eCL/JnrNP9Y9jeVtx3MVZt53Qq9UDe4Md4aaNJQXDw8Pr+/elJR7s1bzj3WkobzteK7ClGMgK9wRpJ07wwmG8uLh4eH13TtZdJt/7CmFobzteK7CHBrfF907w6OM5cXDw8Prs/cY0dvvY33PWN52PFdhDo34rU2ad4bnGsuLh4eH12fv+aK338f6vLG87XiuwhwafyG6d4bfM5YXDw8Pr89e/JQ+rf1+tiiKdxvL247nKsyh8SrRvTNcYCwvHh4eXp+9d4vSfh9/fzAoXmUsbzueqzCHxgtF8c4QDgAXGsuLh4eH12fvi6K038caDgcvNJa3Hc9VmEPjTFG8M4S60lhePDw8vN56YXxfcb+fHY1Gj7OUV2H90k3ethdusHtq3hlC3bVr1zFbrOTFw8PD66s3Gg03xj1Zcb+fnZmZvpeVvG17SSfX8Hbv3rX58DuEtHhnqOoBVvLi4eHh9dWbnJz8Cc3mH+rOqTCs5G3TSzq5phdutKu0mn/1s2dayouHh4fXR284HP6y5h974X//rqW8bXpJJ9f04gv1FJt/rNdayouHh4fXRy/s9a9T/mPv05bytuklnVzTC3eKd4he84/1MUt58fDw8Prohb3+E8p/7J1vKW+bXtLJNb3wo5eJXvOPdbWlvHh4eHh99ML+vOxHv9epGvv9b1jK26aXdHJl73Gi1/zHdbShvHh4eHi98jZt2rRHdJt/rEdbydu25yrMYd6xotv8V7xjOFg/PDw8PNOeLPMlQHVqDfv93azkVVg/P2GW8K4Rvea/7FNDjtYPDw8Pz7L3EtFt/tcYy6vruQoj8knRa/6x3mosLx4eHl6fvPNF95neTxjLq+e5ClOO14le84/1TWN58fDw8PrkfUt0L/P+obG8Op6rMIfGc0Wv+ce6K9RRhvLi4eHh9cXbIeUerHmZ99mG8up4rsIsHD8ues1/XGcZyouHh4fXF+9s0W3+sU4zlLd9z1WYxWMm1AHRa/6xXm0oLx4eHl5fvNeIbvOPvWODobzte67CLD2+LnrNP/7+hcby4uHh4fXBu1D0mn+srxvL277nKszS43+JXvOPdduePbu3GMqLh4eH592Lz+7eLnrNP9abDeXV8VyFWXqcI3rN/2BNTk4+zFBePDw8PO/eT4lu84/1HEN5dTxXYZYY4Ybfp9n8Yw0Gg9+2khcPDw+vB95vi27zj3VPQ3l1PFdhlvD27//x+GURP9Bq/pX3V1by4uHh4fXA+6joNv9r9u7dM2Eor47nKswyXlEUH1Fs/rFuCTVlJS8eHh6eY2861K2i1/xjfchQXnUv6eTa3mAw+B3F5j+uR1nJi4eHh+fYe6zoNv94Wfe3DOVV9ZJO3oU3OTmKmGbzj/UHVvLi4eHhOfb+SBSbf/XC7p8ylFfNSzp5V95UGOHHt4le8491mZW8eHh4eI69b4hi849v7d67d89mQ3nVvKSTd+xdKHrNf1zHGcqLh4eH583bK7rNf7Yois8ayqvqJZ28Y+880W3+sV5gKC8eHh6eN++Fotj8y7d1F68ylFfVSzp5x97DRbf5x/qQobx4eHh4rrww/lL7c11Go9EjrOTV9pJO3rEXw94kes0/1s3VPBby4uHh4bnx4mu5wn58s2bzD3XDhg0z9Z4aV87bhecqTA3vg6LX/Mf104by4uHh4bnwhsPh2crNP/7v77OStwvPVZga3vNFt/nHequhvHh4eHguvKIo3qnc/GM910reJJ6rMIvH3UW3+ce6cffuXZuN5MXDw8PL3otvy4tPzys3/1h7LORN4rkKs/y4VPSaf/UikuGTDOXFw8PDy9oLe+rPddD8L7GSt3PPVZiVx2tFsflX7yN9l6G8eHh4eFl7YU/9C+XmH+vVVvJ26rkKU4MTxeZf1U27dh2zxUhePDw8vGy9sJdui6/+F93mH+sRFvJ26rkKU2NMT09PdvBWkvi/P8lCXjw8PLycveFw+POi3/xrfaNrjuu3oucqTE2vKIr3d/Bq0ndbyYuHh4eXqxd+9B7Rbf6z1Rwm8nbquQpT0wsnyqd18IKSeKLcYiEvHh4eXo7eYDDYGn58q+g2/1hPtpC3c89VmJpeh9eUnm8hLx4eHl6m3q+IfvOPvWDGSN5uPVdh1uCFH10g+k8rXWwlLx4eHl6G3pdFt/nHeqehvN16rsKszXui6J8sY51qJC8eHh5eTt4DRX9/jvWzRvJ277kKszZvOtQNon/n+nMjefHw8PBy8v6n6O/PN0rZCyzkTeYlnTyh93bRvXPFioeMjUby4uHh4eXgxWvy14v+/ny+kbzJvKSTJ/YeL7p3rnE9y0hePDw8vBy8Z4t+84/1OCN5k3hJJzfgxRcDXiu6zT/W54zkxcPDw8vBu1D0m/91oSaN5E3iJZ3ciPdm0W3+Y+t+RvLi4eHhWfbuJ908M/smI3mTeUknN+LtF+XmH6soircayYuHh4dn2Ttf9Jt/rIPe3psAABoDSURBVIcYyZvMSzq5Ie9rotj8K+OOTZs2HW8kLx4eHp5Fb1eo20W/+V9iJG9SL+nkhrz/LLrN/2ANBsWrjOTFw8PDs+idJ/rNP9aLjORN6rkK08DbHuqHms2/quuGw+EmA3nx8PDwrHmbZYW3/rW4P99WFMUOA3mTe67CNPHCHeIC5eY/d/K0kBcPDw/PmPfrot/8Y73DSF57nqswa/AmJ0eP6aD5x/pOqGHqvHh4eHiGvEGob4t+858djcI/J31ee56rMGv09u9/8FS4Y31LufmP66mp8+Lh4eEZ8p4mHTT/8PuXx73eQF5bnqsw6/QGg+J3RL/5x/pSqInUefHw8PAMeHEvXPStfxqvyRoMBr9jIK8tz1WYBl5RFHcLP75DdJv/uJb8Bqou8+Lh4eEZ8M6WDpp/fCv2li2b724grx3PVZh2vLeJfvOP9dVQhYG8eHh4eKm8+Nf/V0S/+ccPY3u7gby2PFdh2vHix1DeJbrNf1w/ZyAvHh4eXirvP0gHzT/W9PTUgwzkteW5CtOe93HRb/6xLpXqWQBn64eHh4e32oiv/L9MOmj+4a//jxnIa89zFaY970zRb/7j+gUDefHw8PC69p4uHTT/WKPR8KcN5LXnuQrTrrfgupSscOdqeGf91r59J80YyIuHh4fXlRf/+v+GdND8Q12yd++eFd911UFem56rMO16zxL95n/w94fD4XMN5MXDw8PryjtHumn+8X9/hoG8Nj1XYdr1JkNdKcrNv6p/2b1711Zn64eHh4e31JgJ9S8dNf8rpNzLU+Y17yWd3LD3W9LRNarBoHiFgbx4eHh4ql4Yr+io+cd6aeq81r2kkxv3jgh1c0d31ltCHZs4Lx4eHp6aVxQTu8N+d0tHzf+mUNtS5rXuJZ08B68oivM6urPGenvqvHh4eHhaXoffuhrr91Lnte4lnTwHb/v2I3eGO9X1HdxZY8UPIDo9ZV48PDw8DW9ycvSTYc+7q6Pmf0OoI1PmzcFLOnku3mAw+N0Omv+4LpYlPiK4y7x4eHh4bXqnnnrKVPjr/6KOmn+sl6fMm4uXdPJcvO3bj9gRfnSt6Df/cT09ZV48PDy8Nr3hcHhOh83/eql57T+X9dPykk6embeurwpe5wsI41tXNiXOi4eHh9fYO+qondvDvndVR80/1m+nzJuT5yqMsrcx1PdFv/mP648S58XDw8Nr7BVF8WcdNv9rQm1OmTcnz1WYDryXSDfNP9adofYnzouHh4e3bm9qavL0sPcd6PA1VC9OmTd7z1WY9r3pUPHpee3mP65LpqenJx2tHx4eXk+8E044flNRTFzaYfO/KtSGVHmz91yF0fN+Vbpp/ger+oRAT+uHh4fXA28wGPy3Dpt/rP+YMm/Wnqswut4w1Nekg+ZfGbfNzEyf4mj98PDwnHszMzP3DXvXD6W75n9ZqGXf157b+nXquQrTjfdo6ab5H6yiKL4Q30fraP3w8PCceqed9oDpsG99Vrpr/rHOTJU3a89VmG69j0oHzX+e9yuJ8+Lh4eGt6g0GgxdJt83/IynzZu25CtOtty/UHR01/1jxy4JOTpgXDw8Pb0VvZmYm7lE3SnfN/45Q90yVN3vPVZiOvaIoXt9R8x/Xl2SF61zaefHw8PCW8/btO2km/Ojz0l3zj/XaVHldeK7CdOwdeeQRR4U76TUdfshFrFemyouHh4e3nBd+FL99r8vmf7Us8ZG/ua5fEs9VmATeYDD41Y7f6hI/IGjZf3xu64eHh5e/NzFx8FtMD0h3zT/W81LldeO5CpPAu+997x0/HOj/Sbcn338NdUSKvHh4eHjzvfBH0Nbw4+9It83/K6EGKfK68lyFSec9LNRd0t2dP9Y7E+bFw8PDG3sXSLfNPz4LenrCvO68pJM78d4g3TX/cf1iwrx4eHh4z5Bum3+sP0+Y152XdHJHXnwa7ErprvnHujH87j4n64eHh5eXd69QN0m3zT9+F8vWRHndeUknd+g9Xrpr/mPvGzt37tjhZP3w8PDy8DaFulS6bf6xzk6U16WXdHKn3vulu+Y//qjgD+/f/+ApJ+uHh4dn25sI9V7pvvm/J1Fet17SyZ16dwt1nXTU/Mc1GAx+y8n64eHh2fZeJt03/xtCHZsor1sv6eSOvV+WDpt/5cX34D4mUV48PLx+eI8I9SPptvnHOidRXtde0skde/Epsr+V7pr/uH4Qam+CvHh4eP69u0v56XtdN/+/CzXhYP3Mea7CWPLCHf3EULd02PzH9cVQU13nxcPDc+3FPeUi6b75xy9BO9HB+pn0XIWx5g2Hgxd03PzH9W4pn4XoNC8eHp5LL+4lb5Pum3+s5zpYv3w8V2EMeEVRvLfj5j+u302RFw8Pz533+5Km+X/Ayfrl4bkKY8Q74ohtR0n52f1dNv9xvaDrvHh4eK6850ia5n/FYFBsd7B+eXiuwtjzHibl51d32fxj3SHVOwMyXz88PLzuvYeHul26b/5xr3ykg/XLw3MVxq73Wklzkr4p/O4pDtYPDw+vO+8+oa6X7verWK92sH55eK7C2Pbiq2j/Qbp/MMXfv2LTpk3HZ75+eHh43XjHhPoXSdP8//7444/bmPn65eO5CmPfu3eof5dum//BKoqJf9ixY/vOzNcPDw9P14tftPP3kqb53zo9PXW/zNcvL89VmDy850vHzX9efW40Gm7sOC8eHl4eXtwbPidpmn/8OPMXZL5++XmuwuTjvVm6b/7jn8VPKJzuOC8eHp5tbzLU/5ZEzb8oindkvn55eq7C5OPFBvwl6b75j+v/SI1PC2wxLx4enl0vfiLcX0qi5h9+/yu7d+/amvH65eu5CpOXtyfUNQma/7ji1xYPO8yLh4dnzxuEukDSNf9rN27ccHLG65e35ypMZt5oNHpseAAcSND8x3V+qKKrvHh4eKa8+BG/b5R0zf/OsAc+PuP1c+MlnbzP3mAw+K+Jmv+4/lQO+96AnNYPDw9vXV58zMfHfqrmH1/0918yXj83XtLJ++7t3//gqaIo4tPxKZr/uOJfAUUXefHw8JJ7sfn/iSRs/mHP+8u492W6fm68pJPjld5wONwcfnyZpGn+47pgw4aZUY7rh4eHV9uL1/zPl4TNP9Q3q88kyXH9XHlJJ8db4N0r1HWSpvkfrHAq/+DevXs2Z7p+eHh4K3vxnT8flLTN/7qZmen7Zbp+7rykk+Mt8n4q1G2S7sEZDwGfPProo47MdP3w8PCW9jZI+fbflM3/jsnJ0WMzXT+XXtLJ8ZYcPx/qLknQ/OfVZ4bDwZaO8uLh4el6m0J9QtI2/7uGw+FzMl0/t17SyfGWHS+XdM1//LMvhNreUV48PDwdb0eoiyRt84+v+D830/Vz7bkK48iLr9J9i6Rr/uO6PNQ9O8iLh4fXvndCqG9I4uZfFMX5ma6fe89VGGdevHE+Luma/7iulfK1Cdp58fDw2vMeEupqSd/8P3XCCcdvynD9+um5CpO/F6/DfzVh8x9XfGHiL3SQFw8Pr7n3ZFnla8el2X5Qs/lPXHbkkUccleH69dNzFcaJt2HDhhPDg+nKhM1/XPGFiS/VzouHh9fIe5ms8iJiaWc/WM27YuPGjSdmuH799FyFcebNzMzcJzygvpew+c+v+FXGo5zWDw+vB178gJ8/k+73g6W8q2dmpk/JbP3667kK49Sbmpo8Lfzoeknb/Mf1N9u2bT06p/XDw3PsxXfrfExsNP/rpqenHpTZ+vXXcxXGv/fgUDdJ2uY/Nv41HEoemtn64eF5834s1D9J+v0g1q2Tk5NnZLZ+/fZchemH99BQt0j6B3usHw4Gg+dntn54eF68Xwp1q9ho/v8+OTl6dGbrh+cqTH+8x0iNjwzu8N0Dbwg1qZgXDw/vkBc/0/91YuOZwFh3jEajszNaP7x5v+gnTL+8J4b6kaRv/uO6ONRxinnx8PBEjg31ebHT/A8Mh8NfzGj98A77ZT9h+uc9PdQBSd/8x/W9UI9QzIuH12fvkaG+L7aa/7MzWj+8JQA/YfrpPTXUHZK++Y8rvgc5Pj05qZQXD69X3qZNG4fhx+eGulNo/nhteq7C9Nf7mVA/NND859dXQ91PKS8eXi+88JjbF378Zen+8buSd/toNHxKDuuHpzCsh+mjNxqNHhUemDcZaf7jih9H+mt79+6ZsL5+eHjWvPCjZ8ga3vEj7T9+l/JuDXvNT+ewfngKw3qYPnvxPbjhAXqDkeY/V0VRfGjbtq3HWF8/PDwL3tatW44JP/qQGHn8znNuCHvMw6yvH57SsB4G7+AhIH4L2A/E3uZxZfjL4Wesrx8eXkpvNBrGy3lXib3H7w+mpqYeYn398NbmJZ0cT827V6grxc7mMd97T6idLedd88DDs+TFb80riuJNsoYv8jm8FB+/35uennqg5fXDW5+XdHI8Ve+kUN+W9JvHUl58K9OSXy/cIG/tgYdnyRsOh88Ij4+rRe/x1sS7fMOGmXtZXj+89XtJJ8dT9+KXhHxGbDX/+fVRWeXDg5zdHnh4c97mzZuOC3/1f9jaa3bGRvi3fXHr1i3HWl0/vOZe0snxOvHix4ZeIPaa/7jiZ5nH7zAfGF0/PLxWvdNOe8D0cDh44fhdO2Kz+X9w9+5dWy2uH157nqsweMuOItRrxV7zn19fCPUgo+uHh9eKF79BMzTXiww83pb1BoPiD+IhxeL64bXruQqDt+p4rlTfH2Cs+Y8rvgDqPeF39xhdPzy8dXmbNm3aE1/kF+7bdxp6vB3uHRgMBi+yuH54HXmuwuAtNR4THug3Gmz+871bwkb0u3v27N5ibf3w8NYypqenJ8N9+cWHP+bE1uMt1s3VN/qZWj88mj9ey9709NSPhwf8FYY3o3F9ezgcPtXa+uHh1RxPDvfhfzJ+2I51RdwTrK0fHs0fT8nbsmXz3cMDf9V3CKxUHV5G+L+hTrW0fnh4K4x4X/2k0ctsC7yiKD4d9wJj64dH88fT9qpvGTtPjGxGNbyPh3qAlfXDwzts3FvKD7q6K5Pm/6aTTz5xo6H1w6P54yXwfl7W8KUjiTe3gy8UDLXP0Prh9ds7PtQbQh2Q9I+POt6/D4fDcwytH14qz1UYvCZebKiXie3mP7/id6PHg8BJRtYPr3/ecVI2/oPvrBFbj4/lvH+cnp4+1cj64aX2XIXBa+ptC/URsd/859cdod4YfvceBtYPrx/ePUK9Ucr7nvXHx1wVRfGRHTu27zSwfnhWPFdh8Nrw4ocGvVzKv7Cz2dzC7x8IG9z7p6YmT3d2e+DZ8R4c6r1SPdUvuvfnNr0Dg0Hxiv37Hzzl7PbAa+q5CoPXpvcTUn2ZkPHNbSnvy+F/f4Ys8fHCHa4fng8vHoifIOULUFPdn5t4/zoajR7p6PbAa9NzFQavVW8wGGwNf1W/y/Dmtpp3eahfC7UhxfrhZe3F79CIh8gVXxdjvPm/d9u2rUc7uT3wNDxXYfBUvPiK4QnDX1xSw4tftRrf7nhiivXDy8qLLyqN95VVv57XcPO/KdQzndweeB14SSfHs+9t2DATm+e6PzjI0GZ5cajnybxnBXK8PfBa9eJf+0+R8mn++DbTnO7Ph9cXw++emPntgdehl3RyvKy8+MFB8at7F7z6ebUyulleH+oN4XdPyfj2wGvmxbe+xr/2r5H878/xhYnnhYP6KOPbA69jL+nkeNl6Dw31j5LvZrnAK4riwvj97Nu2bT0m09sDr6a3ZcvmXeFHLwj1eTFy/2vBi4/Fh+Z4e+Cl9ZJOjpe1NxPq3FC3S16b5Upe/Cvqs1K+cPAo5fXD68g78sgjjhoOh88JB72/kjU+eyXd3v/WasQPIHpdqI053R54drykk+O58O4f6iKxv1mu1Zt/GNihuH54Ct727UfsGDf9cNvenuH9b7X6SqjTtNYPrx9e0snx3HjxtQEvCXWr2Nwsm3q3SfkJifGp470K64fXjrc31Auqpn+bo/vf/IqPsfhYGyqsH17PvKST4/nywkZ2fFFMfNzQZqnlxQ9Iip8B/4Tdu3dttnp79MCLTfB0KV/IF9/dYfX+0pb3qVAnt7h+CwZe/zxXYfDSe/HjRqvPDbjW2ea7nHdr/ItzMBi8aHp66n579+6ZaLJ+1m/fxF5c2/iVu/8p1F9L9YyT6N6+FrwfhHpmlb/J+i078PrpuQqDZ8c74oht8UV08S+zZV8kuFIZ2nzX6t0o5fvJz41LI+WLJde8ftZv3468uEE9UMrXYcRvflz27XoZ319Wqvgiv/hM004jtweed89VGDwL3n1CfUzy23zb8uLrBz4X6jWhzhZeQ7CSd1yos6Rcq7hmtQ6Pzu4v4/obKZ/tSHl74PXJcxUGz5oX/xq+VPLYfLW9+CxBvGb9tsFg8OLRaHRm9RkEOd++tb2dO3fsmJqaekj1Kv0/kfIZk1U/enepMnr7NvG+JeWnEnZ2e+Dh+QqDZ9WblPIVzDeIzc03tfdPUr7b4I+lfNr7Z6V8m+VmpdtD09tS/dvPqrL8cWj2fx0yfiej26NLLz4mfkPKx4jG7YGHR/PHM+HF1we8UcprnBY23xy8+EKwL0n5ffR/EOo3Qz0n1FkTE3J6fAHi1q1bjr3//e8zo3X7Bn9Q3Xb3kvLV92dV/4bfrP5N8d92cfVvtbZ+Vr3xdf5lP3jK4OMXz4vnKgxebt7Jod4ZNsc7nWzmVrzrpHyr4sVVxevpH6/q/VK+oO5dUjaeN1T///dUP/t4UUz8bfx45PD/fjlW8KJ1neG8OXp3hnqHlN8+uOww/vjFy91zFQYvS29mZvr+oeG8Y3wQkPw2czy8ul78tsF4mecUWWXk8vjFy9hzFQYva29qaurHpPxLtNZXsh5eDpoDnm8vPgNzqtQYOT5+8TL0XIXB8+LFF4/Fg4DlzRwPr64XG/+DpOZw8PjFy8VzFQbPm7c/1AelvF5qZTPHw6vjxfvsB0I9RNYwnD1+8ax7rsLgefXuIeXXni746FfJtzng+fXiBz+9LdQ+WeMw9HjD64vnKgyedy9+Le/LQl0peTYHPL/e1UVRvDrUMbKOYfTxhtcTL+nkeHhrGVNhDAaDZxfFxGWZNAc8v97l8dMcjznm6K1WHh94eGrDehi8/ninnfaA6dFo9MT4CXPhRwfEXnPA8+kdiPe5eN+L90Grjw88vFaH9TB4vfZ2SXl5IH6crqdmg2fHuyI+zb9x44aTMnx84OEt8pJOjoen4BXx/1zKtxHeIfk2GzwbXnxmKb6N7yn79p004+DxgYc35yWdHA9P2Ttayi+iuUTyaDZ4drz4rXznhrq7ofszHl6rXtLJ8fA68iakfD/2H4b6rsFmg2fD+26oP6ruK/E+Y/X+jIfXipd0cjy8FF78Lvr4PfShMVzlqHnhrc+L31wY37f/hFCDpe4v1u/PeHjr9VyFwcNbi3fqqadMxa/SlfJDhv5N8mteeOvzrpVDTX9Y9/5i/f6Mh7dWz1UYPLwGXmwEjwz1mlBfE7vNC2993iXVbfsIOewv/cOHk/szHt7aPVdh8PDW78UXED5DyncTXC++mmEfvFukfPV+fBHontVu7PEwdP/Dw6P54+EZ8OJfjA8MdW5oLl8OdVdmzbAv3rfjazviTR9qcq03suH7Hx6erucqDB6eordz544do9HozNBsXinlX5k/FHvN0Lv3o3gYiw1/OBw+bdu2rbus3l/w8Ex7rsLg4XXvxdcPxGcI4tPN8ZLB1ZJ3c7Xo3SjlYevceJPs3r1rc8b3Fzw8G56rMHh4Nrz4HvL4dbC/GOq8UB+V8j3mVpurNe+71ZqdV63hPuF9+Xh47XuuwuDhGfYGg8HWycnRGcPh4IXxqetQnwvN8GbJu1k38W4PdamUb8mL3+MQ35Z3dFe3Bx5e7z1XYfDwMvP27t0T/7LdHSp+HsHTQ7081FtCfTLUP4f6kdho1uvx4nX6fw4Hnb8L9dbBoDi3yviTVeai6fpZv33x8Ex7rsLg4fnz4od13EPK96/HtyX+eqjfCw31jaE+EOpTRTHxtdBor5LyL2rt5n9bqCtDfVXKQ8r7Qv2P+G+q/m3x3/iIDRtmTjr55BM3Glg/PDy8FX7ZTxg8PLzNofZKeWh4YFX7469W9aRQTwn1tFDPizUcDn4pvpJ+NBo+Nb67IdbExMHfGf/+PSpzs8G8eHh46/VchcHDw8PDw8OrjySbHA8PDw8PDy+pl3RyPDw8PDw8vO69pJPj4eHh4eHhde8lnRwPDw8PDw8vjZd0cjw8PDw8PLw0XtLJ8fDw8PDw8NJ4SSfHw8PDw8PDS+MlnRwPDw8PDw8vjecqDB4eHh4eHl49z1UYPDw8PDw8vHV6rsLg4eHh4eHh0fzx8PDw8PDwLE2Oh4eHh4eHR/PHw8PDw8PDU/ZchcHDw8PDw8Or57kKg4eHh4eHh1fPcxUGDw8PDw8Pr57nKgweHh4eHh5ePc9VGDw8PDw8PLzagJ8weHh4eHh4ePWRZJPj4eHh4eHhJfWSTo6Hh4eHh4fXvZd0cjw8PDw8PLzuvaST4+Hh4eHh4aXxkk6Oh4eHh4eHl8ZLOjkeHh4eHh5eGi/p5Hh4eHh4eHhpvKST4+Hh4eHh4aXxXIXBw8PDw8PDq+e5CoOHh4eHh4e3Ts9VGDw8PDw8PDyaPx4eHh4eHp6lyfHw8PDw8PBo/nh4eHh4eHjKnqsweHh4eHh4ePU8V2Hw8PDw8PDw6nmuwuDh4eHh4eHV81yFwcPDw8PDw6vnuQqDh4eHh4eHVxvwEwYPDw8PDw+vPpJscjw8PDw8PLykXtLJ8fDw8PDw8Lr3kk6Oh4eHh4eH172XdHI8PDw8PDy8NF7SyfHw8PDw8PDSeEknx8PDw8PDw0vjJZ0cDw8PDw8PL42XdHI8PDw8PDy8NJ6rMHh4eHh4eHj1PFdh8PDw8PDw8Op5/x+2ECC8RE5QmgAAAABJRU5ErkJggg==;rotation=50;fontFamily=Inconsolata;fontSource=https%3A%2F%2Ffonts.googleapis.com%2Fcss%3Ffamily%3DInconsolata;labelBackgroundColor=none;" parent="1" vertex="1">
          <mxGeometry x="630" y="470" width="22" height="22" as="geometry" />
        </mxCell>
        <mxCell id="99a3MrbKA4sMqq4AETfv-10" style="rounded=0;orthogonalLoop=1;jettySize=auto;html=1;exitX=1;exitY=0.5;exitDx=0;exitDy=0;entryX=0;entryY=0;entryDx=0;entryDy=0;endArrow=none;endFill=0;" parent="1" source="99a3MrbKA4sMqq4AETfv-6" target="99a3MrbKA4sMqq4AETfv-4" edge="1">
          <mxGeometry relative="1" as="geometry" />
        </mxCell>
        <mxCell id="99a3MrbKA4sMqq4AETfv-6" value="is_Administrator" style="ellipse;whiteSpace=wrap;html=1;align=center;fillColor=none;fontFamily=Inconsolata;fontSource=https%3A%2F%2Ffonts.googleapis.com%2Fcss%3Ffamily%3DInconsolata;labelBackgroundColor=none;" parent="1" vertex="1">
          <mxGeometry x="389.44" y="520" width="100" height="40" as="geometry" />
        </mxCell>
        <mxCell id="99a3MrbKA4sMqq4AETfv-9" style="edgeStyle=orthogonalEdgeStyle;rounded=0;orthogonalLoop=1;jettySize=auto;html=1;exitX=1;exitY=0.5;exitDx=0;exitDy=0;entryX=0;entryY=0.5;entryDx=0;entryDy=0;endArrow=none;endFill=0;" parent="1" source="99a3MrbKA4sMqq4AETfv-8" target="99a3MrbKA4sMqq4AETfv-4" edge="1">
          <mxGeometry relative="1" as="geometry" />
        </mxCell>
        <mxCell id="99a3MrbKA4sMqq4AETfv-8" value="&lt;u&gt;EID&lt;/u&gt;" style="ellipse;whiteSpace=wrap;html=1;align=center;fillColor=none;fontFamily=Inconsolata;fontSource=https%3A%2F%2Ffonts.googleapis.com%2Fcss%3Ffamily%3DInconsolata;labelBackgroundColor=none;" parent="1" vertex="1">
          <mxGeometry x="389.44" y="560" width="100" height="40" as="geometry" />
        </mxCell>
        <mxCell id="99a3MrbKA4sMqq4AETfv-16" style="edgeStyle=orthogonalEdgeStyle;rounded=0;orthogonalLoop=1;jettySize=auto;html=1;exitX=0.5;exitY=1;exitDx=0;exitDy=0;entryX=0.5;entryY=0;entryDx=0;entryDy=0;endArrow=none;endFill=0;" parent="1" source="99a3MrbKA4sMqq4AETfv-15" target="OM572cekEQb-akaccsAw-3" edge="1">
          <mxGeometry relative="1" as="geometry" />
        </mxCell>
        <mxCell id="99a3MrbKA4sMqq4AETfv-15" value="Login_Cardinality" style="ellipse;whiteSpace=wrap;html=1;align=center;fillColor=none;fontFamily=Inconsolata;fontSource=https%3A%2F%2Ffonts.googleapis.com%2Fcss%3Ffamily%3DInconsolata;labelBackgroundColor=none;" parent="1" vertex="1">
          <mxGeometry x="670" y="140" width="100" height="40" as="geometry" />
        </mxCell>
        <mxCell id="99a3MrbKA4sMqq4AETfv-17" value="Password" style="ellipse;whiteSpace=wrap;html=1;align=center;fillColor=none;fontFamily=Inconsolata;fontSource=https%3A%2F%2Ffonts.googleapis.com%2Fcss%3Ffamily%3DInconsolata;labelBackgroundColor=none;" parent="1" vertex="1">
          <mxGeometry x="812" y="120" width="100" height="40" as="geometry" />
        </mxCell>
        <mxCell id="99a3MrbKA4sMqq4AETfv-19" style="edgeStyle=orthogonalEdgeStyle;rounded=0;orthogonalLoop=1;jettySize=auto;html=1;exitX=0.128;exitY=0.844;exitDx=0;exitDy=0;entryX=0.828;entryY=0.113;entryDx=0;entryDy=0;entryPerimeter=0;endArrow=none;endFill=0;exitPerimeter=0;" parent="1" target="99a3MrbKA4sMqq4AETfv-15" edge="1">
          <mxGeometry relative="1" as="geometry">
            <mxPoint x="752.8" y="113.75999999999999" as="sourcePoint" />
          </mxGeometry>
        </mxCell>
        <mxCell id="99a3MrbKA4sMqq4AETfv-20" style="edgeStyle=orthogonalEdgeStyle;rounded=0;orthogonalLoop=1;jettySize=auto;html=1;exitX=0;exitY=1;exitDx=0;exitDy=0;entryX=0.975;entryY=0.351;entryDx=0;entryDy=0;entryPerimeter=0;endArrow=none;endFill=0;" parent="1" source="99a3MrbKA4sMqq4AETfv-17" target="99a3MrbKA4sMqq4AETfv-15" edge="1">
          <mxGeometry relative="1" as="geometry">
            <Array as="points">
              <mxPoint x="797" y="154" />
            </Array>
          </mxGeometry>
        </mxCell>
        <mxCell id="99a3MrbKA4sMqq4AETfv-21" value="&lt;u&gt;Username&lt;/u&gt;" style="ellipse;whiteSpace=wrap;html=1;align=center;fillColor=none;fontFamily=Inconsolata;fontSource=https%3A%2F%2Ffonts.googleapis.com%2Fcss%3Ffamily%3DInconsolata;labelBackgroundColor=none;" parent="1" vertex="1">
          <mxGeometry x="740" y="80" width="100" height="40" as="geometry" />
        </mxCell>
        <mxCell id="2ClGpOWG2dMFLp4g8nSB-1" value="Payment_conf" style="ellipse;whiteSpace=wrap;html=1;align=center;fontFamily=Inconsolata;fontSource=https%3A%2F%2Ffonts.googleapis.com%2Fcss%3Ffamily%3DInconsolata;labelBackgroundColor=none;fillColor=none;" parent="1" vertex="1">
          <mxGeometry x="912" y="590" width="100" height="40" as="geometry" />
        </mxCell>
        <mxCell id="rtPD7jWGqoE8TqTyyNKF-3" style="edgeStyle=orthogonalEdgeStyle;rounded=0;orthogonalLoop=1;jettySize=auto;html=1;exitX=0;exitY=0.5;exitDx=0;exitDy=0;entryX=1;entryY=0.75;entryDx=0;entryDy=0;endArrow=none;endFill=0;" parent="1" source="rtPD7jWGqoE8TqTyyNKF-1" target="OM572cekEQb-akaccsAw-57" edge="1">
          <mxGeometry relative="1" as="geometry">
            <Array as="points">
              <mxPoint x="1130" y="710" />
            </Array>
          </mxGeometry>
        </mxCell>
        <mxCell id="rtPD7jWGqoE8TqTyyNKF-1" value="Price" style="ellipse;whiteSpace=wrap;html=1;align=center;fontFamily=Inconsolata;fontSource=https%3A%2F%2Ffonts.googleapis.com%2Fcss%3Ffamily%3DInconsolata;labelBackgroundColor=none;fillColor=none;" parent="1" vertex="1">
          <mxGeometry x="1130" y="700" width="100" height="40" as="geometry" />
        </mxCell>
        <mxCell id="fi6M-Fa2wv0ImvNQl4bt-1" value="Donate_Group" style="shape=rhombus;perimeter=rhombusPerimeter;whiteSpace=wrap;html=1;align=center;fontFamily=Inconsolata;fontSource=https%3A%2F%2Ffonts.googleapis.com%2Fcss%3Ffamily%3DInconsolata;labelBackgroundColor=none;fillColor=none;" vertex="1" parent="1">
          <mxGeometry x="1070" y="330" width="120" height="60" as="geometry" />
        </mxCell>
        <mxCell id="fi6M-Fa2wv0ImvNQl4bt-2" value="Recipient_Group" style="shape=rhombus;perimeter=rhombusPerimeter;whiteSpace=wrap;html=1;align=center;fontFamily=Inconsolata;fontSource=https%3A%2F%2Ffonts.googleapis.com%2Fcss%3Ffamily%3DInconsolata;labelBackgroundColor=none;fillColor=none;" vertex="1" parent="1">
          <mxGeometry x="1070" y="451" width="120" height="60" as="geometry" />
        </mxCell>
        <mxCell id="fi6M-Fa2wv0ImvNQl4bt-3" value="" style="shape=link;html=1;rounded=0;exitX=0.702;exitY=0.997;exitDx=0;exitDy=0;entryX=0;entryY=0.5;entryDx=0;entryDy=0;fontFamily=Inconsolata;fontSource=https%3A%2F%2Ffonts.googleapis.com%2Fcss%3Ffamily%3DInconsolata;labelBackgroundColor=none;exitPerimeter=0;" edge="1" parent="1" source="W_OnjFls6b9u1241AHmh-60" target="fi6M-Fa2wv0ImvNQl4bt-2">
          <mxGeometry relative="1" as="geometry">
            <mxPoint x="962" y="457.5" as="sourcePoint" />
            <mxPoint x="1012" y="502.5" as="targetPoint" />
          </mxGeometry>
        </mxCell>
        <mxCell id="fi6M-Fa2wv0ImvNQl4bt-4" value="N" style="resizable=0;html=1;whiteSpace=wrap;align=right;verticalAlign=bottom;fontFamily=Inconsolata;fontSource=https%3A%2F%2Ffonts.googleapis.com%2Fcss%3Ffamily%3DInconsolata;labelBackgroundColor=none;" connectable="0" vertex="1" parent="fi6M-Fa2wv0ImvNQl4bt-3">
          <mxGeometry x="1" relative="1" as="geometry">
            <mxPoint x="14" y="-2" as="offset" />
          </mxGeometry>
        </mxCell>
        <mxCell id="fi6M-Fa2wv0ImvNQl4bt-5" value="" style="shape=link;html=1;rounded=0;exitX=1;exitY=1;exitDx=0;exitDy=0;entryX=0.5;entryY=0;entryDx=0;entryDy=0;fontFamily=Inconsolata;fontSource=https%3A%2F%2Ffonts.googleapis.com%2Fcss%3Ffamily%3DInconsolata;labelBackgroundColor=none;" edge="1" parent="1" source="W_OnjFls6b9u1241AHmh-60" target="fi6M-Fa2wv0ImvNQl4bt-2">
          <mxGeometry relative="1" as="geometry">
            <mxPoint x="1310" y="371" as="sourcePoint" />
            <mxPoint x="1345" y="420" as="targetPoint" />
          </mxGeometry>
        </mxCell>
        <mxCell id="fi6M-Fa2wv0ImvNQl4bt-6" value="M" style="resizable=0;html=1;whiteSpace=wrap;align=right;verticalAlign=bottom;fontFamily=Inconsolata;fontSource=https%3A%2F%2Ffonts.googleapis.com%2Fcss%3Ffamily%3DInconsolata;labelBackgroundColor=none;" connectable="0" vertex="1" parent="fi6M-Fa2wv0ImvNQl4bt-5">
          <mxGeometry x="1" relative="1" as="geometry">
            <mxPoint x="20" y="-1" as="offset" />
          </mxGeometry>
        </mxCell>
        <mxCell id="fi6M-Fa2wv0ImvNQl4bt-10" value="" style="shape=link;html=1;rounded=0;exitX=1;exitY=0;exitDx=0;exitDy=0;entryX=0.5;entryY=1;entryDx=0;entryDy=0;fontFamily=Inconsolata;fontSource=https%3A%2F%2Ffonts.googleapis.com%2Fcss%3Ffamily%3DInconsolata;labelBackgroundColor=none;" edge="1" parent="1" source="W_OnjFls6b9u1241AHmh-60" target="fi6M-Fa2wv0ImvNQl4bt-1">
          <mxGeometry relative="1" as="geometry">
            <mxPoint x="1130" y="411.5" as="sourcePoint" />
            <mxPoint x="1180" y="440.5" as="targetPoint" />
          </mxGeometry>
        </mxCell>
        <mxCell id="fi6M-Fa2wv0ImvNQl4bt-11" value="M" style="resizable=0;html=1;whiteSpace=wrap;align=right;verticalAlign=bottom;fontFamily=Inconsolata;fontSource=https%3A%2F%2Ffonts.googleapis.com%2Fcss%3Ffamily%3DInconsolata;labelBackgroundColor=none;" connectable="0" vertex="1" parent="fi6M-Fa2wv0ImvNQl4bt-10">
          <mxGeometry x="1" relative="1" as="geometry">
            <mxPoint x="20" y="15" as="offset" />
          </mxGeometry>
        </mxCell>
        <mxCell id="fi6M-Fa2wv0ImvNQl4bt-12" value="" style="shape=link;html=1;rounded=0;entryX=0;entryY=0.5;entryDx=0;entryDy=0;fontFamily=Inconsolata;fontSource=https%3A%2F%2Ffonts.googleapis.com%2Fcss%3Ffamily%3DInconsolata;labelBackgroundColor=none;" edge="1" parent="1" target="fi6M-Fa2wv0ImvNQl4bt-1">
          <mxGeometry relative="1" as="geometry">
            <mxPoint x="1070" y="400" as="sourcePoint" />
            <mxPoint x="1187.5" y="479" as="targetPoint" />
          </mxGeometry>
        </mxCell>
        <mxCell id="fi6M-Fa2wv0ImvNQl4bt-13" value="N" style="resizable=0;html=1;whiteSpace=wrap;align=right;verticalAlign=bottom;fontFamily=Inconsolata;fontSource=https%3A%2F%2Ffonts.googleapis.com%2Fcss%3Ffamily%3DInconsolata;labelBackgroundColor=none;" connectable="0" vertex="1" parent="fi6M-Fa2wv0ImvNQl4bt-12">
          <mxGeometry x="1" relative="1" as="geometry">
            <mxPoint x="14" y="20" as="offset" />
          </mxGeometry>
        </mxCell>
      </root>
    </mxGraphModel>
  </diagram>
</mxfile>
